<?xml version="1.0" standalone="no"?>
<!DOCTYPE svg PUBLIC "-//W3C//DTD SVG 1.1//EN" "http://www.w3.org/Graphics/SVG/1.1/DTD/svg11.dtd" >
<svg>
<metadata>
Created by FontForge 20110222 at Sat Sep 20 10:42:15 2014
 By Orthosie Webhosting
Copyright (c) 1990, 1992 Adobe Systems Incorporated.  All Rights Reserved.DINSchrift is a trademark of Linotype-Hell AG and/or  
</metadata>
<defs>
<font id="DINNeuzeitGroteskLightRegular" horiz-adv-x="260" >
  <font-face 
    font-family="DINNeuzeitGroteskLightRegular"
    font-weight="400"
    font-stretch="normal"
    units-per-em="1000"
    panose-1="0 0 0 0 0 0 0 0 0 0"
    ascent="800"
    descent="-200"
    x-height="521"
    cap-height="760"
    bbox="-165 -250 1001 965"
    underline-thickness="50"
    underline-position="-55"
    unicode-range="U+0020-F002"
  />
<missing-glyph 
 />
    <glyph glyph-name=".notdef" 
 />
    <glyph glyph-name="glyph1" horiz-adv-x="0" 
 />
    <glyph glyph-name="glyph2" 
 />
    <glyph glyph-name="space" unicode=" " 
 />
    <glyph glyph-name="space" unicode="&#xa0;" 
 />
    <glyph glyph-name="exclam" unicode="!" horiz-adv-x="352" 
d="M110 58q0 27 19.5 46.5t46.5 19.5t46.5 -19.5t19.5 -46.5t-19.5 -46t-46.5 -19t-46.5 19t-19.5 46v0zM128 183v577h96v-577h-96v0z" />
    <glyph glyph-name="quotedbl" unicode="&#x22;" horiz-adv-x="520" 
d="M147 478v282h74v-282h-74v0zM299 478v282h74v-282h-74v0z" />
    <glyph glyph-name="numbersign" unicode="#" horiz-adv-x="520" 
d="M347 509l31 225h68l-31 -225h103v-62h-112l-22 -160h102v-62h-111l-31 -225h-68l31 225h-134l-31 -225h-68l31 225h-103v62h112l22 160h-102v62h111l31 225h68l-31 -225h134v0zM316 287l22 160h-134l-22 -160h134v0z" />
    <glyph glyph-name="dollar" unicode="$" horiz-adv-x="520" 
d="M229 -83v75q-91 8 -149 61t-66 153h96q5 -52 32 -88t87 -47v258l-34 13q-85 32 -127 80.5t-42 119.5q0 86 59.5 138.5t143.5 61.5v75h56v-75q85 -6 144 -60.5t66 -160.5h-90q-9 59 -39.5 97t-80.5 45v-253l44 -16q91 -32 134 -82.5t43 -117.5q0 -85 -60.5 -140.5
t-160.5 -60.5v-76h-56v0zM285 309v-238q56 5 90.5 37.5t34.5 77.5q0 43 -33 72t-85 48l-7 3v0zM229 430v233q-47 -7 -71 -31t-31 -52q-3 -9 -4 -18t-1 -17q0 -40 26.5 -67.5t80.5 -47.5v0z" />
    <glyph glyph-name="percent" unicode="%" horiz-adv-x="907" 
d="M205 -8l418 750h79l-418 -750h-79v0zM530 134v82q0 66 41 104.5t105 38.5q65 0 105.5 -38.5t40.5 -104.5v-82q0 -66 -40.5 -103.5t-105.5 -37.5q-64 0 -105 37.5t-41 103.5v0zM743 147v56q0 41 -16 64.5t-51 23.5q-34 0 -50.5 -23.5t-16.5 -64.5v-56q0 -40 16.5 -63.5
t50.5 -23.5q35 0 51 23.5t16 63.5v0zM85 517v82q0 66 41 104.5t105 38.5q65 0 105.5 -38.5t40.5 -104.5v-82q0 -66 -40.5 -104t-105.5 -38q-64 0 -105 38t-41 104v0zM298 530v56q0 41 -16 64.5t-51 23.5q-34 0 -50.5 -23.5t-16.5 -64.5v-56q0 -40 16.5 -63.5t50.5 -23.5
q35 0 51 23.5t16 63.5v0z" />
    <glyph glyph-name="ampersand" unicode="&#x26;" horiz-adv-x="741" 
d="M523 251l110 100l61 -63l-120 -108l129 -180h-117l-81 117q-28 -28 -52.5 -50t-48.5 -37q-30 -19 -61 -28t-68 -9q-90 0 -147 60t-57 142q0 88 55 145.5t153 109.5q-23 31 -36 53.5t-19 43.5q-2 10 -3.5 20.5t-1.5 21.5q0 65 42.5 105t106.5 40q56 0 89.5 -28.5
t46.5 -62.5q4 -11 6 -21t2 -20q0 -59 -31 -100.5t-82 -73.5l124 -177v0zM456 189l-132 193q-77 -47 -113 -82t-45 -67q-3 -8 -4 -16t-1 -16q0 -48 34.5 -83.5t83.5 -35.5q41 0 84.5 29.5t92.5 77.5v0zM422 595q0 24 -14 42t-40 18h-4h-3q-20 -3 -36 -18.5t-16 -44.5
q0 -22 12 -45.5t32 -52.5q16 11 27.5 22t20.5 22q11 14 16 28.5t5 28.5v0z" />
    <glyph glyph-name="quotesingle" unicode="'" horiz-adv-x="296" 
d="M111 478v282h74v-282h-74v0z" />
    <glyph glyph-name="parenleft" unicode="(" horiz-adv-x="352" 
d="M326 -166l-67 -54q-88 110 -139 239.5t-51 268.5t51 269t139 239l67 -54q-77 -97 -119 -214.5t-42 -239.5t42 -239t119 -214v-1z" />
    <glyph glyph-name="parenright" unicode=")" horiz-adv-x="352" 
d="M93 -220l-67 54q77 98 119 215t42 239t-42 239.5t-119 214.5l67 54q88 -109 139 -239t51 -269t-51 -268.5t-139 -238.5v-1z" />
    <glyph glyph-name="asterisk" unicode="*" horiz-adv-x="408" 
d="M175 627l-4 133h66l-4 -133l120 45l18 -62l-122 -37l83 -104l-55 -34l-73 106l-73 -106l-55 34l83 104l-122 37l18 62l120 -45v0z" />
    <glyph glyph-name="plus" unicode="+" horiz-adv-x="600" 
d="M263 290v216h74v-216h216v-74h-216v-216h-74v216h-216v74h216v0z" />
    <glyph glyph-name="comma" unicode="," 
d="M4 -138l100 262l91 -44l-126 -247l-65 29v0z" />
    <glyph glyph-name="hyphen" unicode="-" horiz-adv-x="296" 
d="M30 231v90h236v-90h-236v0z" />
    <glyph glyph-name="period" unicode="." 
d="M64 58q0 27 19.5 46.5t46.5 19.5t46.5 -19.5t19.5 -46.5t-19.5 -46t-46.5 -19t-46.5 19t-19.5 46v0z" />
    <glyph glyph-name="slash" unicode="/" horiz-adv-x="463" 
d="M20 -12l344 784h79l-344 -784h-79v0z" />
    <glyph glyph-name="zero" unicode="0" horiz-adv-x="520" 
d="M43 237v281q0 90 57.5 157t159.5 67t159.5 -67t57.5 -157v-281q0 -124 -60.5 -184t-156.5 -60t-156.5 60t-60.5 184v0zM387 208v313q0 53 -30 95t-97 42t-97 -42t-30 -95v-313q0 -52 30 -94.5t97 -42.5t97 42.5t30 94.5v0z" />
    <glyph glyph-name="one" unicode="1" horiz-adv-x="406" 
d="M45 528v96l233 131v-755h-90v613l-143 -85v0z" />
    <glyph glyph-name="two" unicode="2" horiz-adv-x="520" 
d="M25 0l281 419q1 2 2.5 4t2.5 4q20 30 36.5 62t16.5 69q0 41 -30.5 70.5t-74.5 29.5q-50 0 -86 -28t-41 -96h-90q2 93 60.5 150.5t149.5 57.5q80 0 141 -47t61 -136q0 -36 -10 -67.5t-28 -58.5l-231 -349h263v-84h-423v0z" />
    <glyph glyph-name="three" unicode="3" horiz-adv-x="520" 
d="M79 347l213 303h-247v84h407l-194 -282q92 0 153 -59t61 -162q0 -105 -70.5 -171.5t-165.5 -66.5q-72 0 -123 22t-98 97q-1 2 -2.5 4t-2.5 4l77 43q23 -44 58 -68t84 -24q5 0 10.5 0.5t11.5 1.5q49 7 90 46t41 105q0 71 -46 115.5t-117 44.5q-7 0 -13.5 -0.5t-13.5 -1.5
q-28 -5 -55 -17t-45 -30l-13 12v0z" />
    <glyph glyph-name="four" unicode="4" horiz-adv-x="520" 
d="M311 0v182h-299v40l371 529h18v-490h83v-79h-83v-182h-90v0zM311 261v262h-2l-182 -262h184v0z" />
    <glyph glyph-name="five" unicode="5" horiz-adv-x="520" 
d="M79 321l-10 7v406h355v-84h-271v-206q18 8 34 12t31 6q8 1 15.5 1.5t15.5 0.5q13 0 27 -2t28 -5q64 -17 117.5 -73t53.5 -152q0 -99 -66 -169t-164 -70q-85 0 -138.5 33t-91.5 95l75 49q23 -47 61.5 -73t86.5 -26q8 0 17 1t17 3q43 11 78 48.5t35 106.5q0 68 -44 111.5
t-108 43.5q-41 0 -79 -15t-75 -49v0z" />
    <glyph glyph-name="six" unicode="6" horiz-adv-x="520" 
d="M316 742h108l-207 -306l2 -2q8 3 17 5t18 3q7 1 14 1h13q94 0 149.5 -67.5t56.5 -148.5v-1.5v-1.5q0 -102 -65 -166.5t-157 -64.5q-97 0 -164.5 59.5t-67.5 164.5q0 12 1 23.5t3 22.5q7 37 27 77.5t59 101.5l193 300v0zM123 217q0 -70 41 -108t96 -38q60 0 98.5 40
t38.5 106t-38.5 106.5t-98.5 40.5q-55 0 -96 -38t-41 -109v0z" />
    <glyph glyph-name="seven" unicode="7" horiz-adv-x="520" 
d="M72 0l272 650h-297v84h426l-305 -734h-96v0z" />
    <glyph glyph-name="eight" unicode="8" horiz-adv-x="520" 
d="M33 208q0 68 34.5 118.5t90.5 73.5q-44 22 -69.5 61.5t-25.5 88.5q0 7 0.5 14t1.5 15q9 61 56 112t139 51t139 -51t56 -112q1 -8 1.5 -15t0.5 -14q0 -49 -25.5 -88.5t-69.5 -61.5q56 -23 90.5 -73.5t34.5 -118.5q0 -85 -60 -150t-167 -65t-167 65t-60 150v0zM397 213
q0 64 -40.5 102t-96.5 38t-96.5 -38t-40.5 -102q0 -65 40.5 -103.5t96.5 -38.5t96.5 38.5t40.5 103.5v0zM367 552q0 48 -31 79.5t-76 31.5t-76 -31.5t-31 -79.5q0 -47 31 -78t76 -31t76 31t31 78v0z" />
    <glyph glyph-name="nine" unicode="9" horiz-adv-x="520" 
d="M96 -8l207 306l-2 2q-8 -3 -17 -5t-18 -3q-7 -1 -14 -1h-13q-94 0 -149.5 67.5t-56.5 148.5v1.5v1.5q0 102 65.5 167t156.5 65q97 0 164.5 -60t67.5 -165q0 -12 -1 -23.5t-3 -22.5q-7 -37 -27 -77.5t-59 -101.5l-193 -300h-108v0zM397 517q0 71 -40.5 108.5t-96.5 37.5
q-60 0 -98.5 -40t-38.5 -106t38.5 -106.5t98.5 -40.5q56 0 96.5 38.5t40.5 108.5v0z" />
    <glyph glyph-name="colon" unicode=":" 
d="M64 58q0 27 19.5 46.5t46.5 19.5t46.5 -19.5t19.5 -46.5t-19.5 -46t-46.5 -19t-46.5 19t-19.5 46v0zM64 467q0 27 19.5 46.5t46.5 19.5t46.5 -19.5t19.5 -46.5t-19.5 -46.5t-46.5 -19.5t-46.5 19.5t-19.5 46.5v0z" />
    <glyph glyph-name="semicolon" unicode=";" 
d="M4 -138l100 262l91 -44l-126 -247l-65 29v0zM64 467q0 27 19.5 46.5t46.5 19.5t46.5 -19.5t19.5 -46.5t-19.5 -46.5t-46.5 -19.5t-46.5 19.5t-19.5 46.5v0z" />
    <glyph glyph-name="less" unicode="&#x3c;" horiz-adv-x="600" 
d="M47 219v68l506 227v-74l-416 -187l416 -187v-74l-506 227v0z" />
    <glyph glyph-name="equal" unicode="=" horiz-adv-x="600" 
d="M47 114v74h506v-74h-506v0zM47 318v74h506v-74h-506v0z" />
    <glyph glyph-name="greater" unicode="&#x3e;" horiz-adv-x="600" 
d="M463 253l-416 187v74l506 -227v-68l-506 -227v74l416 187v0z" />
    <glyph glyph-name="question" unicode="?" horiz-adv-x="520" 
d="M152 58q0 27 19.5 46.5t46.5 19.5t46.5 -19.5t19.5 -46.5t-19.5 -46t-46.5 -19t-46.5 19t-19.5 46v0zM263 183h-90q0 94 16.5 144t63.5 91q4 3 7.5 6t7.5 6l54 42q4 4 8 7t8 7q17 16 24.5 34t7.5 44q0 46 -30 79t-77 33q-59 0 -86 -37.5t-27 -87.5h-96q6 92 60.5 150.5
t150.5 58.5q93 0 147 -60t54 -140q0 -29 -6.5 -54t-24.5 -49q-8 -11 -19.5 -22t-26.5 -23l-59 -46q-7 -5 -13 -10t-11 -10q-25 -23 -34 -55t-9 -108v0z" />
    <glyph glyph-name="at" unicode="@" horiz-adv-x="800" 
d="M545 521l19 64h79l-83 -275q-1 -2 -1.5 -4t-0.5 -4q-1 -3 -1.5 -5t-1.5 -4q-4 -15 -7 -29t-3 -23q0 -12 5 -18.5t16 -6.5q59 0 108.5 70t49.5 154q0 127 -89.5 198.5t-216.5 71.5q-148 0 -242 -97.5t-94 -235.5q0 -139 99.5 -233t244.5 -94q76 0 146.5 32.5t116.5 87.5
h74q-53 -85 -144 -133t-195 -48q-175 0 -295.5 113.5t-120.5 279.5q0 164 121 277t289 113q151 0 262.5 -90t111.5 -233q0 -101 -51.5 -171t-113.5 -103q-25 -13 -49.5 -20t-45.5 -7q-27 0 -47 15.5t-23 48.5h-3q-22 -25 -56.5 -44.5t-72.5 -19.5q-70 0 -114.5 49t-44.5 117
v8v9q6 101 74 186t177 85q38 0 71 -18.5t52 -62.5v0zM512 431q0 38 -26.5 67.5t-61.5 29.5q-60 0 -102.5 -46.5t-57.5 -101.5q-5 -15 -7 -29t-2 -28q0 -45 26 -73t69 -28q52 0 91.5 44t57.5 96q6 18 9.5 35.5t3.5 33.5v0z" />
    <glyph glyph-name="A" unicode="A" horiz-adv-x="740" 
d="M616 0l-69 177h-354l-69 -177h-105l309 760h84l309 -760h-105v0zM514 261l-144 373l-144 -373h288v0z" />
    <glyph glyph-name="B" unicode="B" horiz-adv-x="630" 
d="M76 0v760h198q56 0 96.5 -10t74.5 -34q35 -25 58.5 -66.5t23.5 -99.5q0 -53 -26 -91t-69 -59v-2q71 -10 109.5 -62t38.5 -121q0 -93 -66.5 -154t-162.5 -61h-275v0zM172 84h146q97 0 131.5 39t34.5 91q0 6 -0.5 12t-1.5 13q-7 39 -43.5 72.5t-120.5 33.5h-146v-261v0z
M172 429h120q59 0 99 32t40 87q0 29 -10 53t-28 40q-19 17 -48.5 26t-71.5 9h-101v-247v0z" />
    <glyph glyph-name="C" unicode="C" horiz-adv-x="741" 
d="M714 675l-65 -71q-40 37 -90.5 57.5t-105.5 20.5q-119 0 -210 -85.5t-91 -216.5q0 -133 92.5 -217.5t208.5 -84.5q63 0 113 22t90 59l61 -69q-45 -41 -106.5 -67.5t-125.5 -32.5q-8 0 -16 -0.5t-16 -0.5q-179 0 -282.5 109t-118.5 241q-1 10 -1.5 20.5t-0.5 20.5
t0.5 20.5t1.5 20.5q15 132 118.5 241.5t282.5 109.5q76 0 145.5 -27.5t115.5 -69.5v0z" />
    <glyph glyph-name="D" unicode="D" horiz-adv-x="741" 
d="M76 0v760h250q140 0 252.5 -106.5t112.5 -270.5q0 -163 -113.5 -273t-275.5 -110h-226v0zM172 90h129q128 0 208 86t80 212q0 122 -85.5 202t-210.5 80h-121v-580v0z" />
    <glyph glyph-name="E" unicode="E" horiz-adv-x="519" 
d="M76 0v760h393v-90h-297v-241h297v-90h-297v-249h297v-90h-393v0z" />
    <glyph glyph-name="F" unicode="F" horiz-adv-x="519" 
d="M76 0v760h393v-90h-297v-241h297v-90h-297v-339h-96v0z" />
    <glyph glyph-name="G" unicode="G" horiz-adv-x="906" 
d="M477 329v90h383q0 -205 -120.5 -317.5t-280.5 -112.5q-179 0 -282.5 109t-118.5 241q-1 10 -1.5 20.5t-0.5 20.5t0.5 20.5t1.5 20.5q15 132 118.5 241.5t282.5 109.5q67 0 134 -22.5t134 -80.5l-61 -72q-27 26 -58.5 43.5t-64.5 27.5q-21 7 -42.5 10.5t-41.5 3.5
q-119 0 -210 -85.5t-91 -216.5q0 -133 92.5 -217.5t208.5 -84.5q103 0 187.5 66t108.5 185h-278v0z" />
    <glyph glyph-name="H" unicode="H" horiz-adv-x="741" 
d="M569 434v326h96v-760h-96v344h-397v-344h-96v760h96v-326h397v0z" />
    <glyph glyph-name="I" unicode="I" horiz-adv-x="240" 
d="M72 0v760h96v-760h-96v0z" />
    <glyph glyph-name="J" unicode="J" horiz-adv-x="463" 
d="M52 670v90h335v-513q0 -127 -79.5 -192.5t-210.5 -65.5q-19 0 -32.5 0.5t-23.5 1.5v87h33q112 0 164.5 40.5t52.5 149.5v402h-239v0z" />
    <glyph glyph-name="K" unicode="K" horiz-adv-x="630" 
d="M172 412l310 348h123l-341 -371l349 -389h-138l-303 347v-347h-96v760h96v-348v0z" />
    <glyph glyph-name="L" unicode="L" horiz-adv-x="463" 
d="M76 0v760h96v-670h267v-90h-363v0z" />
    <glyph glyph-name="M" unicode="M" horiz-adv-x="962" 
d="M481 186l309 574h96v-760h-96v563h-2l-307 -571l-307 571h-2v-563h-96v760h96l309 -574v0z" />
    <glyph glyph-name="N" unicode="N" horiz-adv-x="740" 
d="M572 172v588h96v-760h-90l-408 588h-2v-588h-96v760h90l408 -588h2v0z" />
    <glyph glyph-name="O" unicode="O" horiz-adv-x="906" 
d="M50 380q0 10 0.5 20.5t1.5 20.5q15 132 118.5 241.5t282.5 109.5t282.5 -109.5t118.5 -241.5q1 -10 1.5 -20.5t0.5 -20.5t-0.5 -20.5t-1.5 -20.5q-15 -132 -118.5 -241t-282.5 -109t-282.5 109t-118.5 241q-1 10 -1.5 20.5t-0.5 20.5v0zM152 380q0 -135 92.5 -218.5
t208.5 -83.5t208.5 83.5t92.5 218.5t-92.5 218.5t-208.5 83.5t-208.5 -83.5t-92.5 -218.5v0z" />
    <glyph glyph-name="P" unicode="P" horiz-adv-x="574" 
d="M76 0v760h210q121 0 189 -78t68 -173t-68 -172.5t-189 -77.5h-114v-259h-96v0zM172 343h94q86 0 133.5 42t47.5 124q0 83 -47.5 125t-133.5 42h-94v-333v0z" />
    <glyph glyph-name="Q" unicode="Q" horiz-adv-x="906" 
d="M774 -19l-81 81q-47 -34 -107 -53.5t-133 -19.5q-179 0 -282.5 109t-118.5 241q-1 10 -1.5 20.5t-0.5 20.5t0.5 20.5t1.5 20.5q15 132 118.5 241.5t282.5 109.5t282.5 -109.5t118.5 -241.5q1 -10 1.5 -20.5t0.5 -20.5q0 -9 -0.5 -18t-1.5 -18q-5 -59 -29.5 -117
t-66.5 -106l78 -78l-62 -62v0zM608 270l80 -79q31 38 48.5 86t17.5 103q0 135 -92.5 218.5t-208.5 83.5t-208.5 -83.5t-92.5 -218.5t92.5 -218.5t208.5 -83.5q46 0 89.5 14t80.5 39l-77 77l62 62v0z" />
    <glyph glyph-name="R" unicode="R" horiz-adv-x="630" 
d="M480 0l-308 324v-324h-96v760h219q110 0 182.5 -60t72.5 -170q0 -102 -69 -162t-162 -65l296 -303h-135v0zM172 676v-293q10 -1 25.5 -1h58.5q110 0 154 42.5t44 104.5q0 67 -43 107t-118 40h-121v0z" />
    <glyph glyph-name="S" unicode="S" horiz-adv-x="574" 
d="M522 543h-90q-10 68 -47.5 106.5t-98.5 38.5q-64 0 -94 -27.5t-39 -60.5q-2 -9 -3 -18t-1 -17q0 -43 27.5 -71.5t83.5 -49.5l96 -36q91 -34 134 -86.5t43 -121.5q0 -92 -67 -151.5t-177 -59.5q-103 0 -171 55t-77 169h96q6 -62 41.5 -101.5t115.5 -39.5q62 0 102.5 35
t40.5 85q0 44 -33 74t-85 50l-97 38q-85 33 -127 84t-42 124q0 98 70 154t164 56q95 0 161 -56.5t74 -172.5v0z" />
    <glyph glyph-name="T" unicode="T" horiz-adv-x="518" 
d="M211 0v670h-190v90h476v-90h-190v-670h-96v0z" />
    <glyph glyph-name="U" unicode="U" horiz-adv-x="740" 
d="M72 276v484h96v-456q0 -93 51 -159.5t151 -66.5t151 66.5t51 159.5v456h96v-484q0 -123 -84 -205t-216 -82q-129 0 -212.5 82t-83.5 205v0z" />
    <glyph glyph-name="V" unicode="V" horiz-adv-x="684" 
d="M343 153l218 607h102l-281 -760h-80l-281 760h102l218 -607h2v0z" />
    <glyph glyph-name="W" unicode="W" horiz-adv-x="1018" 
d="M729 181l170 579h102l-234 -760h-74l-183 602h-2l-183 -602h-74l-234 760h102l170 -577h2l173 577h90l173 -579h2v0z" />
    <glyph glyph-name="X" unicode="X" horiz-adv-x="684" 
d="M342 466l194 294h117l-252 -373l263 -387h-119l-203 307l-203 -307h-119l263 387l-252 373h117l194 -294v0z" />
    <glyph glyph-name="Y" unicode="Y" horiz-adv-x="630" 
d="M315 404l193 356h112l-257 -457v-303h-96v303l-257 457h112l193 -356v0z" />
    <glyph glyph-name="Z" unicode="Z" horiz-adv-x="630" 
d="M25 0l416 670h-379v90h543l-416 -670h396v-90h-560v0z" />
    <glyph glyph-name="bracketleft" unicode="[" horiz-adv-x="352" 
d="M116 -184v944h197v-74h-107v-796h107v-74h-197v0z" />
    <glyph glyph-name="backslash" unicode="\" horiz-adv-x="463" 
d="M364 -12l-344 784h79l344 -784h-79v0z" />
    <glyph glyph-name="bracketright" unicode="]" horiz-adv-x="352" 
d="M146 -110v796h-107v74h197v-944h-197v74h107v0z" />
    <glyph glyph-name="asciicircum" unicode="^" horiz-adv-x="600" 
d="M468 310l-168 345l-168 -345h-79l213 424h68l213 -424h-79v0z" />
    <glyph glyph-name="underscore" unicode="_" horiz-adv-x="500" 
d="M0 -125v50h500v-50h-500v0z" />
    <glyph glyph-name="grave" unicode="`" horiz-adv-x="240" 
d="M106 602l-131 124v8h121l81 -132h-71v0z" />
    <glyph glyph-name="a" unicode="a" horiz-adv-x="574" 
d="M419 295v54q0 54 -38 76.5t-84 26.5q-9 1 -17.5 1.5t-16.5 0.5q-18 0 -36 -2t-36 -7q-18 -4 -36 -11t-36 -16l-39 75q59 25 106 32.5t82 7.5q94 0 167.5 -42t73.5 -135v-356h-84v56q-34 -36 -74 -51.5t-92 -15.5q-95 0 -161 49.5t-66 136.5q0 71 58.5 125t167.5 54
q10 0 19.5 -0.5t18.5 -2.5q33 -4 64 -17.5t59 -38.5v0zM422 171v2.5v3.5q-2 36 -34.5 67t-112.5 31q-79 0 -112 -31t-35 -67v-3.5v-2.5v-2.5v-3.5q2 -36 35 -67t112 -31q80 0 112.5 31t34.5 67v3.5v2.5v0z" />
    <glyph glyph-name="b" unicode="b" horiz-adv-x="684" 
d="M75 0v760h90v-321h2q31 45 83 69t109 25h2.5h3.5q110 0 190.5 -77t80.5 -190q0 -123 -83 -200t-192 -77q-67 0 -116 25.5t-78 65.5h-2v-80h-90v0zM540 265q0 6 -0.5 12t-1.5 13q-8 59 -57 109t-132 50q-73 0 -128.5 -55t-55.5 -134q0 -78 55 -133t132 -55
q71 0 129.5 51.5t58.5 141.5v0z" />
    <glyph glyph-name="c" unicode="c" horiz-adv-x="519" 
d="M495 468l-61 -71q-27 26 -57 39t-64 13q-67 0 -119.5 -48.5t-52.5 -144.5q0 -79 51.5 -131.5t129.5 -52.5q32 0 62.5 15.5t53.5 37.5l53 -66q-35 -36 -82.5 -53t-97.5 -17q-120 0 -193 81t-73 189q0 112 77.5 193t189.5 81q58 0 104.5 -19.5t75.5 -42.5l1.5 -1.5
l1.5 -1.5v0z" />
    <glyph glyph-name="d" unicode="d" horiz-adv-x="684" 
d="M519 439v321h90v-760h-90v80h-2q-28 -40 -77 -65.5t-117 -25.5q-109 0 -192 77t-83 200q0 113 80.5 190t190.5 77h3.5h2.5q57 -1 109 -25t83 -69h2v0zM519 260q0 79 -55 134t-129 55q-83 0 -132 -50t-57 -109q-1 -7 -1.5 -13t-0.5 -12q0 -90 58.5 -141.5t129.5 -51.5
q77 0 132 55t55 133v0z" />
    <glyph glyph-name="e" unicode="e" horiz-adv-x="630" 
d="M495 156l69 -55q-52 -58 -109.5 -85t-125.5 -27q-139 0 -211.5 84t-72.5 188q0 111 73.5 191.5t195.5 80.5q121 0 197 -84.5t76 -222.5h-446q11 -67 61 -110.5t126 -43.5q48 0 90.5 22t76.5 62v0zM141 300h344q-7 65 -54.5 107t-117.5 42q-76 0 -117 -41t-52 -90
q-1 -5 -1.5 -9.5t-1.5 -8.5v0z" />
    <glyph glyph-name="f" unicode="f" horiz-adv-x="296" 
d="M98 521v79q0 82 50.5 122t128.5 44v-90h-18q-34 0 -52.5 -24t-18.5 -59v-72h85v-79h-85v-442h-90v442h-79v79h79v0z" />
    <glyph glyph-name="g" unicode="g" horiz-adv-x="684" 
d="M512 439v82h90v-449q0 -143 -71 -217t-223 -74q-69 0 -129.5 26.5t-113.5 85.5l72 56q20 -24 40.5 -40.5t41.5 -27.5q24 -11 47 -16t44 -5q105 0 153.5 49.5t48.5 135.5v37h-2q-37 -44 -81 -65.5t-120 -21.5q-110 0 -176 65.5t-85 144.5q-3 15 -5 30t-2 30
q0 113 80.5 190.5t190.5 77.5h3.5h2.5q57 -1 109 -25t83 -69h2v0zM512 260q0 79 -55 134t-129 55q-83 0 -132 -50t-57 -109q-1 -7 -1.5 -13t-0.5 -12q0 -90 59 -141t129 -51q77 0 132 54.5t55 132.5v0z" />
    <glyph glyph-name="h" unicode="h" horiz-adv-x="574" 
d="M415 0v303q0 59 -27 102.5t-94 43.5q-63 0 -99 -41t-36 -115v-293h-90v760h90v-300h2q20 35 60 54t83 19q76 0 138.5 -45t62.5 -151v-337h-90v0z" />
    <glyph glyph-name="i" unicode="i" horiz-adv-x="240" 
d="M75 0v521h90v-521h-90v0zM57 686q0 26 18.5 44.5t44.5 18.5t44.5 -18.5t18.5 -44.5t-18.5 -44.5t-44.5 -18.5t-44.5 18.5t-18.5 44.5v0z" />
    <glyph glyph-name="j" unicode="j" horiz-adv-x="240" 
d="M75 -47v568h90v-559q0 -88 -42 -131.5t-113 -49.5v83q32 1 48.5 25t16.5 65v-1zM57 686q0 26 18.5 44.5t44.5 18.5t44.5 -18.5t18.5 -44.5t-18.5 -44.5t-44.5 -18.5t-44.5 18.5t-18.5 44.5v0z" />
    <glyph glyph-name="k" unicode="k" horiz-adv-x="519" 
d="M165 294l220 227h118l-241 -241l246 -280h-126l-217 253v-253h-90v760h90v-466v0z" />
    <glyph glyph-name="l" unicode="l" horiz-adv-x="240" 
d="M63 760h90v-597q0 -44 18 -61.5t40 -17.5h27v-84h-37q-62 0 -100 37t-38 119v604v0z" />
    <glyph glyph-name="m" unicode="m" horiz-adv-x="906" 
d="M743 0v319q0 68 -33.5 99t-80.5 31q-56 0 -93.5 -34.5t-37.5 -99.5v-315h-90v319q0 68 -33.5 99t-80.5 31q-56 0 -93.5 -34.5t-37.5 -99.5v-315h-90v521h90v-62h2q14 32 45.5 49t65.5 22q8 2 16.5 2.5t16.5 0.5q10 0 20 -0.5t20 -2.5q31 -6 60.5 -25t53.5 -62
q24 50 71 70t99 20q84 0 142 -50.5t58 -153.5v-329h-90v0z" />
    <glyph glyph-name="n" unicode="n" horiz-adv-x="574" 
d="M415 0v303q0 59 -27 102.5t-94 43.5q-63 0 -99 -41t-36 -115v-293h-90v521h90v-61h2q20 35 60 54t83 19q76 0 138.5 -45t62.5 -151v-337h-90v0z" />
    <glyph glyph-name="o" unicode="o" horiz-adv-x="684" 
d="M60 260q0 110 79.5 191.5t202.5 81.5t202.5 -81.5t79.5 -191.5q0 -112 -77 -191.5t-205 -79.5q-127 0 -204.5 79.5t-77.5 191.5v0zM342 449q-75 0 -130.5 -54t-55.5 -135q0 -75 55.5 -131.5t130.5 -56.5t130.5 56.5t55.5 131.5q0 81 -55.5 135t-130.5 54v0z" />
    <glyph glyph-name="p" unicode="p" horiz-adv-x="684" 
d="M75 -220v741h90v-82h2q31 45 83 69t109 25h2.5h3.5q110 0 190.5 -77t80.5 -190q0 -123 -83 -200t-192 -77q-67 0 -116 25.5t-78 65.5h-2v-300h-90v0zM540 265q0 6 -0.5 12t-1.5 13q-8 59 -57 109t-132 50q-73 0 -128.5 -55t-55.5 -134q0 -78 55 -133t132 -55
q71 0 129.5 51.5t58.5 141.5v0z" />
    <glyph glyph-name="q" unicode="q" horiz-adv-x="684" 
d="M519 439v82h90v-741h-90v300h-2q-28 -40 -77 -65.5t-117 -25.5q-109 0 -192 77t-83 200q0 113 80.5 190t190.5 77h3.5h2.5q57 -1 109 -25t83 -69h2v0zM519 260q0 79 -55 134t-129 55q-83 0 -132 -50t-57 -109q-1 -7 -1.5 -13t-0.5 -12q0 -90 58.5 -141.5t129.5 -51.5
q77 0 132 55t55 133v0z" />
    <glyph glyph-name="r" unicode="r" horiz-adv-x="352" 
d="M75 0v521h90v-74h2q2 3 4 6.5t4 6.5q31 51 66.5 62t89.5 11v-95q-10 2 -20 3.5t-21 1.5q-56 0 -90.5 -38t-34.5 -109v-296h-90v0z" />
    <glyph glyph-name="s" unicode="s" horiz-adv-x="463" 
d="M39 152h84q5 -42 36 -63.5t72 -21.5q47 0 69.5 16.5t29.5 35.5q2 6 3 12t1 11q0 26 -19.5 43t-72.5 31l-91 25q-58 16 -82 52t-24 82q0 65 47.5 111.5t138.5 46.5q93 0 133.5 -45.5t44.5 -100.5q1 -4 1 -8v-8h-84q-5 44 -28.5 66t-68.5 22q-43 0 -68.5 -22t-25.5 -53
q0 -22 13.5 -38t44.5 -25l122 -35q62 -18 85.5 -52t23.5 -84q0 -79 -58.5 -120t-130.5 -41q-91 0 -142.5 44.5t-53.5 118.5v0z" />
    <glyph glyph-name="t" unicode="t" horiz-adv-x="296" 
d="M91 521v126h90v-126h83v-79h-83v-320q0 -21 9 -29.5t35 -8.5h41v-83q-10 -1 -24.5 -1h-30.5q-69 0 -94.5 26t-25.5 86v330h-72v79h72v0z" />
    <glyph glyph-name="u" unicode="u" horiz-adv-x="574" 
d="M415 0v61h-2q-20 -35 -59.5 -53.5t-83.5 -18.5q-76 0 -138.5 44.5t-62.5 150.5v337h90v-303q0 -58 27 -102t94 -44q63 0 99 41t36 115v293h90v-521h-90v0z" />
    <glyph glyph-name="v" unicode="v" horiz-adv-x="574" 
d="M287 120l165 401h102l-225 -521h-84l-225 521h102l165 -401v0z" />
    <glyph glyph-name="w" unicode="w" horiz-adv-x="852" 
d="M606 144l131 377h96l-192 -521h-74l-140 407h-2l-140 -407h-74l-192 521h96l131 -377h2l130 377h96l130 -377h2v0z" />
    <glyph glyph-name="x" unicode="x" horiz-adv-x="574" 
d="M287 333l147 188h114l-202 -255l210 -266h-120l-149 194l-155 -194h-114l210 266l-202 255h120l141 -188v0z" />
    <glyph glyph-name="y" unicode="y" horiz-adv-x="574" 
d="M128 -220l97 228l-217 513h102l167 -402l169 402h96l-320 -741h-94v0z" />
    <glyph glyph-name="z" unicode="z" horiz-adv-x="463" 
d="M21 0l272 442h-244v79h393l-270 -442h257v-79h-408v0z" />
    <glyph glyph-name="braceleft" unicode="{" horiz-adv-x="352" 
d="M65 257v62q41 0 61.5 40.5t20.5 89.5v182q0 60 31.5 94t68.5 35h1.5h1.5h67v-62h-34q-26 0 -36 -25.5t-10 -71.5v-170q0 -60 -23.5 -94.5t-58.5 -47.5v-2q35 -13 58.5 -47.5t23.5 -94.5v-170q0 -45 10 -70.5t36 -25.5l34 -1v-62h-67q-1 1 -1.5 1h-1.5q-37 1 -68.5 35
t-31.5 94v181q0 49 -20.5 89.5t-61.5 40.5v0z" />
    <glyph glyph-name="bar" unicode="|" horiz-adv-x="222" 
d="M74 -250v1000h74v-1000h-74v0z" />
    <glyph glyph-name="braceright" unicode="}" horiz-adv-x="352" 
d="M35 -184v62h34q26 1 36 26.5t10 71.5v169q0 60 24 94.5t58 47.5v2q-34 13 -58 47.5t-24 94.5v170q0 46 -10 71.5t-36 25.5h-34v62h67h1.5h1.5q37 -1 68.5 -35t31.5 -94v-182q0 -49 21 -89.5t61 -40.5v-62q-40 0 -61 -40.5t-21 -89.5v-182q0 -59 -31.5 -93t-68.5 -35h-1.5
h-1.5l-67 -1v0z" />
    <glyph glyph-name="asciitilde" unicode="~" horiz-adv-x="600" 
d="M105 180l-36 56q22 41 52 63.5t73 22.5q12 0 24.5 -2t25.5 -6q17 -5 33.5 -12t32.5 -15q29 -13 54 -24t43 -11q21 0 42.5 17t45.5 57l36 -56q-22 -40 -51.5 -63t-73.5 -23q-12 0 -24.5 2t-25.5 6q-17 5 -33.5 12t-32.5 15q-28 14 -53.5 24.5t-43.5 10.5
q-21 0 -42.5 -16.5t-45.5 -57.5v0z" />
    <glyph glyph-name="exclamdown" unicode="&#xa1;" horiz-adv-x="352" 
d="M128 -220v577h96v-577h-96v0zM110 482q0 27 19.5 46.5t46.5 19.5t46.5 -19.5t19.5 -46.5t-19.5 -46.5t-46.5 -19.5t-46.5 19.5t-19.5 46.5v0z" />
    <glyph glyph-name="cent" unicode="&#xa2;" horiz-adv-x="520" 
d="M201 -107l28 115q-80 29 -127 99t-47 152q0 112 77.5 193t189.5 81q10 0 19 -0.5t17 -2.5l24 96h52l-26 -107q28 -8 50.5 -20t38.5 -25q2 -1 4 -2.5t4 -3.5l-61 -71q-9 9 -18.5 16.5t-19.5 12.5q-5 3 -9.5 5t-9.5 4l-88 -355q8 -2 16 -3t17 -1q32 0 62.5 15.5t53.5 37.5
l53 -66q-35 -36 -82.5 -53t-97.5 -17q-10 0 -21 1t-22 3l-25 -104h-52v0zM251 95l87 353q-2 1 -4.5 1h-5.5h-2.5h-2.5q-67 0 -119.5 -48.5t-52.5 -144.5q0 -55 27 -97.5t73 -63.5v0z" />
    <glyph glyph-name="sterling" unicode="&#xa3;" horiz-adv-x="520" 
d="M57 352v50h79q-17 20 -28.5 37.5t-19.5 35.5q-7 18 -10.5 36t-3.5 37q0 87 60 140.5t144 53.5q91 0 140 -47.5t63 -135.5h-96q-6 41 -31 72.5t-74 31.5q-5 0 -9.5 -0.5t-8.5 -0.5q-35 -5 -63.5 -29.5t-28.5 -80.5q0 -30 18.5 -65.5t55.5 -84.5h175v-50h-143
q15 -22 24.5 -46.5t9.5 -53.5q0 -11 -2.5 -22.5t-7.5 -22.5q-8 -18 -21 -36t-30 -33q29 0 49.5 -8.5t39.5 -19.5q2 -1 3.5 -2t3.5 -2q17 -9 35 -16.5t41 -7.5q17 0 36 9t40 27v-99q-22 -14 -44.5 -20t-43.5 -6q-27 0 -53.5 10t-51.5 23q-26 12 -50 22.5t-47 10.5
q-26 0 -43.5 -14.5t-23.5 -44.5h-84q0 10 2 21t6 22q12 33 40.5 62t72.5 38q2 0 8 8t13 21q6 9 10.5 20t7.5 22q2 6 3 12t1 12q0 33 -12.5 61.5t-33.5 52.5h-117v0z" />
    <glyph glyph-name="currency" unicode="&#xa4;" horiz-adv-x="520" 
d="M406 557l55 53l43 -44l-53 -54q23 -29 36.5 -66.5t13.5 -78.5t-13.5 -78.5t-36.5 -67.5l53 -53l-43 -44l-55 53q-29 -24 -67 -37.5t-79 -13.5t-79 13.5t-67 37.5l-55 -53l-43 44l53 53q-23 30 -36.5 67.5t-13.5 78.5t13.5 78.5t36.5 66.5l-53 54l43 44l55 -53
q29 24 67 37.5t79 13.5t79 -13.5t67 -37.5v0zM427 367q0 70 -48.5 118.5t-118.5 48.5t-118.5 -48.5t-48.5 -118.5t48.5 -118.5t118.5 -48.5t118.5 48.5t48.5 118.5v0z" />
    <glyph glyph-name="yen" unicode="&#xa5;" horiz-adv-x="520" 
d="M218 0v180h-176v56h176v67l-17 37h-159v56h134l-155 338h96l143 -332l143 332h96l-155 -338h134v-56h-159l-17 -37v-67h176v-56h-176v-180h-84v0z" />
    <glyph glyph-name="brokenbar" unicode="&#xa6;" horiz-adv-x="222" 
d="M74 -175v350h74v-350h-74v0zM74 325v350h74v-350h-74v0z" />
    <glyph glyph-name="section" unicode="&#xa7;" horiz-adv-x="520" 
d="M57 -6h90q1 -50 30.5 -75.5t64.5 -30.5q5 0 9.5 -0.5t9.5 -0.5q46 0 75 25t29 69q0 32 -18.5 55t-73.5 41l-75 25q-67 23 -106.5 67t-39.5 115q0 56 24.5 96.5t75.5 69.5q-43 20 -68 57t-25 86q0 81 59 130t144 49q83 0 138.5 -48t59.5 -146h-90q0 52 -29 83.5t-88 31.5
q-42 0 -73 -26.5t-31 -61.5q0 -46 21.5 -69.5t67.5 -37.5l99 -30q72 -22 101.5 -70t29.5 -108q0 -58 -28 -99.5t-78 -64.5q44 -19 71.5 -53.5t27.5 -89.5q0 -79 -59 -127t-138 -48q-93 0 -139.5 42t-60.5 92q-4 14 -5.5 27t-1.5 26v-1zM372 288q0 57 -31.5 83.5t-70.5 29.5
h-4.5h-5.5h-5.5h-4.5q-39 -3 -70.5 -29.5t-31.5 -83.5t33 -83t72 -29h4h4h6.5t6.5 1q37 3 67.5 29.5t30.5 81.5v0z" />
    <glyph glyph-name="dieresis" unicode="&#xa8;" horiz-adv-x="240" 
d="M-36 665q1 26 19 44.5t44 18.5t44.5 -18.5t18.5 -44.5t-18.5 -44.5t-44.5 -18.5t-44 18.5t-18 44.5h-1zM150 665q0 26 18.5 44.5t44.5 18.5t44.5 -18.5t18.5 -44.5t-18.5 -44.5t-44.5 -18.5t-44.5 18.5t-18.5 44.5v0z" />
    <glyph glyph-name="copyright" unicode="&#xa9;" horiz-adv-x="800" 
d="M8 380q0 162 115 277t277 115t277 -115t115 -277t-115 -276.5t-277 -114.5t-277 114.5t-115 276.5v0zM724 380q0 134 -95 229t-229 95t-229 -95t-95 -229t95 -229t229 -95t229 95t95 229v0zM536 307h71q-15 -77 -68 -121.5t-125 -44.5q-106 0 -169 69.5t-63 171.5
q0 104 61.5 171t167.5 67q74 0 129.5 -41t66.5 -120h-71q-9 42 -42 70.5t-82 28.5q-73 0 -112 -51t-39 -124q0 -70 41.5 -125t111.5 -55q50 0 83 30.5t39 73.5v0z" />
    <glyph glyph-name="ordfeminine" unicode="&#xaa;" horiz-adv-x="373" 
d="M260 602v21q0 31 -22.5 44.5t-49.5 16.5q-6 1 -13 1.5t-13 0.5q-22 0 -44.5 -5t-46.5 -16l-25 53q38 15 69 19.5t53 4.5q63 0 111.5 -25t48.5 -81v-217h-58v34q-22 -22 -48 -31.5t-60 -9.5q-61 0 -104 30.5t-43 85.5q0 46 37.5 77.5t106.5 31.5q11 0 23 -1.5t24 -5.5
q14 -4 27.5 -10.5t26.5 -17.5v0zM261 523q0 3 -0.5 6t-1.5 7q-5 17 -25.5 31t-62.5 14q-40 0 -60.5 -14t-25.5 -31q-1 -4 -1.5 -7t-0.5 -6v-4t1 -3q3 -18 23.5 -33t64.5 -15t64.5 15t23.5 33q1 1 1 3v4v0z" />
    <glyph glyph-name="guillemotleft" unicode="&#xab;" horiz-adv-x="520" 
d="M68 276l107 192h84l-112 -192l112 -192h-84l-107 192v0zM270 276l107 192h84l-112 -192l112 -192h-84l-107 192v0z" />
    <glyph glyph-name="logicalnot" unicode="&#xac;" horiz-adv-x="600" 
d="M479 108v210h-432v74h506v-284h-74v0z" />
    <glyph glyph-name="sfthyphen" unicode="&#xad;" horiz-adv-x="500" 
 />
    <glyph glyph-name="registered" unicode="&#xae;" horiz-adv-x="800" 
d="M8 380q0 162 115 277t277 115t277 -115t115 -277t-115 -276.5t-277 -114.5t-277 114.5t-115 276.5v0zM724 380q0 134 -95 229t-229 95t-229 -95t-95 -229t95 -229t229 -95t229 95t95 229v0zM508 154l-118 197h-72v-197h-68v452h171q80 0 119.5 -31t39.5 -98
q0 -61 -33 -89t-83 -35l129 -199h-85v0zM318 407h92q53 0 77.5 17t24.5 54q0 38 -24.5 55t-77.5 17h-92v-143v0z" />
    <glyph glyph-name="overstore" unicode="&#xaf;" 
 />
    <glyph glyph-name="glyph113" unicode="&#xb0;" horiz-adv-x="400" 
d="M57 599q0 59 42 101t101 42t101 -42t42 -101t-42 -101t-101 -42t-101 42t-42 101v0zM107 599q0 -38 27.5 -65.5t65.5 -27.5t65.5 27.5t27.5 65.5t-27.5 65.5t-65.5 27.5t-65.5 -27.5t-27.5 -65.5v0z" />
    <glyph glyph-name="plusminus" unicode="&#xb1;" horiz-adv-x="600" 
d="M47 0v74h506v-74h-506v0zM263 345v161h74v-161h216v-74h-216v-161h-74v161h-216v74h216v0z" />
    <glyph glyph-name="twosuperior" unicode="&#xb2;" horiz-adv-x="337" 
d="M103 611h-74q2 61 39.5 96t98.5 35q52 0 92 -28t40 -82v-3.5v-3.5q-1 -19 -10.5 -40.5t-32.5 -55.5l-110 -164h146v-68h-275l165 237q20 28 30.5 49t12.5 40v3.5v2.5q0 17 -15.5 30.5t-34.5 14.5h-1.5h-1.5q-25 0 -45.5 -13.5t-23.5 -49.5v0z" />
    <glyph glyph-name="threesuperior" unicode="&#xb3;" horiz-adv-x="337" 
d="M48 510l135 176h-154v56h270l-130 -165q56 0 98 -35.5t42 -100.5q0 -63 -47 -103.5t-109 -40.5q-46 0 -79 13t-63 56q-1 2 -2.5 4t-2.5 4l50 37q15 -27 38 -39.5t54 -12.5q4 0 8 0.5t8 0.5q29 5 53 25t24 51q0 39 -27.5 65t-71.5 26q-4 0 -8.5 -0.5t-8.5 -0.5
q-19 -3 -36.5 -10.5t-29.5 -17.5l-11 12v0z" />
    <glyph glyph-name="acute" unicode="&#xb4;" horiz-adv-x="240" 
d="M63 602l81 132h121v-8l-131 -124h-71v0z" />
    <glyph glyph-name="mu" unicode="&#xb5;" horiz-adv-x="574" 
d="M415 0v61h-2q-20 -35 -59.5 -53.5t-83.5 -18.5q-38 0 -66.5 11.5t-42.5 35.5h-2v-256h-90v741h90v-303q0 -58 27 -102t94 -44q63 0 99 41t36 115v293h90v-521h-90v0z" />
    <glyph glyph-name="paragraph" unicode="&#xb6;" horiz-adv-x="600" 
d="M426 -181v879h-119v-879h-74v567q-95 0 -154 53t-59 131q0 99 63 144.5t168 45.5h249v-941h-74v0z" />
    <glyph glyph-name="middot" unicode="&#xb7;" 
 />
    <glyph glyph-name="cedilla" unicode="&#xb8;" horiz-adv-x="240" 
d="M29 -196l-26 48q50 13 81.5 41.5t50.5 81.5l87 -32q-28 -67 -75 -98t-118 -40v-1z" />
    <glyph glyph-name="onesuperior" unicode="&#xb9;" horiz-adv-x="264" 
d="M24 594v68l160 80v-445h-74v347l-86 -50v0z" />
    <glyph glyph-name="ordmasculine" unicode="&#xba;" horiz-adv-x="444" 
d="M34 576q0 67 52.5 116.5t135.5 49.5t135.5 -49.5t52.5 -116.5t-51 -115.5t-137 -48.5t-137 48.5t-51 115.5v0zM108 575q0 -43 32.5 -75t81.5 -32q50 0 82 32t32 75q0 46 -34 75.5t-80 29.5t-80 -30t-34 -75v0z" />
    <glyph glyph-name="guillemotright" unicode="&#xbb;" horiz-adv-x="520" 
d="M171 276l-112 192h84l107 -192l-107 -192h-84l112 192v0zM373 276l-112 192h84l107 -192l-107 -192h-84l112 192v0z" />
    <glyph glyph-name="onequarter" unicode="&#xbc;" horiz-adv-x="778" 
d="M114 -8l418 750h79l-418 -750h-79v0zM602 0v105h-191v28l241 312h18v-284h48v-56h-48v-105h-68v0zM602 161v145h-2l-105 -145h107v0zM39 594v68l160 80v-445h-74v347l-86 -50v0z" />
    <glyph glyph-name="onehalf" unicode="&#xbd;" horiz-adv-x="778" 
d="M88 -8l418 750h79l-418 -750h-79v0zM522 314h-74q2 61 39.5 96t98.5 35q52 0 92 -28t40 -82v-3.5v-3.5q-1 -19 -10.5 -40.5t-32.5 -55.5l-110 -164h146v-68h-275l165 237q20 28 30.5 49t12.5 40v3.5v2.5q0 17 -15.5 30.5t-34.5 14.5h-1.5h-1.5q-25 0 -45.5 -13.5
t-23.5 -49.5v0zM24 594v68l160 80v-445h-74v347l-86 -50v0z" />
    <glyph glyph-name="threequarters" unicode="&#xbe;" horiz-adv-x="778" 
d="M149 -8l418 750h79l-418 -750h-79v0zM602 0v105h-191v28l241 312h18v-284h48v-56h-48v-105h-68v0zM602 161v145h-2l-105 -145h107v0zM66 510l135 176h-154v56h270l-130 -165q56 0 98 -35.5t42 -100.5q0 -63 -47 -103.5t-109 -40.5q-46 0 -79 13t-63 56q-1 2 -2.5 4
t-2.5 4l50 37q15 -27 38 -39.5t54 -12.5q4 0 8 0.5t8 0.5q29 5 53 25t24 51q0 39 -27.5 65t-71.5 26q-4 0 -8.5 -0.5t-8.5 -0.5q-19 -3 -36.5 -10.5t-29.5 -17.5l-11 12v0z" />
    <glyph glyph-name="questiondown" unicode="&#xbf;" horiz-adv-x="520" 
d="M257 357h90q0 -94 -16.5 -144t-63.5 -91q-4 -3 -7.5 -6t-7.5 -6l-54 -42q-4 -4 -8 -7t-8 -7q-17 -16 -24.5 -34t-7.5 -43q0 -46 30 -79t77 -33q59 0 86 37.5t27 87.5l96 -1q-6 -91 -60.5 -149.5t-150.5 -58.5q-93 0 -147 60t-54 140q0 28 6.5 53t24.5 49q8 11 19.5 22
t26.5 23l59 46q7 5 13 10t11 10q25 23 34 55t9 108v0zM236 482q0 27 19.5 46.5t46.5 19.5t46.5 -19.5t19.5 -46.5t-19.5 -46.5t-46.5 -19.5t-46.5 19.5t-19.5 46.5v0z" />
    <glyph glyph-name="Agrave" unicode="&#xc0;" horiz-adv-x="740" 
d="M616 0l-69 177h-354l-69 -177h-105l309 760h84l309 -760h-105v0zM514 261l-144 373l-144 -373h288v0zM356 797l-131 124v8h121l81 -132h-71v0z" />
    <glyph glyph-name="Aacute" unicode="&#xc1;" horiz-adv-x="740" 
d="M616 0l-69 177h-354l-69 -177h-105l309 760h84l309 -760h-105v0zM514 261l-144 373l-144 -373h288v0zM313 797l81 132h121v-8l-131 -124h-71v0z" />
    <glyph glyph-name="Acircumflex" unicode="&#xc2;" horiz-adv-x="740" 
d="M616 0l-69 177h-354l-69 -177h-105l309 760h84l309 -760h-105v0zM514 261l-144 373l-144 -373h288v0zM446 797l-76 76l-76 -76h-74l96 132h108l96 -132h-74v0z" />
    <glyph glyph-name="Atilde" unicode="&#xc3;" horiz-adv-x="740" 
d="M616 0l-69 177h-354l-69 -177h-105l309 760h84l309 -760h-105v0zM514 261l-144 373l-144 -373h288v0zM258 806h-41q2 46 20.5 78.5t61.5 32.5q5 0 9.5 -0.5t9.5 -1.5q16 -2 32 -8t30 -12q19 -9 35 -16t26 -7q3 0 7 1t8 3q9 4 16.5 13.5t9.5 25.5h41q-1 -46 -20 -78.5
t-62 -32.5q-5 0 -9.5 0.5t-9.5 1.5q-16 2 -32 8t-30 13q-19 8 -34.5 15t-26.5 7q-3 0 -7 -1t-8 -3q-9 -4 -16.5 -13.5t-9.5 -25.5v0z" />
    <glyph glyph-name="Adieresis" unicode="&#xc4;" horiz-adv-x="740" 
d="M616 0l-69 177h-354l-69 -177h-105l309 760h84l309 -760h-105v0zM514 261l-144 373l-144 -373h288v0zM214 870q0 26 18.5 44.5t44.5 18.5t44.5 -18.5t18.5 -44.5t-18.5 -44.5t-44.5 -18.5t-44.5 18.5t-18.5 44.5v0zM400 870q0 26 18.5 44.5t44.5 18.5t44.5 -18.5
t18.5 -44.5t-18.5 -44.5t-44.5 -18.5t-44.5 18.5t-18.5 44.5v0z" />
    <glyph glyph-name="Aring" unicode="&#xc5;" horiz-adv-x="740" 
d="M616 0l-69 177h-354l-69 -177h-105l309 760h84l309 -760h-105v0zM514 261l-144 373l-144 -373h288v0zM277 872q0 38 27.5 65.5t65.5 27.5t65.5 -27.5t27.5 -65.5t-27.5 -65.5t-65.5 -27.5t-65.5 27.5t-27.5 65.5v0zM319 872q0 -21 15 -36t36 -15t36 15t15 36t-15 36
t-36 15t-36 -15t-15 -36v0z" />
    <glyph glyph-name="AE" unicode="&#xc6;" horiz-adv-x="963" 
d="M527 0v177h-299l-101 -177h-108l446 760h448v-90h-290v-241h290v-90h-290v-249h290v-90h-386v0zM527 261v431h-2l-249 -431h251v0z" />
    <glyph glyph-name="Ccedilla" unicode="&#xc7;" horiz-adv-x="741" 
d="M332 -196l-26 48q50 13 81.5 41.5t50.5 81.5l87 -32q-28 -67 -75 -98t-118 -40v-1zM714 675l-65 -71q-40 37 -90.5 57.5t-105.5 20.5q-119 0 -210 -85.5t-91 -216.5q0 -133 92.5 -217.5t208.5 -84.5q63 0 113 22t90 59l61 -69q-45 -41 -106.5 -67.5t-125.5 -32.5
q-8 0 -16 -0.5t-16 -0.5q-179 0 -282.5 109t-118.5 241q-1 10 -1.5 20.5t-0.5 20.5t0.5 20.5t1.5 20.5q15 132 118.5 241.5t282.5 109.5q76 0 145.5 -27.5t115.5 -69.5v0z" />
    <glyph glyph-name="Egrave" unicode="&#xc8;" horiz-adv-x="519" 
d="M76 0v760h393v-90h-297v-241h297v-90h-297v-249h297v-90h-393v0zM264 797l-131 124v8h121l81 -132h-71v0z" />
    <glyph glyph-name="Eacute" unicode="&#xc9;" horiz-adv-x="519" 
d="M76 0v760h393v-90h-297v-241h297v-90h-297v-249h297v-90h-393v0zM221 797l81 132h121v-8l-131 -124h-71v0z" />
    <glyph glyph-name="Ecircumflex" unicode="&#xca;" horiz-adv-x="519" 
d="M76 0v760h393v-90h-297v-241h297v-90h-297v-249h297v-90h-393v0zM354 797l-76 76l-76 -76h-74l96 132h108l96 -132h-74v0z" />
    <glyph glyph-name="Edieresis" unicode="&#xcb;" horiz-adv-x="519" 
d="M76 0v760h393v-90h-297v-241h297v-90h-297v-249h297v-90h-393v0zM122 870q0 26 18.5 44.5t44.5 18.5t44.5 -18.5t18.5 -44.5t-18.5 -44.5t-44.5 -18.5t-44.5 18.5t-18.5 44.5v0zM308 870q0 26 18.5 44.5t44.5 18.5t44.5 -18.5t18.5 -44.5t-18.5 -44.5t-44.5 -18.5
t-44.5 18.5t-18.5 44.5v0z" />
    <glyph glyph-name="Igrave" unicode="&#xcc;" horiz-adv-x="240" 
d="M72 0v760h96v-760h-96v0zM106 797l-131 124v8h121l81 -132h-71v0z" />
    <glyph glyph-name="Iacute" unicode="&#xcd;" horiz-adv-x="240" 
d="M72 0v760h96v-760h-96v0zM63 797l81 132h121v-8l-131 -124h-71v0z" />
    <glyph glyph-name="Icircumflex" unicode="&#xce;" horiz-adv-x="240" 
d="M72 0v760h96v-760h-96v0zM196 797l-76 76l-76 -76h-74l96 132h108l96 -132h-74v0z" />
    <glyph glyph-name="Idieresis" unicode="&#xcf;" horiz-adv-x="240" 
d="M72 0v760h96v-760h-96v0zM-36 870q1 26 19 44.5t44 18.5t44.5 -18.5t18.5 -44.5t-18.5 -44.5t-44.5 -18.5t-44 18.5t-18 44.5h-1zM150 870q0 26 18.5 44.5t44.5 18.5t44.5 -18.5t18.5 -44.5t-18.5 -44.5t-44.5 -18.5t-44.5 18.5t-18.5 44.5v0z" />
    <glyph glyph-name="Eth" unicode="&#xd0;" horiz-adv-x="741" 
d="M76 429v331h250q140 0 252.5 -106.5t112.5 -270.5q0 -163 -113.5 -273t-275.5 -110h-226v345h-56v84h56v0zM172 90h129q128 0 208 86t80 212q0 122 -85.5 202t-210.5 80h-121v-241h172v-84h-172v-255v0z" />
    <glyph glyph-name="Ntilde" unicode="&#xd1;" horiz-adv-x="740" 
d="M572 172v588h96v-760h-90l-408 588h-2v-588h-96v760h90l408 -588h2v0zM258 806h-41q2 46 20.5 78.5t61.5 32.5q5 0 9.5 -0.5t9.5 -1.5q16 -2 32 -8t30 -12q19 -9 35 -16t26 -7q3 0 7 1t8 3q9 4 16.5 13.5t9.5 25.5h41q-1 -46 -20 -78.5t-62 -32.5q-5 0 -9.5 0.5t-9.5 1.5
q-16 2 -32 8t-30 13q-19 8 -34.5 15t-26.5 7q-3 0 -7 -1t-8 -3q-9 -4 -16.5 -13.5t-9.5 -25.5v0z" />
    <glyph glyph-name="Ograve" unicode="&#xd2;" 
 />
    <glyph glyph-name="Oacute" unicode="&#xd3;" horiz-adv-x="906" 
d="M50 380q0 10 0.5 20.5t1.5 20.5q15 132 118.5 241.5t282.5 109.5t282.5 -109.5t118.5 -241.5q1 -10 1.5 -20.5t0.5 -20.5t-0.5 -20.5t-1.5 -20.5q-15 -132 -118.5 -241t-282.5 -109t-282.5 109t-118.5 241q-1 10 -1.5 20.5t-0.5 20.5v0zM152 380q0 -135 92.5 -218.5
t208.5 -83.5t208.5 83.5t92.5 218.5t-92.5 218.5t-208.5 83.5t-208.5 -83.5t-92.5 -218.5v0zM396 797l81 132h121v-8l-131 -124h-71v0z" />
    <glyph glyph-name="Ocircumflex" unicode="&#xd4;" horiz-adv-x="906" 
d="M50 380q0 10 0.5 20.5t1.5 20.5q15 132 118.5 241.5t282.5 109.5t282.5 -109.5t118.5 -241.5q1 -10 1.5 -20.5t0.5 -20.5t-0.5 -20.5t-1.5 -20.5q-15 -132 -118.5 -241t-282.5 -109t-282.5 109t-118.5 241q-1 10 -1.5 20.5t-0.5 20.5v0zM152 380q0 -135 92.5 -218.5
t208.5 -83.5t208.5 83.5t92.5 218.5t-92.5 218.5t-208.5 83.5t-208.5 -83.5t-92.5 -218.5v0zM529 797l-76 76l-76 -76h-74l96 132h108l96 -132h-74v0z" />
    <glyph glyph-name="Otilde" unicode="&#xd5;" horiz-adv-x="906" 
d="M50 380q0 10 0.5 20.5t1.5 20.5q15 132 118.5 241.5t282.5 109.5t282.5 -109.5t118.5 -241.5q1 -10 1.5 -20.5t0.5 -20.5t-0.5 -20.5t-1.5 -20.5q-15 -132 -118.5 -241t-282.5 -109t-282.5 109t-118.5 241q-1 10 -1.5 20.5t-0.5 20.5v0zM152 380q0 -135 92.5 -218.5
t208.5 -83.5t208.5 83.5t92.5 218.5t-92.5 218.5t-208.5 83.5t-208.5 -83.5t-92.5 -218.5v0zM341 806h-41q2 46 20.5 78.5t61.5 32.5q5 0 9.5 -0.5t9.5 -1.5q16 -2 32 -8t30 -12q19 -9 35 -16t26 -7q3 0 7 1t8 3q9 4 16.5 13.5t9.5 25.5h41q-1 -46 -20 -78.5t-62 -32.5
q-5 0 -9.5 0.5t-9.5 1.5q-16 2 -32 8t-30 13q-19 8 -34.5 15t-26.5 7q-3 0 -7 -1t-8 -3q-9 -4 -16.5 -13.5t-9.5 -25.5v0z" />
    <glyph glyph-name="Odieresis" unicode="&#xd6;" horiz-adv-x="906" 
d="M50 380q0 10 0.5 20.5t1.5 20.5q15 132 118.5 241.5t282.5 109.5t282.5 -109.5t118.5 -241.5q1 -10 1.5 -20.5t0.5 -20.5t-0.5 -20.5t-1.5 -20.5q-15 -132 -118.5 -241t-282.5 -109t-282.5 109t-118.5 241q-1 10 -1.5 20.5t-0.5 20.5v0zM152 380q0 -135 92.5 -218.5
t208.5 -83.5t208.5 83.5t92.5 218.5t-92.5 218.5t-208.5 83.5t-208.5 -83.5t-92.5 -218.5v0zM297 870q0 26 18.5 44.5t44.5 18.5t44.5 -18.5t18.5 -44.5t-18.5 -44.5t-44.5 -18.5t-44.5 18.5t-18.5 44.5v0zM483 870q0 26 18.5 44.5t44.5 18.5t44.5 -18.5t18.5 -44.5
t-18.5 -44.5t-44.5 -18.5t-44.5 18.5t-18.5 44.5v0z" />
    <glyph glyph-name="multiply" unicode="&#xd7;" horiz-adv-x="600" 
d="M300 304l178 178l51 -51l-178 -178l178 -178l-51 -51l-178 178l-178 -178l-51 51l178 178l-178 178l51 51l178 -178v0z" />
    <glyph glyph-name="Oslash" unicode="&#xd8;" horiz-adv-x="906" 
d="M69 9l92 99q-47 48 -75 109.5t-34 124.5q-1 10 -1.5 19.5t-0.5 18.5q0 10 0.5 20.5t1.5 20.5q15 132 118.5 241.5t282.5 109.5q77 0 139 -22t110 -60l93 100l42 -39l-92 -99q49 -50 76.5 -113t33.5 -128q0 -8 0.5 -15.5t0.5 -15.5q0 -10 -0.5 -20.5t-1.5 -20.5
q-15 -132 -118.5 -241t-282.5 -109q-76 0 -139.5 21.5t-110.5 58.5l-92 -99l-42 39v0zM679 581l-410 -441q40 -29 87.5 -45.5t96.5 -16.5q116 0 208.5 83.5t92.5 218.5q0 61 -20.5 112t-54.5 89v0zM227 179l410 441q-40 30 -87 46t-97 16q-116 0 -208.5 -83.5t-92.5 -218.5
q0 -60 20.5 -110.5t54.5 -90.5v0z" />
    <glyph glyph-name="Ugrave" unicode="&#xd9;" horiz-adv-x="740" 
d="M72 276v484h96v-456q0 -93 51 -159.5t151 -66.5t151 66.5t51 159.5v456h96v-484q0 -123 -84 -205t-216 -82q-129 0 -212.5 82t-83.5 205v0zM356 797l-131 124v8h121l81 -132h-71v0z" />
    <glyph glyph-name="Uacute" unicode="&#xda;" horiz-adv-x="740" 
d="M72 276v484h96v-456q0 -93 51 -159.5t151 -66.5t151 66.5t51 159.5v456h96v-484q0 -123 -84 -205t-216 -82q-129 0 -212.5 82t-83.5 205v0zM313 797l81 132h121v-8l-131 -124h-71v0z" />
    <glyph glyph-name="Ucircumflex" unicode="&#xdb;" horiz-adv-x="740" 
d="M72 276v484h96v-456q0 -93 51 -159.5t151 -66.5t151 66.5t51 159.5v456h96v-484q0 -123 -84 -205t-216 -82q-129 0 -212.5 82t-83.5 205v0zM446 797l-76 76l-76 -76h-74l96 132h108l96 -132h-74v0z" />
    <glyph glyph-name="Udieresis" unicode="&#xdc;" horiz-adv-x="740" 
d="M72 276v484h96v-456q0 -93 51 -159.5t151 -66.5t151 66.5t51 159.5v456h96v-484q0 -123 -84 -205t-216 -82q-129 0 -212.5 82t-83.5 205v0zM214 870q0 26 18.5 44.5t44.5 18.5t44.5 -18.5t18.5 -44.5t-18.5 -44.5t-44.5 -18.5t-44.5 18.5t-18.5 44.5v0zM400 870
q0 26 18.5 44.5t44.5 18.5t44.5 -18.5t18.5 -44.5t-18.5 -44.5t-44.5 -18.5t-44.5 18.5t-18.5 44.5v0z" />
    <glyph glyph-name="Yacute" unicode="&#xdd;" 
 />
    <glyph glyph-name="Thorn" unicode="&#xde;" horiz-adv-x="574" 
d="M76 0v760h96v-111h114q121 0 189 -78t68 -173t-68 -172.5t-189 -77.5h-114v-148h-96v0zM172 232h94q86 0 133.5 42t47.5 124q0 83 -47.5 125t-133.5 42h-94v-333v0z" />
    <glyph glyph-name="germandbls" unicode="&#xdf;" horiz-adv-x="630" 
d="M245 10l22 81q17 -10 37 -14t40 -4h1.5h1.5q53 1 97.5 42t44.5 114q0 72 -50.5 115t-127.5 43h-22v79h24q41 0 69 30t28 79q0 50 -30.5 78.5t-80.5 28.5q-49 0 -80 -32t-31 -106v-544h-90v442h-72v79h72v45q0 83 52.5 141.5t153.5 58.5q76 0 122.5 -39.5t63.5 -87.5
q5 -14 7.5 -28t2.5 -27q0 -49 -20.5 -85t-58.5 -56v-2q74 -10 119 -66.5t45 -134.5q0 -109 -68 -177t-177 -68q-22 0 -46 3t-49 12v0z" />
    <glyph glyph-name="agrave" unicode="&#xe0;" horiz-adv-x="574" 
d="M419 295v54q0 54 -38 76.5t-84 26.5q-9 1 -17.5 1.5t-16.5 0.5q-18 0 -36 -2t-36 -7q-18 -4 -36 -11t-36 -16l-39 75q59 25 106 32.5t82 7.5q94 0 167.5 -42t73.5 -135v-356h-84v56q-34 -36 -74 -51.5t-92 -15.5q-95 0 -161 49.5t-66 136.5q0 71 58.5 125t167.5 54
q10 0 19.5 -0.5t18.5 -2.5q33 -4 64 -17.5t59 -38.5v0zM422 171v2.5v3.5q-2 36 -34.5 67t-112.5 31q-79 0 -112 -31t-35 -67v-3.5v-2.5v-2.5v-3.5q2 -36 35 -67t112 -31q80 0 112.5 31t34.5 67v3.5v2.5v0zM279 602l-131 124v8h121l81 -132h-71v0z" />
    <glyph glyph-name="aacute" unicode="&#xe1;" horiz-adv-x="574" 
d="M419 295v54q0 54 -38 76.5t-84 26.5q-9 1 -17.5 1.5t-16.5 0.5q-18 0 -36 -2t-36 -7q-18 -4 -36 -11t-36 -16l-39 75q59 25 106 32.5t82 7.5q94 0 167.5 -42t73.5 -135v-356h-84v56q-34 -36 -74 -51.5t-92 -15.5q-95 0 -161 49.5t-66 136.5q0 71 58.5 125t167.5 54
q10 0 19.5 -0.5t18.5 -2.5q33 -4 64 -17.5t59 -38.5v0zM422 171v2.5v3.5q-2 36 -34.5 67t-112.5 31q-79 0 -112 -31t-35 -67v-3.5v-2.5v-2.5v-3.5q2 -36 35 -67t112 -31q80 0 112.5 31t34.5 67v3.5v2.5v0zM236 602l81 132h121v-8l-131 -124h-71v0z" />
    <glyph glyph-name="acircumflex" unicode="&#xe2;" horiz-adv-x="574" 
d="M419 295v54q0 54 -38 76.5t-84 26.5q-9 1 -17.5 1.5t-16.5 0.5q-18 0 -36 -2t-36 -7q-18 -4 -36 -11t-36 -16l-39 75q59 25 106 32.5t82 7.5q94 0 167.5 -42t73.5 -135v-356h-84v56q-34 -36 -74 -51.5t-92 -15.5q-95 0 -161 49.5t-66 136.5q0 71 58.5 125t167.5 54
q10 0 19.5 -0.5t18.5 -2.5q33 -4 64 -17.5t59 -38.5v0zM422 171v2.5v3.5q-2 36 -34.5 67t-112.5 31q-79 0 -112 -31t-35 -67v-3.5v-2.5v-2.5v-3.5q2 -36 35 -67t112 -31q80 0 112.5 31t34.5 67v3.5v2.5v0zM369 602l-76 76l-76 -76h-74l96 132h108l96 -132h-74v0z" />
    <glyph glyph-name="atilde" unicode="&#xe3;" horiz-adv-x="574" 
d="M419 295v54q0 54 -38 76.5t-84 26.5q-9 1 -17.5 1.5t-16.5 0.5q-18 0 -36 -2t-36 -7q-18 -4 -36 -11t-36 -16l-39 75q59 25 106 32.5t82 7.5q94 0 167.5 -42t73.5 -135v-356h-84v56q-34 -36 -74 -51.5t-92 -15.5q-95 0 -161 49.5t-66 136.5q0 71 58.5 125t167.5 54
q10 0 19.5 -0.5t18.5 -2.5q33 -4 64 -17.5t59 -38.5v0zM422 171v2.5v3.5q-2 36 -34.5 67t-112.5 31q-79 0 -112 -31t-35 -67v-3.5v-2.5v-2.5v-3.5q2 -36 35 -67t112 -31q80 0 112.5 31t34.5 67v3.5v2.5v0zM181 611h-41q2 46 20.5 78.5t61.5 32.5q5 0 9.5 -0.5t9.5 -1.5
q16 -2 32 -8t30 -12q19 -9 35 -16t26 -7q3 0 7 1t8 3q9 4 16.5 13.5t9.5 25.5h41q-1 -46 -20 -78.5t-62 -32.5q-5 0 -9.5 0.5t-9.5 1.5q-16 2 -32 8t-30 13q-19 8 -34.5 15t-26.5 7q-3 0 -7 -1t-8 -3q-9 -4 -16.5 -13.5t-9.5 -25.5v0z" />
    <glyph glyph-name="adieresis" unicode="&#xe4;" horiz-adv-x="574" 
d="M419 295v54q0 54 -38 76.5t-84 26.5q-9 1 -17.5 1.5t-16.5 0.5q-18 0 -36 -2t-36 -7q-18 -4 -36 -11t-36 -16l-39 75q59 25 106 32.5t82 7.5q94 0 167.5 -42t73.5 -135v-356h-84v56q-34 -36 -74 -51.5t-92 -15.5q-95 0 -161 49.5t-66 136.5q0 71 58.5 125t167.5 54
q10 0 19.5 -0.5t18.5 -2.5q33 -4 64 -17.5t59 -38.5v0zM422 171v2.5v3.5q-2 36 -34.5 67t-112.5 31q-79 0 -112 -31t-35 -67v-3.5v-2.5v-2.5v-3.5q2 -36 35 -67t112 -31q80 0 112.5 31t34.5 67v3.5v2.5v0zM137 665q0 26 18.5 44.5t44.5 18.5t44.5 -18.5t18.5 -44.5
t-18.5 -44.5t-44.5 -18.5t-44.5 18.5t-18.5 44.5v0zM323 665q0 26 18.5 44.5t44.5 18.5t44.5 -18.5t18.5 -44.5t-18.5 -44.5t-44.5 -18.5t-44.5 18.5t-18.5 44.5v0z" />
    <glyph glyph-name="aring" unicode="&#xe5;" horiz-adv-x="574" 
d="M419 295v54q0 54 -38 76.5t-84 26.5q-9 1 -17.5 1.5t-16.5 0.5q-18 0 -36 -2t-36 -7q-18 -4 -36 -11t-36 -16l-39 75q59 25 106 32.5t82 7.5q94 0 167.5 -42t73.5 -135v-356h-84v56q-34 -36 -74 -51.5t-92 -15.5q-95 0 -161 49.5t-66 136.5q0 71 58.5 125t167.5 54
q10 0 19.5 -0.5t18.5 -2.5q33 -4 64 -17.5t59 -38.5v0zM422 171v2.5v3.5q-2 36 -34.5 67t-112.5 31q-79 0 -112 -31t-35 -67v-3.5v-2.5v-2.5v-3.5q2 -36 35 -67t112 -31q80 0 112.5 31t34.5 67v3.5v2.5v0zM200 673q0 38 27.5 65.5t65.5 27.5t65.5 -27.5t27.5 -65.5
t-27.5 -65.5t-65.5 -27.5t-65.5 27.5t-27.5 65.5v0zM242 673q0 -21 15 -36t36 -15t36 15t15 36t-15 36t-36 15t-36 -15t-15 -36v0z" />
    <glyph glyph-name="ae" unicode="&#xe6;" horiz-adv-x="963" 
d="M422 295v54q0 54 -38 76.5t-84 26.5q-9 1 -17.5 1.5t-16.5 0.5q-18 0 -36 -2t-36 -7q-18 -4 -36 -11t-36 -16l-39 75q59 25 106 32.5t82 7.5q91 0 140.5 -28t77.5 -75q22 41 68.5 69t97.5 33q5 1 9.5 1h8.5q119 0 187 -83.5t68 -192.5v-31h-413q3 -66 52 -110t121 -44
q58 0 92 19t62 53l67 -54q-48 -52 -101 -76.5t-123 -24.5q-69 0 -124 28t-80 71q-40 -55 -94.5 -77t-124.5 -22q-95 0 -161 49.5t-66 136.5q0 71 58.5 125t167.5 54q10 0 19.5 -0.5t18.5 -2.5q33 -4 64 -17.5t59 -38.5v0zM425 171v2.5v3.5q-2 36 -34.5 67t-112.5 31
q-79 0 -112 -31t-35 -67v-3.5v-2.5v-2.5v-3.5q2 -36 35 -67t112 -31q80 0 112.5 31t34.5 67v3.5v2.5v0zM515 300h317q-6 69 -52 109t-106 40h-2h-2q-53 -1 -99 -36.5t-56 -112.5v0z" />
    <glyph glyph-name="ccedilla" unicode="&#xe7;" horiz-adv-x="519" 
d="M203 -196l-26 48q50 13 81.5 41.5t50.5 81.5l87 -32q-28 -67 -75 -98t-118 -40v-1zM495 468l-61 -71q-27 26 -57 39t-64 13q-67 0 -119.5 -48.5t-52.5 -144.5q0 -79 51.5 -131.5t129.5 -52.5q32 0 62.5 15.5t53.5 37.5l53 -66q-35 -36 -82.5 -53t-97.5 -17
q-120 0 -193 81t-73 189q0 112 77.5 193t189.5 81q58 0 104.5 -19.5t75.5 -42.5l1.5 -1.5l1.5 -1.5v0z" />
    <glyph glyph-name="egrave" unicode="&#xe8;" horiz-adv-x="630" 
d="M495 156l69 -55q-52 -58 -109.5 -85t-125.5 -27q-139 0 -211.5 84t-72.5 188q0 111 73.5 191.5t195.5 80.5q121 0 197 -84.5t76 -222.5h-446q11 -67 61 -110.5t126 -43.5q48 0 90.5 22t76.5 62v0zM141 300h344q-7 65 -54.5 107t-117.5 42q-76 0 -117 -41t-52 -90
q-1 -5 -1.5 -9.5t-1.5 -8.5v0zM307 602l-131 124v8h121l81 -132h-71v0z" />
    <glyph glyph-name="eacute" unicode="&#xe9;" horiz-adv-x="630" 
d="M495 156l69 -55q-52 -58 -109.5 -85t-125.5 -27q-139 0 -211.5 84t-72.5 188q0 111 73.5 191.5t195.5 80.5q121 0 197 -84.5t76 -222.5h-446q11 -67 61 -110.5t126 -43.5q48 0 90.5 22t76.5 62v0zM141 300h344q-7 65 -54.5 107t-117.5 42q-76 0 -117 -41t-52 -90
q-1 -5 -1.5 -9.5t-1.5 -8.5v0zM264 602l81 132h121v-8l-131 -124h-71v0z" />
    <glyph glyph-name="ecircumflex" unicode="&#xea;" horiz-adv-x="630" 
d="M495 156l69 -55q-52 -58 -109.5 -85t-125.5 -27q-139 0 -211.5 84t-72.5 188q0 111 73.5 191.5t195.5 80.5q121 0 197 -84.5t76 -222.5h-446q11 -67 61 -110.5t126 -43.5q48 0 90.5 22t76.5 62v0zM141 300h344q-7 65 -54.5 107t-117.5 42q-76 0 -117 -41t-52 -90
q-1 -5 -1.5 -9.5t-1.5 -8.5v0zM397 602l-76 76l-76 -76h-74l96 132h108l96 -132h-74v0z" />
    <glyph glyph-name="edieresis" unicode="&#xeb;" horiz-adv-x="630" 
d="M495 156l69 -55q-52 -58 -109.5 -85t-125.5 -27q-139 0 -211.5 84t-72.5 188q0 111 73.5 191.5t195.5 80.5q121 0 197 -84.5t76 -222.5h-446q11 -67 61 -110.5t126 -43.5q48 0 90.5 22t76.5 62v0zM141 300h344q-7 65 -54.5 107t-117.5 42q-76 0 -117 -41t-52 -90
q-1 -5 -1.5 -9.5t-1.5 -8.5v0zM165 665q0 26 18.5 44.5t44.5 18.5t44.5 -18.5t18.5 -44.5t-18.5 -44.5t-44.5 -18.5t-44.5 18.5t-18.5 44.5v0zM351 665q0 26 18.5 44.5t44.5 18.5t44.5 -18.5t18.5 -44.5t-18.5 -44.5t-44.5 -18.5t-44.5 18.5t-18.5 44.5v0z" />
    <glyph glyph-name="igrave" unicode="&#xec;" horiz-adv-x="240" 
d="M75 0v521h90v-521h-90v0zM106 602l-131 124v8h121l81 -132h-71v0z" />
    <glyph glyph-name="iacute" unicode="&#xed;" horiz-adv-x="240" 
d="M75 0v521h90v-521h-90v0zM63 602l81 132h121v-8l-131 -124h-71v0z" />
    <glyph glyph-name="icircumflex" unicode="&#xee;" horiz-adv-x="240" 
d="M75 0v521h90v-521h-90v0zM196 602l-76 76l-76 -76h-74l96 132h108l96 -132h-74v0z" />
    <glyph glyph-name="idieresis" unicode="&#xef;" horiz-adv-x="240" 
d="M75 0v521h90v-521h-90v0zM-36 665q1 26 19 44.5t44 18.5t44.5 -18.5t18.5 -44.5t-18.5 -44.5t-44.5 -18.5t-44 18.5t-18 44.5h-1zM150 665q0 26 18.5 44.5t44.5 18.5t44.5 -18.5t18.5 -44.5t-18.5 -44.5t-44.5 -18.5t-44.5 18.5t-18.5 44.5v0z" />
    <glyph glyph-name="eth" unicode="&#xf0;" horiz-adv-x="684" 
d="M234 597l-54 41l120 52q-29 14 -60 24.5t-63 15.5l78 56q39 -10 74 -24t65 -32l130 56l53 -42l-125 -53q86 -70 129 -170.5t43 -220.5q0 -156 -80 -233.5t-202 -77.5q-127 0 -204.5 79.5t-77.5 191.5q0 110 79.5 191.5t202.5 81.5q53 0 92.5 -17.5t67.5 -49.5l2 2
q-15 57 -52.5 103.5t-87.5 81.5l-130 -56v0zM342 449q-75 0 -130.5 -54t-55.5 -135q0 -75 55.5 -131.5t130.5 -56.5t130.5 56.5t55.5 131.5q0 81 -55.5 135t-130.5 54v0z" />
    <glyph glyph-name="ntilde" unicode="&#xf1;" horiz-adv-x="574" 
d="M415 0v303q0 59 -27 102.5t-94 43.5q-63 0 -99 -41t-36 -115v-293h-90v521h90v-61h2q20 35 60 54t83 19q76 0 138.5 -45t62.5 -151v-337h-90v0zM175 611h-41q2 46 20.5 78.5t61.5 32.5q5 0 9.5 -0.5t9.5 -1.5q16 -2 32 -8t30 -12q19 -9 35 -16t26 -7q3 0 7 1t8 3
q9 4 16.5 13.5t9.5 25.5h41q-1 -46 -20 -78.5t-62 -32.5q-5 0 -9.5 0.5t-9.5 1.5q-16 2 -32 8t-30 13q-19 8 -34.5 15t-26.5 7q-3 0 -7 -1t-8 -3q-9 -4 -16.5 -13.5t-9.5 -25.5v0z" />
    <glyph glyph-name="ograve" unicode="&#xf2;" horiz-adv-x="684" 
d="M60 260q0 110 79.5 191.5t202.5 81.5t202.5 -81.5t79.5 -191.5q0 -112 -77 -191.5t-205 -79.5q-127 0 -204.5 79.5t-77.5 191.5v0zM342 449q-75 0 -130.5 -54t-55.5 -135q0 -75 55.5 -131.5t130.5 -56.5t130.5 56.5t55.5 131.5q0 81 -55.5 135t-130.5 54v0zM328 602
l-131 124v8h121l81 -132h-71v0z" />
    <glyph glyph-name="oacute" unicode="&#xf3;" horiz-adv-x="684" 
d="M60 260q0 110 79.5 191.5t202.5 81.5t202.5 -81.5t79.5 -191.5q0 -112 -77 -191.5t-205 -79.5q-127 0 -204.5 79.5t-77.5 191.5v0zM342 449q-75 0 -130.5 -54t-55.5 -135q0 -75 55.5 -131.5t130.5 -56.5t130.5 56.5t55.5 131.5q0 81 -55.5 135t-130.5 54v0zM285 602
l81 132h121v-8l-131 -124h-71v0z" />
    <glyph glyph-name="ocircumflex" unicode="&#xf4;" horiz-adv-x="684" 
d="M60 260q0 110 79.5 191.5t202.5 81.5t202.5 -81.5t79.5 -191.5q0 -112 -77 -191.5t-205 -79.5q-127 0 -204.5 79.5t-77.5 191.5v0zM342 449q-75 0 -130.5 -54t-55.5 -135q0 -75 55.5 -131.5t130.5 -56.5t130.5 56.5t55.5 131.5q0 81 -55.5 135t-130.5 54v0zM418 602
l-76 76l-76 -76h-74l96 132h108l96 -132h-74v0z" />
    <glyph glyph-name="otilde" unicode="&#xf5;" horiz-adv-x="684" 
d="M60 260q0 110 79.5 191.5t202.5 81.5t202.5 -81.5t79.5 -191.5q0 -112 -77 -191.5t-205 -79.5q-127 0 -204.5 79.5t-77.5 191.5v0zM342 449q-75 0 -130.5 -54t-55.5 -135q0 -75 55.5 -131.5t130.5 -56.5t130.5 56.5t55.5 131.5q0 81 -55.5 135t-130.5 54v0zM230 611h-41
q2 46 20.5 78.5t61.5 32.5q5 0 9.5 -0.5t9.5 -1.5q16 -2 32 -8t30 -12q19 -9 35 -16t26 -7q3 0 7 1t8 3q9 4 16.5 13.5t9.5 25.5h41q-1 -46 -20 -78.5t-62 -32.5q-5 0 -9.5 0.5t-9.5 1.5q-16 2 -32 8t-30 13q-19 8 -34.5 15t-26.5 7q-3 0 -7 -1t-8 -3q-9 -4 -16.5 -13.5
t-9.5 -25.5v0z" />
    <glyph glyph-name="odieresis" unicode="&#xf6;" horiz-adv-x="684" 
d="M60 260q0 110 79.5 191.5t202.5 81.5t202.5 -81.5t79.5 -191.5q0 -112 -77 -191.5t-205 -79.5q-127 0 -204.5 79.5t-77.5 191.5v0zM342 449q-75 0 -130.5 -54t-55.5 -135q0 -75 55.5 -131.5t130.5 -56.5t130.5 56.5t55.5 131.5q0 81 -55.5 135t-130.5 54v0zM186 665
q0 26 18.5 44.5t44.5 18.5t44.5 -18.5t18.5 -44.5t-18.5 -44.5t-44.5 -18.5t-44.5 18.5t-18.5 44.5v0zM372 665q0 26 18.5 44.5t44.5 18.5t44.5 -18.5t18.5 -44.5t-18.5 -44.5t-44.5 -18.5t-44.5 18.5t-18.5 44.5v0z" />
    <glyph glyph-name="divide" unicode="&#xf7;" horiz-adv-x="600" 
d="M231 47q0 29 20.5 49t48.5 20q29 0 49 -20t20 -49q0 -28 -20 -48t-49 -20q-28 0 -48.5 20t-20.5 48v0zM47 216v74h506v-74h-506v0zM231 459q0 29 20.5 49t48.5 20q29 0 49 -20t20 -49q0 -28 -20 -48.5t-49 -20.5q-28 0 -48.5 20.5t-20.5 48.5v0z" />
    <glyph glyph-name="oslash" unicode="&#xf8;" horiz-adv-x="684" 
d="M52 20l70 66q-30 35 -46 79.5t-16 94.5q0 110 79.5 191.5t202.5 81.5q53 0 99.5 -17t83.5 -47l72 69l35 -37l-71 -67q30 -36 46.5 -80.5t16.5 -93.5q0 -112 -77 -191.5t-205 -79.5q-55 0 -101.5 16t-82.5 45l-71 -67l-35 37v0zM494 370l-267 -255q23 -19 52.5 -31
t62.5 -12q75 0 130.5 56.5t55.5 131.5q0 31 -9 59t-25 51v0zM192 153l267 254q-25 20 -54.5 31t-62.5 11q-75 0 -130.5 -54t-55.5 -135q0 -29 9.5 -56.5t26.5 -50.5v0z" />
    <glyph glyph-name="ugrave" unicode="&#xf9;" horiz-adv-x="574" 
d="M415 0v61h-2q-20 -35 -59.5 -53.5t-83.5 -18.5q-76 0 -138.5 44.5t-62.5 150.5v337h90v-303q0 -58 27 -102t94 -44q63 0 99 41t36 115v293h90v-521h-90v0zM273 602l-131 124v8h121l81 -132h-71v0z" />
    <glyph glyph-name="uacute" unicode="&#xfa;" horiz-adv-x="574" 
d="M415 0v61h-2q-20 -35 -59.5 -53.5t-83.5 -18.5q-76 0 -138.5 44.5t-62.5 150.5v337h90v-303q0 -58 27 -102t94 -44q63 0 99 41t36 115v293h90v-521h-90v0zM230 602l81 132h121v-8l-131 -124h-71v0z" />
    <glyph glyph-name="ucircumflex" unicode="&#xfb;" horiz-adv-x="574" 
d="M415 0v61h-2q-20 -35 -59.5 -53.5t-83.5 -18.5q-76 0 -138.5 44.5t-62.5 150.5v337h90v-303q0 -58 27 -102t94 -44q63 0 99 41t36 115v293h90v-521h-90v0zM363 602l-76 76l-76 -76h-74l96 132h108l96 -132h-74v0z" />
    <glyph glyph-name="udieresis" unicode="&#xfc;" horiz-adv-x="574" 
d="M415 0v61h-2q-20 -35 -59.5 -53.5t-83.5 -18.5q-76 0 -138.5 44.5t-62.5 150.5v337h90v-303q0 -58 27 -102t94 -44q63 0 99 41t36 115v293h90v-521h-90v0zM131 665q0 26 18.5 44.5t44.5 18.5t44.5 -18.5t18.5 -44.5t-18.5 -44.5t-44.5 -18.5t-44.5 18.5t-18.5 44.5v0z
M317 665q0 26 18.5 44.5t44.5 18.5t44.5 -18.5t18.5 -44.5t-18.5 -44.5t-44.5 -18.5t-44.5 18.5t-18.5 44.5v0z" />
    <glyph glyph-name="yacute" unicode="&#xfd;" 
 />
    <glyph glyph-name="thorn" unicode="&#xfe;" horiz-adv-x="684" 
d="M75 -220v980h90v-321h2q31 45 83 69t109 25h2.5h3.5q110 0 190.5 -77t80.5 -190q0 -123 -83 -200t-192 -77q-67 0 -116 25.5t-78 65.5h-2v-300h-90v0zM540 265q0 6 -0.5 12t-1.5 13q-8 59 -57 109t-132 50q-73 0 -128.5 -55t-55.5 -134q0 -78 55 -133t132 -55
q71 0 129.5 51.5t58.5 141.5v0z" />
    <glyph glyph-name="ydieresis" unicode="&#xff;" horiz-adv-x="574" 
d="M128 -220l97 228l-217 513h102l167 -402l169 402h96l-320 -741h-94v0zM131 665q0 26 18.5 44.5t44.5 18.5t44.5 -18.5t18.5 -44.5t-18.5 -44.5t-44.5 -18.5t-44.5 18.5t-18.5 44.5v0zM317 665q0 26 18.5 44.5t44.5 18.5t44.5 -18.5t18.5 -44.5t-18.5 -44.5t-44.5 -18.5
t-44.5 18.5t-18.5 44.5v0z" />
    <glyph glyph-name="Abreve" unicode="&#x102;" 
 />
    <glyph glyph-name="abreve" unicode="&#x103;" 
 />
    <glyph glyph-name="Aogonek" unicode="&#x104;" 
 />
    <glyph glyph-name="aogonek" unicode="&#x105;" 
 />
    <glyph glyph-name="Cacute" unicode="&#x106;" 
 />
    <glyph glyph-name="cacute" unicode="&#x107;" 
 />
    <glyph glyph-name="Ccaron" unicode="&#x10c;" 
 />
    <glyph glyph-name="ccaron" unicode="&#x10d;" 
 />
    <glyph glyph-name="Dcaron" unicode="&#x10e;" 
 />
    <glyph glyph-name="dcaron" unicode="&#x10f;" 
 />
    <glyph glyph-name="Dslash" unicode="&#x110;" 
 />
    <glyph glyph-name="dslash" unicode="&#x111;" 
 />
    <glyph glyph-name="Eogonek" unicode="&#x118;" 
 />
    <glyph glyph-name="eogonek" unicode="&#x119;" 
 />
    <glyph glyph-name="Ecaron" unicode="&#x11a;" 
 />
    <glyph glyph-name="ecaron" unicode="&#x11b;" 
 />
    <glyph glyph-name="Gbreve" unicode="&#x11e;" 
 />
    <glyph glyph-name="gbreve" unicode="&#x11f;" 
 />
    <glyph glyph-name="Idot" unicode="&#x130;" 
 />
    <glyph glyph-name="dotlessi" unicode="&#x131;" horiz-adv-x="240" 
d="M75 0v521h90v-521h-90v0z" />
    <glyph glyph-name="Lacute" unicode="&#x139;" 
 />
    <glyph glyph-name="lacute" unicode="&#x13a;" 
 />
    <glyph glyph-name="Lcaron" unicode="&#x13d;" 
 />
    <glyph glyph-name="lcaron" unicode="&#x13e;" 
 />
    <glyph glyph-name="Ldot" unicode="&#x13f;" 
 />
    <glyph glyph-name="ldot" unicode="&#x140;" 
 />
    <glyph glyph-name="Lslash" unicode="&#x141;" horiz-adv-x="463" 
d="M172 466l124 124v-96l-124 -124v-280h267v-90h-363v274l-69 -69v96l69 69v390h96v-294v0z" />
    <glyph glyph-name="lslash" unicode="&#x142;" horiz-adv-x="240" 
d="M153 483l85 85v-74l-85 -85v-246q0 -44 18 -61.5t40 -17.5h27v-84h-37q-62 0 -100 37t-38 119v163l-59 -59v74l59 59v367h90v-277v0z" />
    <glyph glyph-name="Nacute" unicode="&#x143;" 
 />
    <glyph glyph-name="nacute" unicode="&#x144;" 
 />
    <glyph glyph-name="Ncaron" unicode="&#x147;" 
 />
    <glyph glyph-name="ncaron" unicode="&#x148;" 
 />
    <glyph glyph-name="Odblacute" unicode="&#x150;" 
 />
    <glyph glyph-name="odblacute" unicode="&#x151;" 
 />
    <glyph glyph-name="OE" unicode="&#x152;" horiz-adv-x="1019" 
d="M603 659v101h366v-90h-274v-251h274v-90h-274v-239h274v-90h-366v100h-2q-38 -58 -95.5 -84.5t-134.5 -26.5q-166 0 -249 121.5t-83 269.5q0 149 83 270.5t249 121.5q77 0 134.5 -26.5t95.5 -85.5l2 -1v0zM605 380v10.5v11.5q-5 107 -58 196.5t-176 89.5
q-124 0 -177.5 -89.5t-58.5 -196.5v-11.5v-10.5v-10.5v-11.5q5 -107 58.5 -196.5t177.5 -89.5q123 0 176 89.5t58 196.5v11.5v10.5v0z" />
    <glyph glyph-name="oe" unicode="&#x153;" horiz-adv-x="1019" 
d="M978 226h-419q6 -66 56.5 -110t122.5 -44q58 0 92 19t62 53l67 -54q-48 -52 -101 -76.5t-123 -24.5q-64 0 -120.5 23t-99.5 89q-33 -57 -88 -84.5t-121 -27.5q-124 0 -194.5 79.5t-70.5 187.5q0 8 0.5 16.5t1.5 16.5q10 91 75 167.5t188 76.5q64 0 118 -26t94 -86
q39 56 85.5 84t119.5 28q119 0 187 -83.5t68 -192.5v-31v0zM475 259v5.5v5.5q-3 67 -45.5 123t-123.5 56t-123.5 -56t-45.5 -123v-5.5v-5.5q0 -76 45 -131.5t124 -55.5t124 55.5t45 131.5v0zM559 300h323q-6 69 -52 109t-106 40h-2h-2q-53 -1 -99.5 -34.5t-61.5 -114.5v0z
" />
    <glyph glyph-name="Racute" unicode="&#x154;" 
 />
    <glyph glyph-name="racute" unicode="&#x155;" 
 />
    <glyph glyph-name="Rcaron" unicode="&#x158;" 
 />
    <glyph glyph-name="rcaron" unicode="&#x159;" 
 />
    <glyph glyph-name="Sacute" unicode="&#x15a;" 
 />
    <glyph glyph-name="sacute" unicode="&#x15b;" 
 />
    <glyph glyph-name="Scedilla" unicode="&#x15e;" 
 />
    <glyph glyph-name="scedilla" unicode="&#x15f;" 
 />
    <glyph glyph-name="Scaron" unicode="&#x160;" horiz-adv-x="574" 
d="M522 543h-90q-10 68 -47.5 106.5t-98.5 38.5q-64 0 -94 -27.5t-39 -60.5q-2 -9 -3 -18t-1 -17q0 -43 27.5 -71.5t83.5 -49.5l96 -36q91 -34 134 -86.5t43 -121.5q0 -92 -67 -151.5t-177 -59.5q-103 0 -171 55t-77 169h96q6 -62 41.5 -101.5t115.5 -39.5q62 0 102.5 35
t40.5 85q0 44 -33 74t-85 50l-97 38q-85 33 -127 84t-42 124q0 98 70 154t164 56q95 0 161 -56.5t74 -172.5v0zM287 853l76 76h74l-96 -132h-108l-96 132h74l76 -76v0z" />
    <glyph glyph-name="scaron" unicode="&#x161;" horiz-adv-x="463" 
d="M39 152h84q5 -42 36 -63.5t72 -21.5q47 0 69.5 16.5t29.5 35.5q2 6 3 12t1 11q0 26 -19.5 43t-72.5 31l-91 25q-58 16 -82 52t-24 82q0 65 47.5 111.5t138.5 46.5q93 0 133.5 -45.5t44.5 -100.5q1 -4 1 -8v-8h-84q-5 44 -28.5 66t-68.5 22q-43 0 -68.5 -22t-25.5 -53
q0 -22 13.5 -38t44.5 -25l122 -35q62 -18 85.5 -52t23.5 -84q0 -79 -58.5 -120t-130.5 -41q-91 0 -142.5 44.5t-53.5 118.5v0zM232 658l76 76h74l-96 -132h-108l-96 132h74l76 -76v0z" />
    <glyph glyph-name="Tcedilla" unicode="&#x162;" 
 />
    <glyph glyph-name="tcedilla" unicode="&#x163;" 
 />
    <glyph glyph-name="Tcaron" unicode="&#x164;" 
 />
    <glyph glyph-name="tcaron" unicode="&#x165;" 
 />
    <glyph glyph-name="Uring" unicode="&#x16e;" 
 />
    <glyph glyph-name="uring" unicode="&#x16f;" 
 />
    <glyph glyph-name="udblacute" unicode="&#x170;" 
 />
    <glyph glyph-name="Udblacute" unicode="&#x171;" 
 />
    <glyph glyph-name="Ydieresis" unicode="&#x178;" horiz-adv-x="630" 
d="M315 404l193 356h112l-257 -457v-303h-96v303l-257 457h112l193 -356v0zM159 870q0 26 18.5 44.5t44.5 18.5t44.5 -18.5t18.5 -44.5t-18.5 -44.5t-44.5 -18.5t-44.5 18.5t-18.5 44.5v0zM345 870q0 26 18.5 44.5t44.5 18.5t44.5 -18.5t18.5 -44.5t-18.5 -44.5t-44.5 -18.5
t-44.5 18.5t-18.5 44.5v0z" />
    <glyph glyph-name="Zacute" unicode="&#x179;" 
 />
    <glyph glyph-name="zacute" unicode="&#x17a;" 
 />
    <glyph glyph-name="Zdot" unicode="&#x17b;" 
 />
    <glyph glyph-name="zdot" unicode="&#x17c;" 
 />
    <glyph glyph-name="Zcaron" unicode="&#x17d;" horiz-adv-x="630" 
d="M25 0l416 670h-379v90h543l-416 -670h396v-90h-560v0zM315 853l76 76h74l-96 -132h-108l-96 132h74l76 -76v0z" />
    <glyph glyph-name="zcaron" unicode="&#x17e;" horiz-adv-x="463" 
d="M21 0l272 442h-244v79h393l-270 -442h257v-79h-408v0zM232 658l76 76h74l-96 -132h-108l-96 132h74l76 -76v0z" />
    <glyph glyph-name="florin" unicode="&#x192;" horiz-adv-x="520" 
d="M110 367l6 50h97l23 186q10 78 46.5 108.5t110.5 30.5q9 0 16 -0.5t13 -1.5l-10 -84q-2 0 -5.5 0.5t-7.5 0.5q-3 1 -6 1h-5q-27 0 -43 -15.5t-21 -50.5l-21 -175h98l-7 -50h-97l-54 -455q-7 -61 -38 -91.5t-99 -30.5q-14 0 -24 0.5t-19 1.5q-2 1 -4.5 1.5t-5.5 0.5l11 85
q7 -1 14 -3t14 -2q32 0 46 15.5t18 53.5l51 424h-97v0z" />
    <glyph glyph-name="hungarumlaut" unicode="&#x2ba;" horiz-adv-x="240" 
d="M-33 602l81 132h121v-8l-131 -124h-71v0zM153 602l81 132h121v-8l-131 -124h-71v0z" />
    <glyph glyph-name="tilde" unicode="&#x2c6;" horiz-adv-x="240" 
d="M8 611h-41q2 46 20.5 78.5t61.5 32.5q5 0 9.5 -0.5t9.5 -1.5q16 -2 32 -8t30 -12q19 -9 35 -16t26 -7q3 0 7 1t8 3q9 4 16.5 13.5t9.5 25.5h41q-1 -46 -20 -78.5t-62 -32.5q-5 0 -9.5 0.5t-9.5 1.5q-16 2 -32 8t-30 13q-19 8 -34.5 15t-26.5 7q-3 0 -7 -1t-8 -3
q-9 -4 -16.5 -13.5t-9.5 -25.5v0z" />
    <glyph glyph-name="caron" unicode="&#x2c7;" horiz-adv-x="240" 
d="M120 658l76 76h74l-96 -132h-108l-96 132h74l76 -76v0z" />
    <glyph glyph-name="macron" unicode="&#x2c9;" horiz-adv-x="240" 
d="M-31 627v68h302v-68h-302v0z" />
    <glyph glyph-name="breve" unicode="&#x2d8;" horiz-adv-x="240" 
d="M-33 734h57q5 -17 14 -29t21 -20q13 -7 28.5 -11t32.5 -4q33 0 60 13.5t36 50.5h57q-2 -55 -39.5 -93.5t-113.5 -38.5t-113 38.5t-39 93.5h-1z" />
    <glyph glyph-name="dotaccent" unicode="&#x2d9;" horiz-adv-x="240" 
d="M57 665q0 26 18.5 44.5t44.5 18.5t44.5 -18.5t18.5 -44.5t-18.5 -44.5t-44.5 -18.5t-44.5 18.5t-18.5 44.5v0z" />
    <glyph glyph-name="ring" unicode="&#x2da;" horiz-adv-x="240" 
d="M27 673q0 38 27.5 65.5t65.5 27.5t65.5 -27.5t27.5 -65.5t-27.5 -65.5t-65.5 -27.5t-65.5 27.5t-27.5 65.5v0zM69 673q0 -21 15 -36t36 -15t36 15t15 36t-15 36t-36 15t-36 -15t-15 -36v0z" />
    <glyph glyph-name="ogonek" unicode="&#x2db;" horiz-adv-x="240" 
d="M68 0h84l-37 -58q-8 -13 -11.5 -24t-3.5 -18q0 -9 5.5 -15t14.5 -6q7 0 13 2.5t11 7.5l20 -64q-18 -9 -37 -14.5t-39 -5.5q-36 0 -57 19t-21 52q0 16 5.5 38t23.5 47l29 39v0z" />
    <glyph glyph-name="circumflex" unicode="&#x2dc;" horiz-adv-x="240" 
d="M196 602l-76 76l-76 -76h-74l96 132h108l96 -132h-74v0z" />
    <glyph glyph-name="Gamma" unicode="&#x393;" horiz-adv-x="500" 
 />
    <glyph glyph-name="Theta" unicode="&#x398;" horiz-adv-x="500" 
 />
    <glyph glyph-name="summation" unicode="&#x3a3;" horiz-adv-x="500" 
 />
    <glyph glyph-name="Phi" unicode="&#x3a6;" horiz-adv-x="500" 
 />
    <glyph glyph-name="Omega" unicode="&#x3a9;" horiz-adv-x="500" 
 />
    <glyph glyph-name="alpha" unicode="&#x3b1;" horiz-adv-x="500" 
 />
    <glyph glyph-name="delta" unicode="&#x3b4;" horiz-adv-x="500" 
 />
    <glyph glyph-name="epsilon" unicode="&#x3b5;" horiz-adv-x="500" 
 />
    <glyph glyph-name="pi" unicode="&#x3c0;" horiz-adv-x="500" 
 />
    <glyph glyph-name="sigma" unicode="&#x3c3;" 
 />
    <glyph glyph-name="tau" unicode="&#x3c4;" horiz-adv-x="500" 
 />
    <glyph glyph-name="phi" unicode="&#x3c6;" 
 />
    <glyph glyph-name="glyph276" unicode="&#x2013;" horiz-adv-x="500" 
d="M0 237v79h500v-79h-500v0z" />
    <glyph glyph-name="emdash" unicode="&#x2014;" horiz-adv-x="1000" 
d="M0 237v79h1000v-79h-1000v0z" />
    <glyph glyph-name="underscoredbl" unicode="&#x2017;" horiz-adv-x="500" 
 />
    <glyph glyph-name="quoteleft" unicode="&#x2018;" horiz-adv-x="296" 
d="M55 516l122 244l64 -31l-93 -251l-93 38v0z" />
    <glyph glyph-name="quoteright" unicode="&#x2019;" horiz-adv-x="296" 
d="M55 509l93 251l93 -38l-122 -244l-64 31v0z" />
    <glyph glyph-name="quotesinglbase" unicode="&#x201a;" horiz-adv-x="296" 
d="M37 -136l93 251l93 -38l-122 -244l-64 31v0z" />
    <glyph glyph-name="quotedblleft" unicode="&#x201c;" horiz-adv-x="520" 
d="M63 516l122 244l64 -31l-93 -251l-93 38v0zM271 516l122 244l64 -31l-93 -251l-93 38v0z" />
    <glyph glyph-name="quotedblright" unicode="&#x201d;" horiz-adv-x="520" 
d="M63 509l93 251l93 -38l-122 -244l-64 31v0zM271 509l93 251l93 -38l-122 -244l-64 31v0z" />
    <glyph glyph-name="quotedblbase" unicode="&#x201e;" horiz-adv-x="520" 
d="M52 -136l93 251l93 -38l-122 -244l-64 31v0zM260 -136l93 251l93 -38l-122 -244l-64 31v0z" />
    <glyph glyph-name="dagger" unicode="&#x2020;" horiz-adv-x="520" 
d="M215 544v216h90v-216h169v-84h-169v-574h-90v574h-169v84h169v0z" />
    <glyph glyph-name="daggerdbl" unicode="&#x2021;" horiz-adv-x="520" 
d="M215 168v310h-169v84h169v198h90v-198h169v-84h-169v-310h169v-84h-169v-198h-90v198h-169v84h169v0z" />
    <glyph glyph-name="glyph287" unicode="&#x2022;" horiz-adv-x="500" 
d="M60 380q0 79 55.5 134.5t134.5 55.5t134.5 -55.5t55.5 -134.5t-55.5 -134.5t-134.5 -55.5t-134.5 55.5t-55.5 134.5v0z" />
    <glyph glyph-name="ellipsis" unicode="&#x2026;" horiz-adv-x="1000" 
d="M101 58q0 27 19.5 46.5t46.5 19.5t46.5 -19.5t19.5 -46.5t-19.5 -46t-46.5 -19t-46.5 19t-19.5 46v0zM434 58q0 27 19.5 46.5t46.5 19.5t46.5 -19.5t19.5 -46.5t-19.5 -46t-46.5 -19t-46.5 19t-19.5 46v0zM767 58q0 27 19.5 46.5t46.5 19.5t46.5 -19.5t19.5 -46.5
t-19.5 -46t-46.5 -19t-46.5 19t-19.5 46v0z" />
    <glyph glyph-name="perthousand" unicode="&#x2030;" horiz-adv-x="1000" 
d="M77 -8l418 750h79l-418 -750h-79v0zM371 124v77q0 62 38 97.5t98 35.5q61 0 99 -35.5t38 -97.5v-77q0 -61 -38 -96t-99 -35q-60 0 -98 35t-38 96v0zM445 189v-53q0 -37 15.5 -59t46.5 -22q32 0 47.5 22t15.5 59v53q0 38 -15.5 60t-47.5 22q-31 0 -46.5 -22t-15.5 -60v0z
M720 124v77q0 62 38 97.5t98 35.5q61 0 99 -35.5t38 -97.5v-77q0 -61 -38 -96t-99 -35q-60 0 -98 35t-38 96v0zM794 189v-53q0 -37 15.5 -59t46.5 -22q32 0 47.5 22t15.5 59v53q0 38 -15.5 60t-47.5 22q-31 0 -46.5 -22t-15.5 -60v0zM7 532v77q0 62 38 97.5t98 35.5
q61 0 99 -35.5t38 -97.5v-77q0 -61 -38 -96.5t-99 -35.5q-60 0 -98 35.5t-38 96.5v0zM81 597v-53q0 -37 15.5 -59t46.5 -22q32 0 47.5 22t15.5 59v53q0 38 -15.5 60t-47.5 22q-31 0 -46.5 -22t-15.5 -60v0z" />
    <glyph glyph-name="guilsinglleft" unicode="&#x2039;" horiz-adv-x="296" 
d="M55 276l107 192h84l-112 -192l112 -192h-84l-107 192v0z" />
    <glyph glyph-name="guilsinglright" unicode="&#x203a;" horiz-adv-x="296" 
d="M162 276l-112 192h84l107 -192l-107 -192h-84l112 192v0z" />
    <glyph glyph-name="exclamdbl" unicode="&#x203c;" horiz-adv-x="500" 
 />
    <glyph glyph-name="nsuperior" unicode="&#x207f;" horiz-adv-x="500" 
 />
    <glyph glyph-name="franc" unicode="&#x20a3;" horiz-adv-x="500" 
 />
    <glyph glyph-name="peseta" unicode="&#x20a7;" horiz-adv-x="500" 
 />
    <glyph glyph-name="trademark" unicode="&#x2122;" horiz-adv-x="990" 
d="M163 348v356h-127v56h328v-56h-127v-356h-74v0zM664 456l117 304h113v-412h-74v338h-2l-129 -338h-50l-129 338h-2v-338h-74v412h113l117 -304v0z" />
    <glyph glyph-name="arrowleft" unicode="&#x2190;" 
 />
    <glyph glyph-name="arrowup" unicode="&#x2191;" 
 />
    <glyph glyph-name="arrowright" unicode="&#x2192;" horiz-adv-x="500" 
 />
    <glyph glyph-name="arrowdown" unicode="&#x2193;" 
 />
    <glyph glyph-name="arrowboth" unicode="&#x2194;" 
 />
    <glyph glyph-name="arrowupdn" unicode="&#x2195;" 
 />
    <glyph glyph-name="arrowupdnbase" unicode="&#x21a8;" 
 />
    <glyph glyph-name="partialdiff" unicode="&#x2202;" horiz-adv-x="500" 
 />
    <glyph glyph-name="Delta" unicode="&#x2206;" horiz-adv-x="500" 
 />
    <glyph glyph-name="product" unicode="&#x220f;" 
 />
    <glyph glyph-name="minus" unicode="&#x2212;" horiz-adv-x="600" 
d="M47 216v74h506v-74h-506v0z" />
    <glyph glyph-name="fraction" unicode="&#x2215;" horiz-adv-x="167" 
d="M-165 -8l418 750h79l-418 -750h-79v0z" />
    <glyph glyph-name="periodcentered" unicode="&#x2219;" 
d="M64 323q0 27 19.5 46.5t46.5 19.5t46.5 -19.5t19.5 -46.5t-19.5 -46.5t-46.5 -19.5t-46.5 19.5t-19.5 46.5v0z" />
    <glyph glyph-name="radical" unicode="&#x221a;" horiz-adv-x="500" 
 />
    <glyph glyph-name="infinity" unicode="&#x221e;" 
 />
    <glyph glyph-name="orthogonal" unicode="&#x221f;" 
 />
    <glyph glyph-name="intersection" unicode="&#x2229;" 
 />
    <glyph glyph-name="integral" unicode="&#x222b;" 
 />
    <glyph glyph-name="approxequal" unicode="&#x2248;" horiz-adv-x="500" 
 />
    <glyph glyph-name="notequal" unicode="&#x2260;" horiz-adv-x="500" 
 />
    <glyph glyph-name="equivalence" unicode="&#x2261;" 
 />
    <glyph glyph-name="lessequal" unicode="&#x2264;" horiz-adv-x="500" 
 />
    <glyph glyph-name="greaterequal" unicode="&#x2265;" horiz-adv-x="500" 
 />
    <glyph glyph-name="house" unicode="&#x2302;" 
 />
    <glyph glyph-name="revlogicalnot" unicode="&#x2310;" 
 />
    <glyph glyph-name="integraltp" unicode="&#x2320;" 
 />
    <glyph glyph-name="integralbt" unicode="&#x2321;" 
 />
    <glyph glyph-name="2500" unicode="&#x2500;" 
 />
    <glyph glyph-name="2502" unicode="&#x2502;" 
 />
    <glyph glyph-name="250c" unicode="&#x250c;" 
 />
    <glyph glyph-name="2510" unicode="&#x2510;" 
 />
    <glyph glyph-name="2514" unicode="&#x2514;" 
 />
    <glyph glyph-name="2518" unicode="&#x2518;" 
 />
    <glyph glyph-name="251c" unicode="&#x251c;" 
 />
    <glyph glyph-name="2524" unicode="&#x2524;" 
 />
    <glyph glyph-name="252c" unicode="&#x252c;" 
 />
    <glyph glyph-name="2534" unicode="&#x2534;" 
 />
    <glyph glyph-name="253c" unicode="&#x253c;" 
 />
    <glyph glyph-name="2550" unicode="&#x2550;" 
 />
    <glyph glyph-name="2551" unicode="&#x2551;" 
 />
    <glyph glyph-name="2552" unicode="&#x2552;" 
 />
    <glyph glyph-name="2553" unicode="&#x2553;" 
 />
    <glyph glyph-name="2554" unicode="&#x2554;" 
 />
    <glyph glyph-name="2555" unicode="&#x2555;" 
 />
    <glyph glyph-name="2556" unicode="&#x2556;" 
 />
    <glyph glyph-name="2557" unicode="&#x2557;" 
 />
    <glyph glyph-name="2558" unicode="&#x2558;" 
 />
    <glyph glyph-name="2559" unicode="&#x2559;" 
 />
    <glyph glyph-name="255a" unicode="&#x255a;" 
 />
    <glyph glyph-name="255b" unicode="&#x255b;" 
 />
    <glyph glyph-name="255c" unicode="&#x255c;" 
 />
    <glyph glyph-name="255d" unicode="&#x255d;" 
 />
    <glyph glyph-name="255e" unicode="&#x255e;" 
 />
    <glyph glyph-name="255f" unicode="&#x255f;" 
 />
    <glyph glyph-name="2560" unicode="&#x2560;" 
 />
    <glyph glyph-name="2561" unicode="&#x2561;" 
 />
    <glyph glyph-name="2562" unicode="&#x2562;" 
 />
    <glyph glyph-name="2563" unicode="&#x2563;" 
 />
    <glyph glyph-name="2564" unicode="&#x2564;" 
 />
    <glyph glyph-name="2565" unicode="&#x2565;" 
 />
    <glyph glyph-name="2566" unicode="&#x2566;" 
 />
    <glyph glyph-name="2567" unicode="&#x2567;" 
 />
    <glyph glyph-name="2568" unicode="&#x2568;" 
 />
    <glyph glyph-name="2569" unicode="&#x2569;" 
 />
    <glyph glyph-name="256a" unicode="&#x256a;" 
 />
    <glyph glyph-name="256b" unicode="&#x256b;" 
 />
    <glyph glyph-name="256c" unicode="&#x256c;" 
 />
    <glyph glyph-name="upblock" unicode="&#x2580;" 
 />
    <glyph glyph-name="dnblock" unicode="&#x2584;" 
 />
    <glyph glyph-name="block" unicode="&#x2588;" 
 />
    <glyph glyph-name="lfblock" unicode="&#x258c;" 
 />
    <glyph glyph-name="rtblock" unicode="&#x2590;" 
 />
    <glyph glyph-name="ltshade" unicode="&#x2591;" 
 />
    <glyph glyph-name="shade" unicode="&#x2592;" 
 />
    <glyph glyph-name="dkshade" unicode="&#x2593;" 
 />
    <glyph glyph-name="filledbox" unicode="&#x25a0;" horiz-adv-x="500" 
 />
    <glyph glyph-name="filledrect" unicode="&#x25ac;" 
 />
    <glyph glyph-name="triagup" unicode="&#x25b2;" 
 />
    <glyph glyph-name="triagrt" unicode="&#x25ba;" 
 />
    <glyph glyph-name="triagdn" unicode="&#x25bc;" 
 />
    <glyph glyph-name="triaglf" unicode="&#x25c4;" 
 />
    <glyph glyph-name="lozenge" unicode="&#x25ca;" horiz-adv-x="500" 
 />
    <glyph glyph-name="circle" unicode="&#x25cb;" 
 />
    <glyph glyph-name="invbullet" unicode="&#x25d8;" 
 />
    <glyph glyph-name="invcircle" unicode="&#x25d9;" 
 />
    <glyph glyph-name="smileface" unicode="&#x263a;" 
 />
    <glyph glyph-name="invsmileface" unicode="&#x263b;" 
 />
    <glyph glyph-name="sun" unicode="&#x263c;" 
 />
    <glyph glyph-name="female" unicode="&#x2640;" 
 />
    <glyph glyph-name="male" unicode="&#x2642;" 
 />
    <glyph glyph-name="spade" unicode="&#x2660;" 
 />
    <glyph glyph-name="club" unicode="&#x2663;" 
 />
    <glyph glyph-name="heart" unicode="&#x2665;" 
 />
    <glyph glyph-name="diamond" unicode="&#x2666;" 
 />
    <glyph glyph-name="musicalnote" unicode="&#x266a;" 
 />
    <glyph glyph-name="musicalnotedbl" unicode="&#x266b;" 
 />
    <glyph glyph-name="apple" unicode="&#xf000;" 
 />
    <glyph glyph-name="fi" unicode="&#xf001;" horiz-adv-x="519" 
d="M98 521v79q0 82 50.5 122t128.5 44v-90h-18q-34 0 -52.5 -24t-18.5 -59v-72h85v-79h-85v-442h-90v442h-79v79h79v0zM354 0v521h90v-521h-90v0zM336 686q0 26 18.5 44.5t44.5 18.5t44.5 -18.5t18.5 -44.5t-18.5 -44.5t-44.5 -18.5t-44.5 18.5t-18.5 44.5v0z" />
    <glyph glyph-name="fl" unicode="&#xf002;" horiz-adv-x="519" 
d="M95 521v79q0 82 50.5 122t127.5 44v-90h-17q-34 0 -52.5 -24t-18.5 -59v-72h88v-79h-85v-442h-90v442h-79v79h76v0zM354 156v604h90v-597q0 -44 18 -61.5t40 -17.5h27v-84h-37q-62 0 -100 37t-38 119v0z" />
    <glyph glyph-name="degree" horiz-adv-x="400" 
d="M57 599q0 59 42 101t101 42t101 -42t42 -101t-42 -101t-101 -42t-101 42t-42 101v0zM107 599q0 -38 27.5 -65.5t65.5 -27.5t65.5 27.5t27.5 65.5t-27.5 65.5t-65.5 27.5t-65.5 -27.5t-27.5 -65.5v0z" />
    <glyph glyph-name="bullet" horiz-adv-x="500" 
d="M60 380q0 79 55.5 134.5t134.5 55.5t134.5 -55.5t55.5 -134.5t-55.5 -134.5t-134.5 -55.5t-134.5 55.5t-55.5 134.5v0z" />
    <glyph glyph-name="endash" horiz-adv-x="500" 
d="M0 237v79h500v-79h-500v0z" />
    </font>
</defs>
</svg>
