<?xml version="1.0" standalone="no"?>
<!DOCTYPE svg PUBLIC "-//W3C//DTD SVG 1.1//EN" "http://www.w3.org/Graphics/SVG/1.1/DTD/svg11.dtd" >
<svg>
<metadata>
Created by FontForge 20110222 at Sat Sep 20 10:34:23 2014
 By Orthosie Webhosting
(c) 1999-2010 Ray Larabie.This font is not freely distributable. See attached license agreement for more information.
</metadata>
<defs>
<font id="EthnocentricRegular" horiz-adv-x="1135" >
  <font-face 
    font-family="EthnocentricRegular"
    font-weight="400"
    font-stretch="normal"
    units-per-em="1000"
    panose-1="2 0 6 0 0 0 0 0 0 0"
    ascent="800"
    descent="-200"
    x-height="669"
    cap-height="669"
    bbox="-165 -255 1897 945"
    underline-thickness="20"
    underline-position="-123"
    unicode-range="U+0017-F8FF"
  />
<missing-glyph horiz-adv-x="725" 
d="M121 -155q-92 0 -92 79v841q0 80 92 80h483q92 0 92 -80v-841q0 -79 -92 -79h-483zM332 270q6 0 18 -3.5t29.5 -7.5t39.5 -7.5t48 -3.5q42 0 76.5 15.5t59.5 43t38.5 64.5t13.5 80q0 32 -13 64.5t-42 61.5t-75 54.5t-112 44.5l-82 23l-194 -157l244 -69q21 -6 32 -14
t11 -22q0 -37 -31 -37q-18 0 -35.5 4.5t-35.5 10t-36 10t-37 4.5q-42 0 -67.5 -22.5t-36.5 -63.5l-11 -42l186 -54l3 13q1 10 9 10zM210 -3q23 0 43 8.5t34.5 23.5t23 35t8.5 44t-10.5 46t-29.5 38.5t-44 26t-55 9.5q-21 0 -40.5 -7t-34.5 -21.5t-24.5 -35.5t-9.5 -49
q0 -25 11 -46.5t30 -37.5t44 -25t54 -9z" />
    <glyph glyph-name=".notdef" horiz-adv-x="725" 
d="M121 -155q-92 0 -92 79v841q0 80 92 80h483q92 0 92 -80v-841q0 -79 -92 -79h-483zM332 270q6 0 18 -3.5t29.5 -7.5t39.5 -7.5t48 -3.5q42 0 76.5 15.5t59.5 43t38.5 64.5t13.5 80q0 32 -13 64.5t-42 61.5t-75 54.5t-112 44.5l-82 23l-194 -157l244 -69q21 -6 32 -14
t11 -22q0 -37 -31 -37q-18 0 -35.5 4.5t-35.5 10t-36 10t-37 4.5q-42 0 -67.5 -22.5t-36.5 -63.5l-11 -42l186 -54l3 13q1 10 9 10zM210 -3q23 0 43 8.5t34.5 23.5t23 35t8.5 44t-10.5 46t-29.5 38.5t-44 26t-55 9.5q-21 0 -40.5 -7t-34.5 -21.5t-24.5 -35.5t-9.5 -49
q0 -25 11 -46.5t30 -37.5t44 -25t54 -9z" />
    <glyph glyph-name=".null" horiz-adv-x="0" 
 />
    <glyph glyph-name="nonmarkingreturn" horiz-adv-x="383" 
 />
    <glyph glyph-name="uni0017" horiz-adv-x="383" 
 />
    <glyph glyph-name="space" unicode=" " horiz-adv-x="383" 
 />
    <glyph glyph-name="exclam" unicode="!" horiz-adv-x="325" 
d="M266 669v-223l-23 -197h-162l-22 197v223h207zM52 85q0 47 32.5 72.5t80.5 25.5q47 0 79.5 -25.5t32.5 -72.5q0 -46 -32.5 -71t-79.5 -25q-48 0 -80.5 25t-32.5 71z" />
    <glyph glyph-name="quotedbl" unicode="&#x22;" horiz-adv-x="446" 
d="M202 669l-61 -268h-63l-61 268h185zM429 669l-61 -268h-63l-61 268h185z" />
    <glyph glyph-name="numbersign" unicode="#" horiz-adv-x="669" 
d="M651 531l-44 -144h-105l-27 -85h106l-44 -143h-105l-49 -159h-114l49 159h-78l-48 -159h-113l48 159h-98l45 143h97l26 85h-97l45 144h96l43 138h113l-42 -138h77l42 138h114l-43 -138h106zM388 387h-78l-25 -85h77z" />
    <glyph glyph-name="dollar" unicode="$" horiz-adv-x="677" 
d="M384 580h241l-95 -123h-146v-65h76q86 0 131.5 -32.5t45.5 -97.5q0 -72 -47.5 -113t-155.5 -41h-50v-108h-82v108h-267l95 121h172v68h-73q-91 0 -134 37.5t-43 98.5q0 67 47.5 107t155.5 40h47v89h82v-89zM384 297v-68h62q50 0 50 34q0 19 -12 26.5t-38 7.5h-62z
M302 392v65h-59q-26 0 -38 -7t-12 -25q0 -19 12 -26t38 -7h59z" />
    <glyph glyph-name="percent" unicode="%" horiz-adv-x="1007" 
d="M256 692q107 0 160 -41t53 -131q0 -91 -53 -132t-160 -41q-108 0 -161 41t-53 132q0 90 53 131t161 41zM256 434q30 0 51.5 3.5t34.5 12.5t19 26t6 44t-6 43.5t-19 26t-34.5 12.5t-51.5 3q-31 0 -52 -3t-34.5 -12.5t-19.5 -26t-6 -43.5t6 -44t19.5 -26t34.5 -12.5
t52 -3.5zM811 706l-533 -744h-91l540 744h84zM752 330q107 0 160 -41t53 -131q0 -91 -53 -132t-160 -41q-108 0 -161 41t-53 132q0 90 53 131t161 41zM752 72q30 0 51.5 3.5t34.5 12.5t19 26t6 44t-6 43.5t-19 26t-34.5 12.5t-51.5 3q-31 0 -52 -3t-34.5 -12.5t-19.5 -26
t-6 -43.5t6 -44t19.5 -26t34.5 -12.5t52 -3.5z" />
    <glyph glyph-name="ampersand" unicode="&#x26;" horiz-adv-x="873" 
d="M732 0h-419q-79 0 -131.5 15t-83.5 41t-43.5 61.5t-12.5 77.5q0 60 30 98t75 51q-18 6 -34.5 17.5t-29 29t-20.5 40.5t-8 53q0 46 18.5 80.5t53 58t83 35t108.5 11.5h280l-133 -174h-156q-22 0 -39.5 -9t-17.5 -34q0 -26 17 -35.5t40 -9.5h543l-107 -143h-110v-92h229z
M248 219q0 -47 64 -47h156v92h-156q-64 0 -64 -45z" />
    <glyph glyph-name="quotesingle" unicode="'" horiz-adv-x="219" 
d="M202 669l-61 -268h-63l-61 268h185z" />
    <glyph glyph-name="parenleft" unicode="(" horiz-adv-x="351" 
d="M309 793q-61 -137 -90.5 -248t-29.5 -212q0 -100 27.5 -212.5t92.5 -249.5h-112q-58 127 -84 239.5t-26 223.5q0 112 26.5 223t81.5 236h114z" />
    <glyph glyph-name="parenright" unicode=")" horiz-adv-x="351" 
d="M156 793q55 -125 81.5 -236t26.5 -223q0 -111 -26 -223.5t-84 -239.5h-112q63 138 91.5 250t28.5 212q0 101 -29.5 212t-89.5 248h113z" />
    <glyph glyph-name="asterisk" unicode="*" horiz-adv-x="464" 
d="M69 580l120 -39v128h86v-128l122 40l25 -81l-120 -40l75 -103l-69 -49l-76 102l-75 -103l-68 51l74 102l-121 40z" />
    <glyph glyph-name="plus" unicode="+" horiz-adv-x="629" 
d="M588 284h-218v-218h-112v218h-216v112h216v216h112v-216h218v-112z" />
    <glyph glyph-name="comma" unicode="," horiz-adv-x="291" 
d="M261 172l-98 -268h-115v268h213z" />
    <glyph glyph-name="hyphen" unicode="-" horiz-adv-x="464" 
d="M450 403l-101 -129h-334l101 129h334z" />
    <glyph glyph-name="period" unicode="." horiz-adv-x="309" 
d="M42 85q0 47 32.5 72.5t79.5 25.5q48 0 80.5 -25.5t32.5 -72.5q0 -46 -32.5 -71t-80.5 -25q-47 0 -79.5 25t-32.5 71z" />
    <glyph glyph-name="slash" unicode="/" horiz-adv-x="472" 
d="M472 706l-343 -744h-129l350 744h122z" />
    <glyph glyph-name="zero" unicode="0" horiz-adv-x="938" 
d="M469 680q213 0 320 -83t107 -262q0 -180 -106.5 -263t-320.5 -83t-320.5 83t-106.5 263q0 179 107 262t320 83zM469 163q61 0 104 6.5t69 25.5t38 52.5t12 87.5t-12 87.5t-38 52t-69 25t-104 6.5q-62 0 -104.5 -6.5t-68.5 -25t-38 -52t-12 -87.5t12 -87.5t38 -52.5
t68.5 -25.5t104.5 -6.5z" />
    <glyph glyph-name="one" unicode="1" horiz-adv-x="446" 
d="M137 669h245v-669h-207v495h-163z" />
    <glyph glyph-name="two" unicode="2" horiz-adv-x="935" 
d="M209 669h392q76 0 130.5 -15t89 -42t51 -65.5t16.5 -85.5q0 -43 -15 -78.5t-46 -60.5t-78.5 -39t-111.5 -14h-318q-36 0 -53.5 -11t-17.5 -37v-49h645l-133 -172h-712v219q0 92 64 137.5t187 45.5h318q36 0 53.5 10.5t17.5 36.5t-17.5 36t-53.5 10h-541z" />
    <glyph glyph-name="three" unicode="3" horiz-adv-x="911" 
d="M141 172h458q34 0 49 12t15 35q0 22 -15 33.5t-49 11.5h-401l107 143h297q23 0 40.5 9.5t17.5 35.5q0 25 -18 34t-40 9h-560l133 174h418q60 0 108.5 -11.5t83 -35t53 -58t18.5 -80.5q0 -30 -8 -53t-20.5 -40.5t-29 -29t-33.5 -17.5q44 -13 74.5 -51t30.5 -98
q0 -42 -13 -77.5t-44 -61.5t-83.5 -41t-131.5 -15h-589z" />
    <glyph glyph-name="four" unicode="4" horiz-adv-x="960" 
d="M129 80q-23 0 -41.5 7.5t-31.5 20t-20 28.5t-7 34q0 21 10 42t33 40l483 392q25 20 50.5 28t43.5 8q22 0 43 -7t36.5 -22t25 -39t9.5 -57v-311h191l-121 -164h-70v-80h-198v80h-436zM565 344q0 30 1 50t3 37q-24 -24 -73 -64l-74 -59q-28 -23 -49.5 -39.5t-40.5 -28.5
q21 2 49 3t65 1h119v100z" />
    <glyph glyph-name="five" unicode="5" horiz-adv-x="899" 
d="M834 669l-134 -174h-418v-93h325q122 0 186 -45.5t64 -137.5q0 -103 -67 -161t-219 -58h-529l133 172h412q36 0 53.5 11.5t17.5 37.5t-17.5 37t-53.5 11h-510v400h757z" />
    <glyph glyph-name="six" unicode="6" horiz-adv-x="971" 
d="M435 495q-62 0 -109 -25t-70 -68h423q114 0 182 -47t68 -138q0 -69 -35 -113.5t-93 -70t-133.5 -35t-156.5 -9.5q-231 0 -350 84.5t-119 267.5q0 73 30.5 133.5t84 104t127.5 67t161 23.5h431l-133 -174h-308zM256 269q9 -33 30 -54t54 -32.5t78.5 -15.5t104.5 -4
q64 0 105.5 4t64.5 11.5t32 19t9 25.5q0 46 -71 46h-407z" />
    <glyph glyph-name="seven" unicode="7" horiz-adv-x="845" 
d="M374 0h-261l328 369q26 29 44.5 50t33 36t25 25.5t20.5 19.5q-14 -1 -30.5 -2t-38.5 -1.5t-51.5 -1t-68.5 -0.5h-363l132 174h578q57 0 85.5 -26.5t28.5 -62.5q0 -18 -7.5 -37t-25.5 -40z" />
    <glyph glyph-name="eight" unicode="8" horiz-adv-x="953" 
d="M313 0q-79 0 -131.5 15t-83.5 41t-43.5 61.5t-12.5 77.5q0 60 30 98t75 51q-18 6 -34.5 17.5t-29 29t-20.5 40.5t-8 53q0 46 18.5 80.5t53 58t83 35t108.5 11.5h317q60 0 108.5 -11.5t83 -35t53 -58t18.5 -80.5q0 -30 -8 -53t-20.5 -40.5t-29 -29t-34.5 -17.5
q45 -13 75 -51t30 -98q0 -42 -12.5 -77.5t-43.5 -61.5t-83.5 -41t-131.5 -15h-327zM312 264q-64 0 -64 -45q0 -47 64 -47h329q64 0 64 47q0 45 -64 45h-329zM309 495q-22 0 -39.5 -9t-17.5 -34q0 -26 17 -35.5t40 -9.5h335q23 0 40 9.5t17 35.5q0 25 -17.5 34t-39.5 9h-335z
" />
    <glyph glyph-name="nine" unicode="9" horiz-adv-x="971" 
d="M536 172q68 0 112.5 32.5t66.5 77.5q-18 -3 -40.5 -5.5t-66 -5t-118.5 -3.5t-198 -1q-114 0 -182 47t-68 138q0 69 35 113t93 69.5t133.5 35.5t156.5 10q232 0 350.5 -81.5t118.5 -249.5q0 -81 -30.5 -146t-84 -110t-127.5 -69t-161 -24h-422l134 172h298zM308 400
q77 0 132.5 0.5t96 1t67.5 1t47 1.5t34.5 2.5t29.5 3.5q-8 32 -28.5 51t-54 29t-80 13t-104.5 3q-65 0 -106 -4t-64 -11.5t-32 -18.5t-9 -26q0 -46 71 -46z" />
    <glyph glyph-name="colon" unicode=":" horiz-adv-x="368" 
d="M68 85q0 47 32.5 72.5t80.5 25.5q47 0 79.5 -25.5t32.5 -72.5q0 -46 -32.5 -71t-79.5 -25q-48 0 -80.5 25t-32.5 71zM68 409q0 46 32.5 71.5t80.5 25.5q47 0 79.5 -25.5t32.5 -71.5q0 -47 -32.5 -72t-79.5 -25q-48 0 -80.5 25t-32.5 72z" />
    <glyph glyph-name="semicolon" unicode=";" horiz-adv-x="309" 
d="M271 172l-99 -268h-114v268h213zM46 409q0 46 33 71.5t80 25.5t80 -25.5t33 -71.5q0 -47 -33 -72t-80 -25t-80 25t-33 72z" />
    <glyph glyph-name="less" unicode="&#x3c;" horiz-adv-x="611" 
d="M570 54l-492 230q-19 8 -27.5 22.5t-8.5 30.5q0 17 8.5 31t27.5 23l492 230v-122l-349 -162l349 -161v-122z" />
    <glyph glyph-name="equal" unicode="=" horiz-adv-x="629" 
d="M588 151h-546v112h546v-112zM588 416h-546v112h546v-112z" />
    <glyph glyph-name="greater" unicode="&#x3e;" horiz-adv-x="611" 
d="M42 176l349 161l-349 162v122l492 -230q18 -9 27 -23t9 -31q0 -16 -9 -30.5t-27 -22.5l-492 -230v122z" />
    <glyph glyph-name="question" unicode="?" horiz-adv-x="743" 
d="M146 669h284q76 0 130.5 -15t89 -42t50.5 -65.5t16 -85.5q0 -43 -15 -78.5t-45.5 -60.5t-78 -39t-111.5 -14h-101q-20 0 -20 -16v-4h-171v21q0 63 35.5 97.5t121.5 34.5h115q36 0 53.5 10.5t17.5 36.5t-17.5 36t-53.5 10h-434zM155 85q0 47 32.5 72.5t80.5 25.5
q47 0 79.5 -25.5t32.5 -72.5q0 -46 -32.5 -71t-79.5 -25q-48 0 -80.5 25t-32.5 71z" />
    <glyph glyph-name="at" unicode="@" horiz-adv-x="912" 
d="M850 180h-427q-36 0 -65.5 12t-50.5 32.5t-32.5 48.5t-11.5 60t11 59.5t32 48t50.5 32.5t66.5 12h220v-211h73v284h-269q-58 0 -108 -16t-86.5 -45t-57 -70t-20.5 -90q0 -50 20.5 -91.5t56.5 -71.5t86 -46.5t109 -16.5h300l86 -111h-386q-89 0 -163 23.5t-128 66t-84 103
t-30 134.5q0 73 31 136t85 108.5t128 71.5t161 26h403v-489zM527 274v125h-67q-32 0 -52.5 -18t-20.5 -44q0 -29 20.5 -46t52.5 -17h67z" />
    <glyph glyph-name="A" unicode="A" 
d="M346 0l125 172h168h62.5t56.5 -2q-14 18 -32.5 45.5t-35.5 51.5l-120 177l-314 -444h-245l429 605q21 29 53 52t81 23q47 0 78.5 -21.5t53.5 -53.5l418 -605h-778z" />
    <glyph glyph-name="B" unicode="B" horiz-adv-x="964" 
d="M818 344q44 -13 74.5 -51t30.5 -98q0 -42 -13 -77.5t-44 -61.5t-83.5 -41t-131.5 -15h-588v407h592q23 0 40.5 9.5t17.5 35.5q0 25 -18 34t-40 9h-592l140 174h443q60 0 108.5 -11.5t83 -35t53 -58t18.5 -80.5q0 -30 -8 -53t-20.5 -40.5t-29 -29t-33.5 -17.5zM271 264
v-92h381q34 0 49 12t15 35q0 22 -15 33.5t-49 11.5h-381z" />
    <glyph glyph-name="C" unicode="C" horiz-adv-x="923" 
d="M914 172l-133 -172h-336q-87 0 -161 26t-127.5 71.5t-84 108t-30.5 135.5t30.5 133.5t84 104t127.5 67t161 23.5h469l-133 -174h-336q-42 0 -78 -12t-62 -33.5t-41 -51.5t-15 -66t14.5 -65.5t41 -50.5t62.5 -32.5t78 -11.5h469z" />
    <glyph glyph-name="D" unicode="D" horiz-adv-x="956" 
d="M914 341q0 -73 -30.5 -135.5t-84 -108t-127.5 -71.5t-161 -26h-448v417h208v-245h240q43 0 79.5 11.5t62.5 32.5t41 50.5t15 65.5q0 35 -15 65t-42 51.5t-63 34t-78 12.5h-448l132 174h316q88 0 162 -24t127.5 -67.5t83.5 -104t30 -132.5z" />
    <glyph glyph-name="E" unicode="E" horiz-adv-x="848" 
d="M840 172l-133 -172h-644v669h775l-134 -174h-433v-80h530l-119 -152h-411v-91h569z" />
    <glyph glyph-name="F" unicode="F" horiz-adv-x="820" 
d="M813 669l-134 -174h-408v-87h504l-126 -163h-378v-245h-208v669h750z" />
    <glyph glyph-name="G" unicode="G" horiz-adv-x="960" 
d="M476 418h428v-418h-459q-87 0 -161 26t-127.5 71.5t-84 108t-30.5 135.5t30.5 133.5t84 104t127.5 67t161 23.5h479l-134 -174h-345q-42 0 -78 -12t-62.5 -34t-41.5 -51.5t-15 -65.5t14.5 -65.5t41 -50.5t62.5 -32.5t79 -11.5h253v97h-346z" />
    <glyph glyph-name="H" unicode="H" horiz-adv-x="939" 
d="M875 0h-206v258h-398v-258h-208v669h208v-237h398v237h206v-669z" />
    <glyph glyph-name="I" unicode="I" horiz-adv-x="339" 
d="M273 0h-207v669h207v-669z" />
    <glyph glyph-name="J" unicode="J" horiz-adv-x="732" 
d="M261 172q59 0 99.5 7t65 23t35 41t10.5 61v365h208v-365q0 -304 -418 -304h-250l135 172h115z" />
    <glyph glyph-name="K" unicode="K" horiz-adv-x="912" 
d="M907 0h-313l-202 176q-52 45 -79.5 70t-44.5 42q1 -23 2 -47.5t1 -48.5v-192h-208v669h208v-155q0 -31 -1 -61t-3 -56q20 18 48.5 44.5t74.5 64.5l193 163h300l-256 -192q-33 -25 -58.5 -44t-45.5 -33t-36.5 -25t-32.5 -21q29 -20 70 -50t106 -83z" />
    <glyph glyph-name="L" unicode="L" horiz-adv-x="794" 
d="M788 172l-134 -172h-591v669h207v-497h518z" />
    <glyph glyph-name="M" unicode="M" horiz-adv-x="1259" 
d="M525 420q22 -39 38.5 -68.5t29 -52.5t22 -42l18.5 -37q8 18 17.5 36.5t22 42t29 52.5t38.5 68l107 190q18 32 45.5 51.5t68.5 19.5q39 0 70.5 -22.5t45.5 -69.5l169 -588h-206l-63 233q-16 57 -27 100t-19 84q-17 -35 -38 -77.5t-55 -107.5l-90 -168q-13 -25 -26.5 -39.5
t-27.5 -22.5t-30 -10.5t-35 -2.5t-35 2.5t-30 10.5t-27.5 22.5t-26.5 39.5l-90 169q-18 34 -32 61t-25.5 48.5t-20 39.5t-16.5 35q-8 -40 -19 -83.5t-26 -100.5l-63 -233h-203l173 588q14 47 46 69.5t71 22.5q40 0 67.5 -19t45.5 -52z" />
    <glyph glyph-name="N" unicode="N" horiz-adv-x="914" 
d="M741 -11q-20 0 -39.5 6.5t-43.5 29.5l-410 368v-393h-188v555q0 33 9.5 57t25 39t36 22t42.5 7q19 0 38.5 -6.5t44.5 -29.5l410 -368v393h189v-554q0 -33 -9.5 -57t-25 -39.5t-36.5 -22.5t-43 -7z" />
    <glyph glyph-name="O" unicode="O" horiz-adv-x="1062" 
d="M531 680q244 0 366.5 -83t122.5 -262q0 -180 -122 -263t-367 -83q-246 0 -367.5 83t-121.5 263q0 179 122 262t367 83zM531 163q78 0 132 6.5t87.5 25.5t48.5 52.5t15 87.5t-15 87.5t-48.5 52t-87.5 25t-132 6.5t-132 -6.5t-87.5 -25t-48.5 -52t-15 -87.5t15 -87.5
t48.5 -52.5t87.5 -25.5t132 -6.5z" />
    <glyph glyph-name="P" unicode="P" horiz-adv-x="988" 
d="M946 418q0 -56 -22 -101.5t-64.5 -77.5t-103.5 -50t-139 -18h-350v-171h-206v342h576q48 0 74.5 21t26.5 56t-26.5 55.5t-74.5 20.5h-576l137 174h420q78 0 139 -18.5t103 -51.5t64 -79t22 -102z" />
    <glyph glyph-name="Q" unicode="Q" horiz-adv-x="1062" 
d="M1032 0h-586q-85 0 -159 21.5t-128.5 63.5t-85.5 104.5t-31 145.5q0 179 122 262t367 83q244 0 366.5 -83t122.5 -262q0 -65 -29 -112h-222q24 18 34.5 46t10.5 66q0 54 -15 87.5t-48.5 52t-87.5 25t-132 6.5t-132 -6.5t-87.5 -25t-48.5 -52t-15 -87.5q0 -47 13.5 -78
t39 -50t62.5 -27t83 -8h43q20 0 41.5 -0.5t39.5 -2.5q-15 10 -35 24t-37 28l-85 66h270z" />
    <glyph glyph-name="R" unicode="R" horiz-adv-x="1023" 
d="M1012 0h-277l-149 177h-318v-177h-207v342h582q48 0 81 20t33 55q0 39 -30 58.5t-84 19.5h-582l135 174h430q57 0 118 -10.5t111 -37.5t82.5 -73t32.5 -118q0 -39 -12 -74t-34.5 -63t-55 -47.5t-73.5 -27.5q17 -13 38 -33t56 -55z" />
    <glyph glyph-name="S" unicode="S" horiz-adv-x="963" 
d="M683 402q123 0 187 -45.5t64 -137.5q0 -51 -16 -92t-51 -69t-89.5 -43t-130.5 -15h-623l133 172h506q37 0 54 11.5t17 37.5t-17 37t-54 11h-364q-65 0 -112 14t-78 39t-46 60.5t-15 78.5q0 47 16.5 85.5t51 65.5t89 42t130.5 15h581l-133 -174h-464q-36 0 -53.5 -10
t-17.5 -36t17.5 -36.5t53.5 -10.5h364z" />
    <glyph glyph-name="T" unicode="T" horiz-adv-x="894" 
d="M894 669l-134 -174h-239v-495h-207v495h-314l134 174h760z" />
    <glyph glyph-name="U" unicode="U" horiz-adv-x="986" 
d="M932 292q0 -303 -417 -303q-121 0 -208 19t-143.5 57t-83 94.5t-26.5 132.5v377h206v-377q0 -37 10 -62t37.5 -40.5t77.5 -22t130 -6.5q60 0 100 7t64 23t34.5 41t10.5 60v377h208v-377z" />
    <glyph glyph-name="V" unicode="V" 
d="M265 669l301 -444l314 444h244l-428 -605q-22 -29 -54 -52t-80 -23q-47 0 -78.5 21.5t-53.5 53.5l-419 605h254z" />
    <glyph glyph-name="W" unicode="W" horiz-adv-x="1260" 
d="M734 249q-22 39 -38 68.5t-29 53t-22.5 42.5l-18.5 37q-8 -18 -17.5 -37t-22 -42.5t-28.5 -52.5t-38 -68l-107 -190q-18 -32 -45.5 -51.5t-68.5 -19.5q-39 0 -70.5 22.5t-45.5 69.5l-170 588h207l63 -233q16 -57 26.5 -100t18.5 -84q16 35 37.5 77.5t56.5 107.5l90 168
q13 25 26 39.5t27.5 22.5t30.5 10.5t34 2.5q19 0 35 -2.5t30.5 -10.5t28 -22.5t26.5 -39.5l89 -169q19 -35 33 -61.5t25 -48t19.5 -39.5t16.5 -35q8 40 19.5 84t26.5 100l63 233h202l-173 -588q-14 -47 -45.5 -69.5t-70.5 -22.5q-40 0 -67.5 19t-46.5 52z" />
    <glyph glyph-name="X" unicode="X" horiz-adv-x="1040" 
d="M1013 669l-211 -193q-35 -32 -59 -53.5t-41 -36t-28.5 -24t-20.5 -16.5q9 -6 20 -15t29 -25.5t45 -41.5t68 -63l214 -201h-292l-228 221l-235 -221h-257l218 201q38 35 64 58.5t43 38.5t28.5 24t20.5 16q-9 7 -20 15.5t-28 24t-43 39t-65 60.5l-205 192h287l213 -208
l215 208h268z" />
    <glyph glyph-name="Y" unicode="Y" horiz-adv-x="1028" 
d="M1021 669l-397 -448v-221h-208v222l-408 447h266l160 -186q8 -9 21 -23.5t27 -30.5t26 -30t17 -21q10 14 29 38t55 68l152 185h260z" />
    <glyph glyph-name="Z" unicode="Z" horiz-adv-x="899" 
d="M766 0h-634q-39 0 -67.5 21.5t-28.5 62.5q0 23 12 44.5t33 38.5l244 192q42 33 72 56.5t52 40t36.5 26.5t23.5 17q-14 -1 -32.5 -2t-46 -1.5t-64.5 -0.5h-87h-268l132 174h617q39 0 67.5 -21.5t28.5 -62.5q0 -23 -12 -44.5t-33 -37.5l-247 -196q-41 -33 -71 -56
t-51.5 -39.5t-35.5 -26.5t-24 -17q12 1 40.5 1.5t65.5 1t79 1t81 0.5h243z" />
    <glyph glyph-name="bracketleft" unicode="[" horiz-adv-x="318" 
d="M271 672h-71v-681h71v-120h-192v922h192v-121z" />
    <glyph glyph-name="backslash" unicode="\" horiz-adv-x="472" 
d="M121 706l351 -744h-129l-343 744h121z" />
    <glyph glyph-name="bracketright" unicode="]" horiz-adv-x="319" 
d="M238 -129h-191v120h71v681h-71v121h191v-922z" />
    <glyph glyph-name="asciicircum" unicode="^" horiz-adv-x="573" 
d="M527 296h-135l-104 259l-104 -259h-140l160 373h163z" />
    <glyph glyph-name="underscore" unicode="_" horiz-adv-x="674" 
d="M679 -132h-679v90h679v-90z" />
    <glyph glyph-name="grave" unicode="`" horiz-adv-x="393" 
d="M317 715l-298 39v113l298 -69v-83z" />
    <glyph glyph-name="a" unicode="a" 
d="M346 0l125 172h168h62.5t56.5 -2q-14 18 -32.5 45.5t-35.5 51.5l-120 177l-314 -444h-245l429 605q21 29 53 52t81 23q47 0 78.5 -21.5t53.5 -53.5l418 -605h-778z" />
    <glyph glyph-name="b" unicode="b" horiz-adv-x="964" 
d="M818 344q44 -13 74.5 -51t30.5 -98q0 -42 -13 -77.5t-44 -61.5t-83.5 -41t-131.5 -15h-588v407h592q23 0 40.5 9.5t17.5 35.5q0 25 -18 34t-40 9h-592l140 174h443q60 0 108.5 -11.5t83 -35t53 -58t18.5 -80.5q0 -30 -8 -53t-20.5 -40.5t-29 -29t-33.5 -17.5zM271 264
v-92h381q34 0 49 12t15 35q0 22 -15 33.5t-49 11.5h-381z" />
    <glyph glyph-name="c" unicode="c" horiz-adv-x="923" 
d="M914 172l-133 -172h-336q-87 0 -161 26t-127.5 71.5t-84 108t-30.5 135.5t30.5 133.5t84 104t127.5 67t161 23.5h469l-133 -174h-336q-42 0 -78 -12t-62 -33.5t-41 -51.5t-15 -66t14.5 -65.5t41 -50.5t62.5 -32.5t78 -11.5h469z" />
    <glyph glyph-name="d" unicode="d" horiz-adv-x="956" 
d="M914 341q0 -73 -30.5 -135.5t-84 -108t-127.5 -71.5t-161 -26h-448v417h208v-245h240q43 0 79.5 11.5t62.5 32.5t41 50.5t15 65.5q0 35 -15 65t-42 51.5t-63 34t-78 12.5h-448l132 174h316q88 0 162 -24t127.5 -67.5t83.5 -104t30 -132.5z" />
    <glyph glyph-name="e" unicode="e" horiz-adv-x="848" 
d="M840 172l-133 -172h-644v669h775l-134 -174h-433v-80h530l-119 -152h-411v-91h569z" />
    <glyph glyph-name="f" unicode="f" horiz-adv-x="820" 
d="M813 669l-134 -174h-408v-87h504l-126 -163h-378v-245h-208v669h750z" />
    <glyph glyph-name="g" unicode="g" horiz-adv-x="960" 
d="M476 418h428v-418h-459q-87 0 -161 26t-127.5 71.5t-84 108t-30.5 135.5t30.5 133.5t84 104t127.5 67t161 23.5h479l-134 -174h-345q-42 0 -78 -12t-62.5 -34t-41.5 -51.5t-15 -65.5t14.5 -65.5t41 -50.5t62.5 -32.5t79 -11.5h253v97h-346z" />
    <glyph glyph-name="h" unicode="h" horiz-adv-x="939" 
d="M875 0h-206v258h-398v-258h-208v669h208v-237h398v237h206v-669z" />
    <glyph glyph-name="i" unicode="i" horiz-adv-x="339" 
d="M273 0h-207v669h207v-669z" />
    <glyph glyph-name="j" unicode="j" horiz-adv-x="732" 
d="M261 172q59 0 99.5 7t65 23t35 41t10.5 61v365h208v-365q0 -304 -418 -304h-250l135 172h115z" />
    <glyph glyph-name="k" unicode="k" horiz-adv-x="912" 
d="M907 0h-313l-202 176q-52 45 -79.5 70t-44.5 42q1 -23 2 -47.5t1 -48.5v-192h-208v669h208v-155q0 -31 -1 -61t-3 -56q20 18 48.5 44.5t74.5 64.5l193 163h300l-256 -192q-33 -25 -58.5 -44t-45.5 -33t-36.5 -25t-32.5 -21q29 -20 70 -50t106 -83z" />
    <glyph glyph-name="l" unicode="l" horiz-adv-x="794" 
d="M788 172l-134 -172h-591v669h207v-497h518z" />
    <glyph glyph-name="m" unicode="m" horiz-adv-x="1259" 
d="M525 420q22 -39 38.5 -68.5t29 -52.5t22 -42l18.5 -37q8 18 17.5 36.5t22 42t29 52.5t38.5 68l107 190q18 32 45.5 51.5t68.5 19.5q39 0 70.5 -22.5t45.5 -69.5l169 -588h-206l-63 233q-16 57 -27 100t-19 84q-17 -35 -38 -77.5t-55 -107.5l-90 -168q-13 -25 -26.5 -39.5
t-27.5 -22.5t-30 -10.5t-35 -2.5t-35 2.5t-30 10.5t-27.5 22.5t-26.5 39.5l-90 169q-18 34 -32 61t-25.5 48.5t-20 39.5t-16.5 35q-8 -40 -19 -83.5t-26 -100.5l-63 -233h-203l173 588q14 47 46 69.5t71 22.5q40 0 67.5 -19t45.5 -52z" />
    <glyph glyph-name="n" unicode="n" horiz-adv-x="914" 
d="M741 -11q-20 0 -39.5 6.5t-43.5 29.5l-410 368v-393h-188v555q0 33 9.5 57t25 39t36 22t42.5 7q19 0 38.5 -6.5t44.5 -29.5l410 -368v393h189v-554q0 -33 -9.5 -57t-25 -39.5t-36.5 -22.5t-43 -7z" />
    <glyph glyph-name="o" unicode="o" horiz-adv-x="1062" 
d="M531 680q244 0 366.5 -83t122.5 -262q0 -180 -122 -263t-367 -83q-246 0 -367.5 83t-121.5 263q0 179 122 262t367 83zM531 163q78 0 132 6.5t87.5 25.5t48.5 52.5t15 87.5t-15 87.5t-48.5 52t-87.5 25t-132 6.5t-132 -6.5t-87.5 -25t-48.5 -52t-15 -87.5t15 -87.5
t48.5 -52.5t87.5 -25.5t132 -6.5z" />
    <glyph glyph-name="p" unicode="p" horiz-adv-x="988" 
d="M946 418q0 -56 -22 -101.5t-64.5 -77.5t-103.5 -50t-139 -18h-350v-171h-206v342h576q48 0 74.5 21t26.5 56t-26.5 55.5t-74.5 20.5h-576l137 174h420q78 0 139 -18.5t103 -51.5t64 -79t22 -102z" />
    <glyph glyph-name="q" unicode="q" horiz-adv-x="1062" 
d="M1032 0h-586q-85 0 -159 21.5t-128.5 63.5t-85.5 104.5t-31 145.5q0 179 122 262t367 83q244 0 366.5 -83t122.5 -262q0 -65 -29 -112h-222q24 18 34.5 46t10.5 66q0 54 -15 87.5t-48.5 52t-87.5 25t-132 6.5t-132 -6.5t-87.5 -25t-48.5 -52t-15 -87.5q0 -47 13.5 -78
t39 -50t62.5 -27t83 -8h43q20 0 41.5 -0.5t39.5 -2.5q-15 10 -35 24t-37 28l-85 66h270z" />
    <glyph glyph-name="r" unicode="r" horiz-adv-x="1023" 
d="M1012 0h-277l-149 177h-318v-177h-207v342h582q48 0 81 20t33 55q0 39 -30 58.5t-84 19.5h-582l135 174h430q57 0 118 -10.5t111 -37.5t82.5 -73t32.5 -118q0 -39 -12 -74t-34.5 -63t-55 -47.5t-73.5 -27.5q17 -13 38 -33t56 -55z" />
    <glyph glyph-name="s" unicode="s" horiz-adv-x="963" 
d="M683 402q123 0 187 -45.5t64 -137.5q0 -51 -16 -92t-51 -69t-89.5 -43t-130.5 -15h-623l133 172h506q37 0 54 11.5t17 37.5t-17 37t-54 11h-364q-65 0 -112 14t-78 39t-46 60.5t-15 78.5q0 47 16.5 85.5t51 65.5t89 42t130.5 15h581l-133 -174h-464q-36 0 -53.5 -10
t-17.5 -36t17.5 -36.5t53.5 -10.5h364z" />
    <glyph glyph-name="t" unicode="t" horiz-adv-x="894" 
d="M894 669l-134 -174h-239v-495h-207v495h-314l134 174h760z" />
    <glyph glyph-name="u" unicode="u" horiz-adv-x="986" 
d="M932 292q0 -303 -417 -303q-121 0 -208 19t-143.5 57t-83 94.5t-26.5 132.5v377h206v-377q0 -37 10 -62t37.5 -40.5t77.5 -22t130 -6.5q60 0 100 7t64 23t34.5 41t10.5 60v377h208v-377z" />
    <glyph glyph-name="v" unicode="v" 
d="M265 669l301 -444l314 444h244l-428 -605q-22 -29 -54 -52t-80 -23q-47 0 -78.5 21.5t-53.5 53.5l-419 605h254z" />
    <glyph glyph-name="w" unicode="w" horiz-adv-x="1260" 
d="M734 249q-22 39 -38 68.5t-29 53t-22.5 42.5l-18.5 37q-8 -18 -17.5 -37t-22 -42.5t-28.5 -52.5t-38 -68l-107 -190q-18 -32 -45.5 -51.5t-68.5 -19.5q-39 0 -70.5 22.5t-45.5 69.5l-170 588h207l63 -233q16 -57 26.5 -100t18.5 -84q16 35 37.5 77.5t56.5 107.5l90 168
q13 25 26 39.5t27.5 22.5t30.5 10.5t34 2.5q19 0 35 -2.5t30.5 -10.5t28 -22.5t26.5 -39.5l89 -169q19 -35 33 -61.5t25 -48t19.5 -39.5t16.5 -35q8 40 19.5 84t26.5 100l63 233h202l-173 -588q-14 -47 -45.5 -69.5t-70.5 -22.5q-40 0 -67.5 19t-46.5 52z" />
    <glyph glyph-name="x" unicode="x" horiz-adv-x="1040" 
d="M1013 669l-211 -193q-35 -32 -59 -53.5t-41 -36t-28.5 -24t-20.5 -16.5q9 -6 20 -15t29 -25.5t45 -41.5t68 -63l214 -201h-292l-228 221l-235 -221h-257l218 201q38 35 64 58.5t43 38.5t28.5 24t20.5 16q-9 7 -20 15.5t-28 24t-43 39t-65 60.5l-205 192h287l213 -208
l215 208h268z" />
    <glyph glyph-name="y" unicode="y" horiz-adv-x="1028" 
d="M1021 669l-397 -448v-221h-208v222l-408 447h266l160 -186q8 -9 21 -23.5t27 -30.5t26 -30t17 -21q10 14 29 38t55 68l152 185h260z" />
    <glyph glyph-name="z" unicode="z" horiz-adv-x="899" 
d="M766 0h-634q-39 0 -67.5 21.5t-28.5 62.5q0 23 12 44.5t33 38.5l244 192q42 33 72 56.5t52 40t36.5 26.5t23.5 17q-14 -1 -32.5 -2t-46 -1.5t-64.5 -0.5h-87h-268l132 174h617q39 0 67.5 -21.5t28.5 -62.5q0 -23 -12 -44.5t-33 -37.5l-247 -196q-41 -33 -71 -56
t-51.5 -39.5t-35.5 -26.5t-24 -17q12 1 40.5 1.5t65.5 1t79 1t81 0.5h243z" />
    <glyph glyph-name="braceleft" unicode="{" horiz-adv-x="361" 
d="M313 672q-60 0 -60 -22v-223q0 -76 -57 -98q57 -20 57 -98v-218q0 -22 60 -22v-120h-67q-114 0 -114 123v246q0 35 -61 36v106q61 1 61 35v252q0 124 114 124h67v-121z" />
    <glyph glyph-name="bar" unicode="|" horiz-adv-x="299" 
d="M204 -99h-110v854h110v-854z" />
    <glyph glyph-name="braceright" unicode="}" horiz-adv-x="361" 
d="M229 417q0 -34 61 -35v-106q-61 -1 -61 -36v-246q0 -123 -114 -123h-68v120q61 0 61 22v218q0 78 57 98q-57 22 -57 98v223q0 22 -61 22v121h68q114 0 114 -124v-252z" />
    <glyph glyph-name="asciitilde" unicode="~" horiz-adv-x="567" 
d="M382 221q-28 0 -55 11.5t-54 25.5t-54.5 25.5t-54.5 11.5q-29 0 -60 -18.5t-64 -63.5v164q38 40 72 53t65 13q27 0 54 -11.5t54 -25t55 -25t57 -11.5t59.5 17.5t64.5 62.5v-164q-38 -38 -72.5 -51.5t-66.5 -13.5z" />
    <glyph glyph-name="nonbreakingspace" unicode="&#xa0;" horiz-adv-x="383" 
 />
    <glyph glyph-name="exclamdown" unicode="&#xa1;" horiz-adv-x="325" 
d="M63.0166 0.0410156v222.986l22.998 196.988h161.99l21.999 -196.988v-222.986h-206.987zM277.003 584.005q0 -46.9971 -32.498 -72.4951q-32.498 -25.499 -80.4951 -25.499q-46.9971 0 -79.4951 25.499q-32.498 25.498 -32.498 72.4951q0 45.9971 32.498 70.9961
q32.498 24.998 79.4951 24.998q47.9971 0 80.4951 -24.998q32.498 -24.999 32.498 -70.9961z" />
    <glyph glyph-name="cent" unicode="&#xa2;" horiz-adv-x="659" 
d="M416 580h210l-93 -123h-117v-227h210l-93 -121h-117v-109h-82v109q-61 0 -113 18t-90 50.5t-59.5 76.5t-21.5 95t21.5 93.5t59.5 73t90 47.5t113 17v89h82v-89zM334 457q-59 0 -98 -31.5t-39 -82.5q0 -26 10.5 -46.5t29 -35.5t43.5 -23t54 -8v227z" />
    <glyph glyph-name="sterling" unicode="&#xa3;" horiz-adv-x="813" 
d="M203 403v58q0 47 17 85.5t52 65.5t90 42t131 15h311l-133 -174h-194q-36 0 -53.5 -10t-17.5 -36v-46h217l-102 -129h-115v-102h399l-134 -172h-640l134 172h38v102h-203l101 129h102z" />
    <glyph glyph-name="yen" unicode="&#xa5;" horiz-adv-x="1028" 
d="M897 61h-273v-61h-208v61h-265v112h265v49l-13 14h-252v112h150l-293 321h266l160 -186q8 -9 21 -23.5t27 -30.5t26 -30t17 -21q10 14 29 38t55 68l152 185h260l-285 -321h161v-112h-260l-13 -15v-48h273v-112z" />
    <glyph glyph-name="brokenbar" unicode="&#xa6;" horiz-adv-x="299" 
d="M94 -99v329h110v-329h-110zM204 445h-110v310h110v-310z" />
    <glyph glyph-name="dieresis" unicode="&#xa8;" horiz-adv-x="430" 
d="M26 805q0 36 25 55.5t60 19.5q36 0 61 -19.5t25 -55.5q0 -35 -25 -54t-61 -19q-35 0 -60 19t-25 54zM234 805q0 36 25 55.5t60 19.5q36 0 61 -19.5t25 -55.5q0 -35 -25 -54t-61 -19q-35 0 -60 19t-25 54z" />
    <glyph glyph-name="copyright" unicode="&#xa9;" horiz-adv-x="778" 
d="M503 228l-41 -54h-76q-37 0 -68.5 12.5t-54.5 34t-36 51.5t-13 65t13 64t36 49.5t54.5 32t68.5 11.5h117l-41 -55h-76q-46 0 -77.5 -29t-31.5 -77q0 -47 30.5 -76t78.5 -29h117zM44 335q0 72 27 135t74 110t110 74t135 27t135 -27t110 -74t74 -110t27 -135t-27 -135
t-74 -110t-110 -74t-135 -27t-135 27t-110 74t-74 110t-27 135zM85 334q0 -64 24 -119.5t65.5 -97t97.5 -65.5t120 -24q63 0 119 24t97.5 65.5t65.5 97t24 119.5q0 63 -24 119.5t-65.5 98.5t-97.5 66.5t-119 24.5q-64 0 -120 -24.5t-97.5 -66.5t-65.5 -98.5t-24 -119.5z" />
    <glyph glyph-name="ordfeminine" unicode="&#xaa;" horiz-adv-x="680" 
d="M219 284l69 95h91h35t32 -1q-8 10 -18.5 24.5t-19.5 28.5l-66 97l-173 -244h-134l236 332q12 17 29 29.5t44 12.5q26 0 43 -12t29 -30l230 -332h-427z" />
    <glyph glyph-name="guillemotleft" unicode="&#xab;" horiz-adv-x="456" 
d="M90 325l113 -74v-93l-174 118v91l174 125v-95zM302 325l113 -74v-93l-174 118v91l174 125v-95z" />
    <glyph glyph-name="registered" unicode="&#xae;" horiz-adv-x="503" 
d="M250 642q-39 0 -70.5 -14t-53 -36.5t-33.5 -50.5t-12 -57q0 -30 12 -58.5t33.5 -51t53 -36.5t70.5 -14q36 0 68.5 12.5t57 34t39 51t14.5 62.5q0 29 -13.5 57t-37.5 50.5t-57 36.5t-71 14zM251 288q-46 0 -84 16t-65.5 43t-43 62.5t-15.5 74.5t15.5 74.5t43 62.5t65.5 43
t84 16t84.5 -15.5t66.5 -42t44 -62.5t16 -76q0 -39 -16 -74.5t-44.5 -62.5t-67 -43t-83.5 -16zM349 413h-62l-34 39h-34v-39h-47v76h93q11 0 18.5 4.5t7.5 12.5q0 18 -26 18h-93l31 39h58q13 0 27 -2.5t25.5 -8.5t19 -16.5t7.5 -26.5q0 -18 -10.5 -30.5t-29.5 -16.5
q4 -3 8.5 -7.5l12.5 -12.5z" />
    <glyph glyph-name="macron" unicode="&#xaf;" horiz-adv-x="393" 
d="M345 750h-298v83h298v-83z" />
    <glyph glyph-name="degree" unicode="&#xb0;" horiz-adv-x="395" 
d="M200 599q-72 0 -72 -72t72 -72q73 0 73 70q0 74 -73 74zM200 680q153 0 153 -153t-153 -153t-153 153t153 153z" />
    <glyph glyph-name="plusminus" unicode="&#xb1;" horiz-adv-x="629" 
d="M588 -113h-546v112h546v-112zM588 284h-218v-218h-112v218h-216v112h216v216h112v-216h218v-112z" />
    <glyph glyph-name="twosuperior" unicode="&#xb2;" horiz-adv-x="496" 
d="M118 687h196q77 0 110.5 -28t33.5 -76q0 -43 -30.5 -69.5t-95.5 -26.5h-159q-35 0 -35 -25v-23h323l-67 -86h-356v108q0 47 32 69.5t94 22.5h159q35 0 35 24q0 23 -35 23h-271z" />
    <glyph glyph-name="threesuperior" unicode="&#xb3;" horiz-adv-x="484" 
d="M84 439h229q32 0 32 22q0 23 -32 23h-200l54 72h148q11 0 20 5t9 18q0 12 -9 16.5t-20 4.5h-280l66 87h209q61 0 96.5 -23.5t35.5 -69.5q0 -29 -14 -46.5t-31 -22.5q22 -7 37 -26t15 -49q0 -21 -6.5 -39t-22 -30.5t-42 -20t-65.5 -7.5h-294z" />
    <glyph glyph-name="acute" unicode="&#xb4;" horiz-adv-x="393" 
d="M374 754l-298 -39v83l298 69v-113z" />
    <glyph glyph-name="periodcentered" unicode="&#xb7;" horiz-adv-x="309" 
d="M42 337q0 47 32.5 72.5t79.5 25.5q48 0 80.5 -25.5t32.5 -72.5q0 -46 -32.5 -71t-80.5 -25q-47 0 -79.5 25t-32.5 71z" />
    <glyph glyph-name="cedilla" unicode="&#xb8;" horiz-adv-x="298" 
d="M220 -31l-83 -224h-72v224h155z" />
    <glyph glyph-name="onesuperior" unicode="&#xb9;" horiz-adv-x="251" 
d="M82 687h123v-334h-104v247h-81z" />
    <glyph glyph-name="ordmasculine" unicode="&#xba;" horiz-adv-x="641" 
d="M321 658q135 0 202 -45t67 -145q0 -99 -67 -145t-202 -46q-136 0 -203 46t-67 145q0 100 67 145t203 45zM321 374q43 0 72.5 3.5t48 14t26.5 28.5t8 48t-8 48t-26.5 28.5t-48 14t-72.5 3.5t-73 -3.5t-48.5 -14t-26.5 -28.5t-8 -48t8 -48t26.5 -28.5t48.5 -14t73 -3.5z
" />
    <glyph glyph-name="guillemotright" unicode="&#xbb;" horiz-adv-x="456" 
d="M46 397v95l175 -125v-91l-175 -118v93l114 74zM258 397v95l174 -125v-91l-174 -118v93l113 74z" />
    <glyph glyph-name="onequarter" unicode="&#xbc;" horiz-adv-x="926" 
d="M104 687h123v-334h-104v247h-81zM703 706l-533 -744h-91l540 744h84zM472 30q-24 0 -37.5 14t-13.5 32q0 22 22 40l241 196q13 11 25.5 14.5t22.5 3.5q22 0 39.5 -14.5t17.5 -47.5v-155h95l-60 -83h-35v-39h-100v39h-217zM689 162q0 16 0.5 25.5t1.5 17.5
q-6 -6 -15 -13.5l-21 -17.5l-37 -30q-14 -11 -25.5 -19t-19.5 -14q11 1 24.5 1.5t32.5 0.5h59v49z" />
    <glyph glyph-name="onehalf" unicode="&#xbd;" horiz-adv-x="950" 
d="M104 687h123v-334h-104v247h-81zM694 706l-533 -744h-91l540 744h84zM566 325h196q77 0 110.5 -28t33.5 -76q0 -43 -30.5 -69.5t-95.5 -26.5h-159q-35 0 -35 -25v-23h323l-67 -86h-356v108q0 47 32 69.5t94 22.5h159q35 0 35 24q0 23 -35 23h-271z" />
    <glyph glyph-name="threequarters" unicode="&#xbe;" horiz-adv-x="1057" 
d="M107 439h229q32 0 32 22q0 23 -32 23h-200l54 72h148q11 0 20 5t9 18q0 12 -9 16.5t-20 4.5h-280l66 87h209q61 0 96.5 -23.5t35.5 -69.5q0 -29 -14 -46.5t-31 -22.5q22 -7 37 -26t15 -49q0 -21 -6.5 -39t-22 -30.5t-42 -20t-65.5 -7.5h-294zM852 706l-533 -744h-91
l540 744h84zM603 30q-24 0 -37.5 14t-13.5 32q0 22 22 40l241 196q13 11 25.5 14.5t22.5 3.5q22 0 39.5 -14.5t17.5 -47.5v-155h95l-60 -83h-35v-39h-100v39h-217zM820 162q0 16 0.5 25.5t1.5 17.5q-6 -6 -15 -13.5l-21 -17.5l-37 -30q-14 -11 -25.5 -19t-19.5 -14
q11 1 24.5 1.5t32.5 0.5h59v49z" />
    <glyph glyph-name="questiondown" unicode="&#xbf;" horiz-adv-x="743" 
d="M598.009 0.0410156h-283.982q-75.9951 0 -130.492 14.999t-88.9941 41.9971q-34.498 26.999 -50.4971 65.4961q-15.999 38.498 -15.999 85.4951q0 42.9971 14.999 78.4951t45.4971 60.4961q30.498 24.999 77.9951 38.998t111.493 13.999h100.994q19.999 0 19.999 15.999
v4h170.989v-20.999q0 -62.9961 -35.498 -97.4941t-121.492 -34.498h-114.993q-35.998 0 -53.4971 -10.499q-17.499 -10.5 -17.499 -36.498t17.499 -35.998q17.499 -9.99902 53.4971 -9.99902h433.974zM589.01 584.005q0 -46.9971 -32.498 -72.4951
q-32.498 -25.499 -80.4951 -25.499q-46.9971 0 -79.4951 25.499q-32.498 25.498 -32.498 72.4951q0 45.9971 32.498 70.9961q32.498 24.998 79.4951 24.998q47.9971 0 80.4951 -24.998q32.498 -24.999 32.498 -70.9961z" />
    <glyph glyph-name="Agrave" unicode="&#xc0;" 
d="M346 0l125 172h168h62.5t56.5 -2q-14 18 -32.5 45.5t-35.5 51.5l-120 177l-314 -444h-245l429 605q21 29 53 52t81 23q47 0 78.5 -21.5t53.5 -53.5l418 -605h-778zM688 715l-298 39v113l298 -69v-83z" />
    <glyph glyph-name="Aacute" unicode="&#xc1;" 
d="M346 0l125 172h168h62.5t56.5 -2q-14 18 -32.5 45.5t-35.5 51.5l-120 177l-314 -444h-245l429 605q21 29 53 52t81 23q47 0 78.5 -21.5t53.5 -53.5l418 -605h-778zM745 754l-298 -39v83l298 69v-113z" />
    <glyph glyph-name="Acircumflex" unicode="&#xc2;" 
d="M346 0l125 172h168h62.5t56.5 -2q-14 18 -32.5 45.5t-35.5 51.5l-120 177l-314 -444h-245l429 605q21 29 53 52t81 23q47 0 78.5 -21.5t53.5 -53.5l418 -605h-778zM727 715h-99l-56 101h-9l-55 -101h-100l95 152h131z" />
    <glyph glyph-name="Atilde" unicode="&#xc3;" 
d="M346 0l125 172h168h62.5t56.5 -2q-14 18 -32.5 45.5t-35.5 51.5l-120 177l-314 -444h-245l429 605q21 29 53 52t81 23q47 0 78.5 -21.5t53.5 -53.5l418 -605h-778zM640 732q-19 0 -37 6.5t-35.5 14t-35.5 14t-37 6.5q-23 0 -43.5 -10.5t-33.5 -25.5v83q14 16 34 23t43 7
q19 0 37 -6.5t35.5 -14.5t35 -14.5t37.5 -6.5q23 0 43 10.5t33 25.5v-82q-14 -17 -33.5 -23.5t-42.5 -6.5z" />
    <glyph glyph-name="Adieresis" unicode="&#xc4;" 
d="M346 0l125 172h168h62.5t56.5 -2q-14 18 -32.5 45.5t-35.5 51.5l-120 177l-314 -444h-245l429 605q21 29 53 52t81 23q47 0 78.5 -21.5t53.5 -53.5l418 -605h-778zM378 805q0 36 25 55.5t60 19.5q36 0 61 -19.5t25 -55.5q0 -35 -25 -54t-61 -19q-35 0 -60 19t-25 54z
M586 805q0 36 25 55.5t60 19.5q36 0 61 -19.5t25 -55.5q0 -35 -25 -54t-61 -19q-35 0 -60 19t-25 54z" />
    <glyph glyph-name="Aring" unicode="&#xc5;" 
d="M346 0l125 172h168h62.5t56.5 -2q-14 18 -32.5 45.5t-35.5 51.5l-120 177l-314 -444h-245l429 605q21 29 53 52t81 23q47 0 78.5 -21.5t53.5 -53.5l418 -605h-778zM520 873q-19 0 -19 -18v-51q0 -18 19 -18h94q20 0 20 18v51q0 18 -20 18h-94zM712 798q0 -83 -104 -83
h-82q-103 0 -103 83v63q0 84 103 84h82q104 0 104 -84v-63z" />
    <glyph glyph-name="AE" unicode="&#xc6;" horiz-adv-x="1442" 
d="M1432 669l-134 -174h-433v-80h530l-118 -152h-412v-91h570l-134 -172h-643v495h-53l-349 -495h-245l421 593q21 30 53 53t80 23h867z" />
    <glyph glyph-name="Ccedilla" unicode="&#xc7;" horiz-adv-x="923" 
d="M914 172l-133 -172h-336q-87 0 -161 26t-127.5 71.5t-84 108t-30.5 135.5t30.5 133.5t84 104t127.5 67t161 23.5h469l-133 -174h-336q-42 0 -78 -12t-62 -33.5t-41 -51.5t-15 -66t14.5 -65.5t41 -50.5t62.5 -32.5t78 -11.5h469zM599 -31l-82 -224h-72v224h154z" />
    <glyph glyph-name="Egrave" unicode="&#xc8;" horiz-adv-x="848" 
d="M840 172l-133 -172h-644v669h775l-134 -174h-433v-80h530l-119 -152h-411v-91h569zM554 715l-298 39v113l298 -69v-83z" />
    <glyph glyph-name="Eacute" unicode="&#xc9;" horiz-adv-x="848" 
d="M840 172l-133 -172h-644v669h775l-134 -174h-433v-80h530l-119 -152h-411v-91h569zM592 754l-298 -39v83l298 69v-113z" />
    <glyph glyph-name="Ecircumflex" unicode="&#xca;" horiz-adv-x="848" 
d="M840 172l-133 -172h-644v669h775l-134 -174h-433v-80h530l-119 -152h-411v-91h569zM593 715h-99l-56 101h-9l-55 -101h-100l95 152h131z" />
    <glyph glyph-name="Edieresis" unicode="&#xcb;" horiz-adv-x="848" 
d="M840 172l-133 -172h-644v669h775l-134 -174h-433v-80h530l-119 -152h-411v-91h569zM231 805q0 36 25 55.5t60 19.5q36 0 61 -19.5t25 -55.5q0 -35 -25 -54t-61 -19q-35 0 -60 19t-25 54zM439 805q0 36 25 55.5t60 19.5q36 0 61 -19.5t25 -55.5q0 -35 -25 -54t-61 -19
q-35 0 -60 19t-25 54z" />
    <glyph glyph-name="Igrave" unicode="&#xcc;" horiz-adv-x="339" 
d="M273 0h-207v669h207v-669zM292 715l-298 39v113l298 -69v-83z" />
    <glyph glyph-name="Iacute" unicode="&#xcd;" horiz-adv-x="339" 
d="M273 0h-207v669h207v-669zM349 754l-298 -39v83l298 69v-113z" />
    <glyph glyph-name="Icircumflex" unicode="&#xce;" horiz-adv-x="339" 
d="M273 0h-207v669h207v-669zM330 715h-99l-56 101h-9l-55 -101h-100l95 152h131z" />
    <glyph glyph-name="Idieresis" unicode="&#xcf;" horiz-adv-x="339" 
d="M273 0h-207v669h207v-669zM-18 805q0 36 25 55.5t60 19.5q36 0 61 -19.5t25 -55.5q0 -35 -25 -54t-61 -19q-35 0 -60 19t-25 54zM190 805q0 36 25 55.5t60 19.5q36 0 61 -19.5t25 -55.5q0 -35 -25 -54t-61 -19q-35 0 -60 19t-25 54z" />
    <glyph glyph-name="Eth" unicode="&#xd0;" horiz-adv-x="1041" 
d="M597 415l-118 -152h-123v-91h240q43 0 79.5 11.5t62.5 32.5t41 50.5t15 65.5q0 35 -15 65t-42 51.5t-63 34t-78 12.5h-447l131 174h316q88 0 162 -24t127.5 -67.5t83.5 -104t30 -132.5q0 -73 -30.5 -135.5t-84 -108t-127.5 -71.5t-161 -26h-447v263h-149l118 152h479z
" />
    <glyph glyph-name="Ntilde" unicode="&#xd1;" horiz-adv-x="914" 
d="M741 -11q-20 0 -39.5 6.5t-43.5 29.5l-410 368v-393h-188v555q0 33 9.5 57t25 39t36 22t42.5 7q19 0 38.5 -6.5t44.5 -29.5l410 -368v393h189v-554q0 -33 -9.5 -57t-25 -39.5t-36.5 -22.5t-43 -7zM526 732q-19 0 -37 6.5t-35.5 14t-35.5 14t-37 6.5q-23 0 -43.5 -10.5
t-33.5 -25.5v83q14 16 34 23t43 7q19 0 37 -6.5t35.5 -14.5t35 -14.5t37.5 -6.5q23 0 43 10.5t33 25.5v-82q-14 -17 -33.5 -23.5t-42.5 -6.5z" />
    <glyph glyph-name="Ograve" unicode="&#xd2;" horiz-adv-x="1062" 
d="M531 680q244 0 366.5 -83t122.5 -262q0 -180 -122 -263t-367 -83q-246 0 -367.5 83t-121.5 263q0 179 122 262t367 83zM531 163q78 0 132 6.5t87.5 25.5t48.5 52.5t15 87.5t-15 87.5t-48.5 52t-87.5 25t-132 6.5t-132 -6.5t-87.5 -25t-48.5 -52t-15 -87.5t15 -87.5
t48.5 -52.5t87.5 -25.5t132 -6.5zM651 715l-298 39v113l298 -69v-83z" />
    <glyph glyph-name="Oacute" unicode="&#xd3;" horiz-adv-x="1062" 
d="M531 680q244 0 366.5 -83t122.5 -262q0 -180 -122 -263t-367 -83q-246 0 -367.5 83t-121.5 263q0 179 122 262t367 83zM531 163q78 0 132 6.5t87.5 25.5t48.5 52.5t15 87.5t-15 87.5t-48.5 52t-87.5 25t-132 6.5t-132 -6.5t-87.5 -25t-48.5 -52t-15 -87.5t15 -87.5
t48.5 -52.5t87.5 -25.5t132 -6.5zM708 754l-298 -39v83l298 69v-113z" />
    <glyph glyph-name="Ocircumflex" unicode="&#xd4;" horiz-adv-x="1062" 
d="M531 680q244 0 366.5 -83t122.5 -262q0 -180 -122 -263t-367 -83q-246 0 -367.5 83t-121.5 263q0 179 122 262t367 83zM531 163q78 0 132 6.5t87.5 25.5t48.5 52.5t15 87.5t-15 87.5t-48.5 52t-87.5 25t-132 6.5t-132 -6.5t-87.5 -25t-48.5 -52t-15 -87.5t15 -87.5
t48.5 -52.5t87.5 -25.5t132 -6.5zM690 715h-99l-56 101h-9l-55 -101h-100l95 152h131z" />
    <glyph glyph-name="Otilde" unicode="&#xd5;" horiz-adv-x="1062" 
d="M531 680q244 0 366.5 -83t122.5 -262q0 -180 -122 -263t-367 -83q-246 0 -367.5 83t-121.5 263q0 179 122 262t367 83zM531 163q78 0 132 6.5t87.5 25.5t48.5 52.5t15 87.5t-15 87.5t-48.5 52t-87.5 25t-132 6.5t-132 -6.5t-87.5 -25t-48.5 -52t-15 -87.5t15 -87.5
t48.5 -52.5t87.5 -25.5t132 -6.5zM603 732q-19 0 -37 6.5t-35.5 14t-35.5 14t-37 6.5q-23 0 -43.5 -10.5t-33.5 -25.5v83q14 16 34 23t43 7q19 0 37 -6.5t35.5 -14.5t35 -14.5t37.5 -6.5q23 0 43 10.5t33 25.5v-82q-14 -17 -33.5 -23.5t-42.5 -6.5z" />
    <glyph glyph-name="Odieresis" unicode="&#xd6;" horiz-adv-x="1062" 
d="M531 680q244 0 366.5 -83t122.5 -262q0 -180 -122 -263t-367 -83q-246 0 -367.5 83t-121.5 263q0 179 122 262t367 83zM531 163q78 0 132 6.5t87.5 25.5t48.5 52.5t15 87.5t-15 87.5t-48.5 52t-87.5 25t-132 6.5t-132 -6.5t-87.5 -25t-48.5 -52t-15 -87.5t15 -87.5
t48.5 -52.5t87.5 -25.5t132 -6.5zM342 805q0 36 25 55.5t60 19.5q36 0 61 -19.5t25 -55.5q0 -35 -25 -54t-61 -19q-35 0 -60 19t-25 54zM550 805q0 36 25 55.5t60 19.5q36 0 61 -19.5t25 -55.5q0 -35 -25 -54t-61 -19q-35 0 -60 19t-25 54z" />
    <glyph glyph-name="multiply" unicode="&#xd7;" horiz-adv-x="629" 
d="M451 111l-153 154l-154 -153l-79 78l154 154l-153 154l79 78l153 -153l153 153l79 -79l-153 -153l154 -154z" />
    <glyph glyph-name="Oslash" unicode="&#xd8;" horiz-adv-x="1062" 
d="M531 680q163 0 271 -36l75 72l51 -47l-57 -55q75 -42 112 -110.5t37 -168.5q0 -180 -122 -263t-367 -83q-83 0 -150.5 8.5t-122.5 28.5l-75 -73l-49 47l57 55q-149 83 -149 280q0 179 122 262t367 83zM531 163q78 0 132 6.5t87.5 25.5t48.5 52.5t15 87.5q0 60 -19 95
t-62 53l-326 -315q26 -3 57 -4t67 -1zM248 335q0 -60 18.5 -95.5t60.5 -53.5l326 315q-26 2 -56.5 3.5t-65.5 1.5q-78 0 -132 -6.5t-87.5 -25t-48.5 -52t-15 -87.5z" />
    <glyph glyph-name="Ugrave" unicode="&#xd9;" horiz-adv-x="986" 
d="M932 292q0 -303 -417 -303q-121 0 -208 19t-143.5 57t-83 94.5t-26.5 132.5v377h206v-377q0 -37 10 -62t37.5 -40.5t77.5 -22t130 -6.5q60 0 100 7t64 23t34.5 41t10.5 60v377h208v-377zM613 715l-298 39v113l298 -69v-83z" />
    <glyph glyph-name="Uacute" unicode="&#xda;" horiz-adv-x="986" 
d="M932 292q0 -303 -417 -303q-121 0 -208 19t-143.5 57t-83 94.5t-26.5 132.5v377h206v-377q0 -37 10 -62t37.5 -40.5t77.5 -22t130 -6.5q60 0 100 7t64 23t34.5 41t10.5 60v377h208v-377zM670 754l-298 -39v83l298 69v-113z" />
    <glyph glyph-name="Ucircumflex" unicode="&#xdb;" horiz-adv-x="986" 
d="M932 292q0 -303 -417 -303q-121 0 -208 19t-143.5 57t-83 94.5t-26.5 132.5v377h206v-377q0 -37 10 -62t37.5 -40.5t77.5 -22t130 -6.5q60 0 100 7t64 23t34.5 41t10.5 60v377h208v-377zM652 715h-99l-56 101h-9l-55 -101h-100l95 152h131z" />
    <glyph glyph-name="Udieresis" unicode="&#xdc;" horiz-adv-x="986" 
d="M932 292q0 -303 -417 -303q-121 0 -208 19t-143.5 57t-83 94.5t-26.5 132.5v377h206v-377q0 -37 10 -62t37.5 -40.5t77.5 -22t130 -6.5q60 0 100 7t64 23t34.5 41t10.5 60v377h208v-377zM304 805q0 36 25 55.5t60 19.5q36 0 61 -19.5t25 -55.5q0 -35 -25 -54t-61 -19
q-35 0 -60 19t-25 54zM512 805q0 36 25 55.5t60 19.5q36 0 61 -19.5t25 -55.5q0 -35 -25 -54t-61 -19q-35 0 -60 19t-25 54z" />
    <glyph glyph-name="Yacute" unicode="&#xdd;" horiz-adv-x="1028" 
d="M1021 669l-397 -448v-221h-208v222l-408 447h266l160 -186q8 -9 21 -23.5t27 -30.5t26 -30t17 -21q10 14 29 38t55 68l152 185h260zM687 754l-298 -39v83l298 69v-113z" />
    <glyph glyph-name="Thorn" unicode="&#xde;" horiz-adv-x="958" 
d="M63 669h207v-94h321q78 0 139.5 -17.5t104 -50t64.5 -78t22 -101.5t-22 -102t-64.5 -79t-103.5 -51t-139 -18h-273l137 174h155q49 0 75.5 20t26.5 55t-26.5 56.5t-75.5 21.5h-341v-405h-207v669z" />
    <glyph glyph-name="germandbls" unicode="&#xdf;" horiz-adv-x="1927" 
d="M683 402q123 0 187 -45.5t64 -137.5q0 -51 -16 -92t-51 -69t-89.5 -43t-130.5 -15h-623l133 172h506q37 0 54 11.5t17 37.5t-17 37t-54 11h-364q-65 0 -112 14t-78 39t-46 60.5t-15 78.5q0 47 16.5 85.5t51 65.5t89 42t130.5 15h581l-133 -174h-464q-36 0 -53.5 -10
t-17.5 -36t17.5 -36.5t53.5 -10.5h364zM1646 402q123 0 187 -45.5t64 -137.5q0 -51 -16 -92t-51 -69t-89.5 -43t-130.5 -15h-623l133 172h506q37 0 54 11.5t17 37.5t-17 37t-54 11h-364q-65 0 -112 14t-78 39t-46 60.5t-15 78.5q0 47 16.5 85.5t51 65.5t89 42t130.5 15h581
l-133 -174h-464q-36 0 -53.5 -10t-17.5 -36t17.5 -36.5t53.5 -10.5h364z" />
    <glyph glyph-name="agrave" unicode="&#xe0;" 
d="M346 0l125 172h168h62.5t56.5 -2q-14 18 -32.5 45.5t-35.5 51.5l-120 177l-314 -444h-245l429 605q21 29 53 52t81 23q47 0 78.5 -21.5t53.5 -53.5l418 -605h-778zM688 715l-298 39v113l298 -69v-83z" />
    <glyph glyph-name="aacute" unicode="&#xe1;" 
d="M346 0l125 172h168h62.5t56.5 -2q-14 18 -32.5 45.5t-35.5 51.5l-120 177l-314 -444h-245l429 605q21 29 53 52t81 23q47 0 78.5 -21.5t53.5 -53.5l418 -605h-778zM745 754l-298 -39v83l298 69v-113z" />
    <glyph glyph-name="acircumflex" unicode="&#xe2;" 
d="M346 0l125 172h168h62.5t56.5 -2q-14 18 -32.5 45.5t-35.5 51.5l-120 177l-314 -444h-245l429 605q21 29 53 52t81 23q47 0 78.5 -21.5t53.5 -53.5l418 -605h-778zM727 715h-99l-56 101h-9l-55 -101h-100l95 152h131z" />
    <glyph glyph-name="atilde" unicode="&#xe3;" 
d="M346 0l125 172h168h62.5t56.5 -2q-14 18 -32.5 45.5t-35.5 51.5l-120 177l-314 -444h-245l429 605q21 29 53 52t81 23q47 0 78.5 -21.5t53.5 -53.5l418 -605h-778zM640 732q-19 0 -37 6.5t-35.5 14t-35.5 14t-37 6.5q-23 0 -43.5 -10.5t-33.5 -25.5v83q14 16 34 23t43 7
q19 0 37 -6.5t35.5 -14.5t35 -14.5t37.5 -6.5q23 0 43 10.5t33 25.5v-82q-14 -17 -33.5 -23.5t-42.5 -6.5z" />
    <glyph glyph-name="adieresis" unicode="&#xe4;" 
d="M346 0l125 172h168h62.5t56.5 -2q-14 18 -32.5 45.5t-35.5 51.5l-120 177l-314 -444h-245l429 605q21 29 53 52t81 23q47 0 78.5 -21.5t53.5 -53.5l418 -605h-778zM378 805q0 36 25 55.5t60 19.5q36 0 61 -19.5t25 -55.5q0 -35 -25 -54t-61 -19q-35 0 -60 19t-25 54z
M586 805q0 36 25 55.5t60 19.5q36 0 61 -19.5t25 -55.5q0 -35 -25 -54t-61 -19q-35 0 -60 19t-25 54z" />
    <glyph glyph-name="aring" unicode="&#xe5;" 
d="M346 0l125 172h168h62.5t56.5 -2q-14 18 -32.5 45.5t-35.5 51.5l-120 177l-314 -444h-245l429 605q21 29 53 52t81 23q47 0 78.5 -21.5t53.5 -53.5l418 -605h-778zM520 873q-19 0 -19 -18v-51q0 -18 19 -18h94q20 0 20 18v51q0 18 -20 18h-94zM712 798q0 -83 -104 -83
h-82q-103 0 -103 83v63q0 84 103 84h82q104 0 104 -84v-63z" />
    <glyph glyph-name="ae" unicode="&#xe6;" horiz-adv-x="1442" 
d="M1432 669l-134 -174h-433v-80h530l-118 -152h-412v-91h570l-134 -172h-643v495h-53l-349 -495h-245l421 593q21 30 53 53t80 23h867z" />
    <glyph glyph-name="ccedilla" unicode="&#xe7;" horiz-adv-x="923" 
d="M914 172l-133 -172h-336q-87 0 -161 26t-127.5 71.5t-84 108t-30.5 135.5t30.5 133.5t84 104t127.5 67t161 23.5h469l-133 -174h-336q-42 0 -78 -12t-62 -33.5t-41 -51.5t-15 -66t14.5 -65.5t41 -50.5t62.5 -32.5t78 -11.5h469zM599 -31l-82 -224h-72v224h154z" />
    <glyph glyph-name="egrave" unicode="&#xe8;" horiz-adv-x="848" 
d="M840 172l-133 -172h-644v669h775l-134 -174h-433v-80h530l-119 -152h-411v-91h569zM554 715l-298 39v113l298 -69v-83z" />
    <glyph glyph-name="eacute" unicode="&#xe9;" horiz-adv-x="848" 
d="M840 172l-133 -172h-644v669h775l-134 -174h-433v-80h530l-119 -152h-411v-91h569zM592 754l-298 -39v83l298 69v-113z" />
    <glyph glyph-name="ecircumflex" unicode="&#xea;" horiz-adv-x="848" 
d="M840 172l-133 -172h-644v669h775l-134 -174h-433v-80h530l-119 -152h-411v-91h569zM593 715h-99l-56 101h-9l-55 -101h-100l95 152h131z" />
    <glyph glyph-name="edieresis" unicode="&#xeb;" horiz-adv-x="848" 
d="M840 172l-133 -172h-644v669h775l-134 -174h-433v-80h530l-119 -152h-411v-91h569zM231 805q0 36 25 55.5t60 19.5q36 0 61 -19.5t25 -55.5q0 -35 -25 -54t-61 -19q-35 0 -60 19t-25 54zM439 805q0 36 25 55.5t60 19.5q36 0 61 -19.5t25 -55.5q0 -35 -25 -54t-61 -19
q-35 0 -60 19t-25 54z" />
    <glyph glyph-name="igrave" unicode="&#xec;" horiz-adv-x="339" 
d="M273 0h-207v669h207v-669zM292 715l-298 39v113l298 -69v-83z" />
    <glyph glyph-name="iacute" unicode="&#xed;" horiz-adv-x="339" 
d="M273 0h-207v669h207v-669zM349 754l-298 -39v83l298 69v-113z" />
    <glyph glyph-name="icircumflex" unicode="&#xee;" horiz-adv-x="339" 
d="M273 0h-207v669h207v-669zM330 715h-99l-56 101h-9l-55 -101h-100l95 152h131z" />
    <glyph glyph-name="idieresis" unicode="&#xef;" horiz-adv-x="339" 
d="M273 0h-207v669h207v-669zM-18 805q0 36 25 55.5t60 19.5q36 0 61 -19.5t25 -55.5q0 -35 -25 -54t-61 -19q-35 0 -60 19t-25 54zM190 805q0 36 25 55.5t60 19.5q36 0 61 -19.5t25 -55.5q0 -35 -25 -54t-61 -19q-35 0 -60 19t-25 54z" />
    <glyph glyph-name="eth" unicode="&#xf0;" horiz-adv-x="1041" 
d="M597 415l-118 -152h-123v-91h240q43 0 79.5 11.5t62.5 32.5t41 50.5t15 65.5q0 35 -15 65t-42 51.5t-63 34t-78 12.5h-447l131 174h316q88 0 162 -24t127.5 -67.5t83.5 -104t30 -132.5q0 -73 -30.5 -135.5t-84 -108t-127.5 -71.5t-161 -26h-447v263h-149l118 152h479z
" />
    <glyph glyph-name="ntilde" unicode="&#xf1;" horiz-adv-x="914" 
d="M741 -11q-20 0 -39.5 6.5t-43.5 29.5l-410 368v-393h-188v555q0 33 9.5 57t25 39t36 22t42.5 7q19 0 38.5 -6.5t44.5 -29.5l410 -368v393h189v-554q0 -33 -9.5 -57t-25 -39.5t-36.5 -22.5t-43 -7zM526 732q-19 0 -37 6.5t-35.5 14t-35.5 14t-37 6.5q-23 0 -43.5 -10.5
t-33.5 -25.5v83q14 16 34 23t43 7q19 0 37 -6.5t35.5 -14.5t35 -14.5t37.5 -6.5q23 0 43 10.5t33 25.5v-82q-14 -17 -33.5 -23.5t-42.5 -6.5z" />
    <glyph glyph-name="ograve" unicode="&#xf2;" horiz-adv-x="1062" 
d="M531 680q244 0 366.5 -83t122.5 -262q0 -180 -122 -263t-367 -83q-246 0 -367.5 83t-121.5 263q0 179 122 262t367 83zM531 163q78 0 132 6.5t87.5 25.5t48.5 52.5t15 87.5t-15 87.5t-48.5 52t-87.5 25t-132 6.5t-132 -6.5t-87.5 -25t-48.5 -52t-15 -87.5t15 -87.5
t48.5 -52.5t87.5 -25.5t132 -6.5zM651 715l-298 39v113l298 -69v-83z" />
    <glyph glyph-name="oacute" unicode="&#xf3;" horiz-adv-x="1062" 
d="M531 680q244 0 366.5 -83t122.5 -262q0 -180 -122 -263t-367 -83q-246 0 -367.5 83t-121.5 263q0 179 122 262t367 83zM531 163q78 0 132 6.5t87.5 25.5t48.5 52.5t15 87.5t-15 87.5t-48.5 52t-87.5 25t-132 6.5t-132 -6.5t-87.5 -25t-48.5 -52t-15 -87.5t15 -87.5
t48.5 -52.5t87.5 -25.5t132 -6.5zM708 754l-298 -39v83l298 69v-113z" />
    <glyph glyph-name="ocircumflex" unicode="&#xf4;" horiz-adv-x="1062" 
d="M531 680q244 0 366.5 -83t122.5 -262q0 -180 -122 -263t-367 -83q-246 0 -367.5 83t-121.5 263q0 179 122 262t367 83zM531 163q78 0 132 6.5t87.5 25.5t48.5 52.5t15 87.5t-15 87.5t-48.5 52t-87.5 25t-132 6.5t-132 -6.5t-87.5 -25t-48.5 -52t-15 -87.5t15 -87.5
t48.5 -52.5t87.5 -25.5t132 -6.5zM690 715h-99l-56 101h-9l-55 -101h-100l95 152h131z" />
    <glyph glyph-name="otilde" unicode="&#xf5;" horiz-adv-x="1062" 
d="M531 680q244 0 366.5 -83t122.5 -262q0 -180 -122 -263t-367 -83q-246 0 -367.5 83t-121.5 263q0 179 122 262t367 83zM531 163q78 0 132 6.5t87.5 25.5t48.5 52.5t15 87.5t-15 87.5t-48.5 52t-87.5 25t-132 6.5t-132 -6.5t-87.5 -25t-48.5 -52t-15 -87.5t15 -87.5
t48.5 -52.5t87.5 -25.5t132 -6.5zM603 732q-19 0 -37 6.5t-35.5 14t-35.5 14t-37 6.5q-23 0 -43.5 -10.5t-33.5 -25.5v83q14 16 34 23t43 7q19 0 37 -6.5t35.5 -14.5t35 -14.5t37.5 -6.5q23 0 43 10.5t33 25.5v-82q-14 -17 -33.5 -23.5t-42.5 -6.5z" />
    <glyph glyph-name="odieresis" unicode="&#xf6;" horiz-adv-x="1062" 
d="M531 680q244 0 366.5 -83t122.5 -262q0 -180 -122 -263t-367 -83q-246 0 -367.5 83t-121.5 263q0 179 122 262t367 83zM531 163q78 0 132 6.5t87.5 25.5t48.5 52.5t15 87.5t-15 87.5t-48.5 52t-87.5 25t-132 6.5t-132 -6.5t-87.5 -25t-48.5 -52t-15 -87.5t15 -87.5
t48.5 -52.5t87.5 -25.5t132 -6.5zM342 805q0 36 25 55.5t60 19.5q36 0 61 -19.5t25 -55.5q0 -35 -25 -54t-61 -19q-35 0 -60 19t-25 54zM550 805q0 36 25 55.5t60 19.5q36 0 61 -19.5t25 -55.5q0 -35 -25 -54t-61 -19q-35 0 -60 19t-25 54z" />
    <glyph glyph-name="divide" unicode="&#xf7;" horiz-adv-x="629" 
d="M588 284h-546v112h546v-112zM202 572q0 47 32.5 72.5t79.5 25.5q48 0 80.5 -25.5t32.5 -72.5q0 -46 -32.5 -71t-80.5 -25q-47 0 -79.5 25t-32.5 71zM202 101q0 47 32.5 72.5t79.5 25.5q48 0 80.5 -25.5t32.5 -72.5q0 -46 -32.5 -71t-80.5 -25q-47 0 -79.5 25t-32.5 71z
" />
    <glyph glyph-name="oslash" unicode="&#xf8;" horiz-adv-x="1062" 
d="M531 680q163 0 271 -36l75 72l51 -47l-57 -55q75 -42 112 -110.5t37 -168.5q0 -180 -122 -263t-367 -83q-83 0 -150.5 8.5t-122.5 28.5l-75 -73l-49 47l57 55q-149 83 -149 280q0 179 122 262t367 83zM531 163q78 0 132 6.5t87.5 25.5t48.5 52.5t15 87.5q0 60 -19 95
t-62 53l-326 -315q26 -3 57 -4t67 -1zM248 335q0 -60 18.5 -95.5t60.5 -53.5l326 315q-26 2 -56.5 3.5t-65.5 1.5q-78 0 -132 -6.5t-87.5 -25t-48.5 -52t-15 -87.5z" />
    <glyph glyph-name="ugrave" unicode="&#xf9;" horiz-adv-x="986" 
d="M932 292q0 -303 -417 -303q-121 0 -208 19t-143.5 57t-83 94.5t-26.5 132.5v377h206v-377q0 -37 10 -62t37.5 -40.5t77.5 -22t130 -6.5q60 0 100 7t64 23t34.5 41t10.5 60v377h208v-377zM613 715l-298 39v113l298 -69v-83z" />
    <glyph glyph-name="uacute" unicode="&#xfa;" horiz-adv-x="986" 
d="M932 292q0 -303 -417 -303q-121 0 -208 19t-143.5 57t-83 94.5t-26.5 132.5v377h206v-377q0 -37 10 -62t37.5 -40.5t77.5 -22t130 -6.5q60 0 100 7t64 23t34.5 41t10.5 60v377h208v-377zM670 754l-298 -39v83l298 69v-113z" />
    <glyph glyph-name="ucircumflex" unicode="&#xfb;" horiz-adv-x="986" 
d="M932 292q0 -303 -417 -303q-121 0 -208 19t-143.5 57t-83 94.5t-26.5 132.5v377h206v-377q0 -37 10 -62t37.5 -40.5t77.5 -22t130 -6.5q60 0 100 7t64 23t34.5 41t10.5 60v377h208v-377zM652 715h-99l-56 101h-9l-55 -101h-100l95 152h131z" />
    <glyph glyph-name="udieresis" unicode="&#xfc;" horiz-adv-x="986" 
d="M932 292q0 -303 -417 -303q-121 0 -208 19t-143.5 57t-83 94.5t-26.5 132.5v377h206v-377q0 -37 10 -62t37.5 -40.5t77.5 -22t130 -6.5q60 0 100 7t64 23t34.5 41t10.5 60v377h208v-377zM304 805q0 36 25 55.5t60 19.5q36 0 61 -19.5t25 -55.5q0 -35 -25 -54t-61 -19
q-35 0 -60 19t-25 54zM512 805q0 36 25 55.5t60 19.5q36 0 61 -19.5t25 -55.5q0 -35 -25 -54t-61 -19q-35 0 -60 19t-25 54z" />
    <glyph glyph-name="yacute" unicode="&#xfd;" horiz-adv-x="1028" 
d="M1021 669l-397 -448v-221h-208v222l-408 447h266l160 -186q8 -9 21 -23.5t27 -30.5t26 -30t17 -21q10 14 29 38t55 68l152 185h260zM687 754l-298 -39v83l298 69v-113z" />
    <glyph glyph-name="thorn" unicode="&#xfe;" horiz-adv-x="958" 
d="M63 669h207v-94h321q78 0 139.5 -17.5t104 -50t64.5 -78t22 -101.5t-22 -102t-64.5 -79t-103.5 -51t-139 -18h-273l137 174h155q49 0 75.5 20t26.5 55t-26.5 56.5t-75.5 21.5h-341v-405h-207v669z" />
    <glyph glyph-name="ydieresis" unicode="&#xff;" horiz-adv-x="1028" 
d="M1021 669l-397 -448v-221h-208v222l-408 447h266l160 -186q8 -9 21 -23.5t27 -30.5t26 -30t17 -21q10 14 29 38t55 68l152 185h260zM335 805q0 36 25 55.5t60 19.5q36 0 61 -19.5t25 -55.5q0 -35 -25 -54t-61 -19q-35 0 -60 19t-25 54zM543 805q0 36 25 55.5t60 19.5
q36 0 61 -19.5t25 -55.5q0 -35 -25 -54t-61 -19q-35 0 -60 19t-25 54z" />
    <glyph glyph-name="Amacron" unicode="&#x100;" 
d="M346 0l125 172h168h62.5t56.5 -2q-14 18 -32.5 45.5t-35.5 51.5l-120 177l-314 -444h-245l429 605q21 29 53 52t81 23q47 0 78.5 -21.5t53.5 -53.5l418 -605h-778zM716 750h-298v83h298v-83z" />
    <glyph glyph-name="amacron" unicode="&#x101;" 
d="M346 0l125 172h168h62.5t56.5 -2q-14 18 -32.5 45.5t-35.5 51.5l-120 177l-314 -444h-245l429 605q21 29 53 52t81 23q47 0 78.5 -21.5t53.5 -53.5l418 -605h-778zM716 750h-298v83h298v-83z" />
    <glyph glyph-name="Abreve" unicode="&#x102;" 
d="M346 0l125 172h168h62.5t56.5 -2q-14 18 -32.5 45.5t-35.5 51.5l-120 177l-314 -444h-245l429 605q21 29 53 52t81 23q47 0 78.5 -21.5t53.5 -53.5l418 -605h-778zM727 867q0 -20 -6.5 -46t-21.5 -49.5t-39.5 -40t-60.5 -16.5h-62q-36 0 -60.5 16.5t-39.5 40t-22 49.5
t-7 46h100q0 -11 2.5 -27t9 -30t17 -24t27.5 -10h14q15 0 24.5 10t15 24t8 30t2.5 27h99z" />
    <glyph glyph-name="abreve" unicode="&#x103;" 
d="M346 0l125 172h168h62.5t56.5 -2q-14 18 -32.5 45.5t-35.5 51.5l-120 177l-314 -444h-245l429 605q21 29 53 52t81 23q47 0 78.5 -21.5t53.5 -53.5l418 -605h-778zM727 867q0 -20 -6.5 -46t-21.5 -49.5t-39.5 -40t-60.5 -16.5h-62q-36 0 -60.5 16.5t-39.5 40t-22 49.5
t-7 46h100q0 -11 2.5 -27t9 -30t17 -24t27.5 -10h14q15 0 24.5 10t15 24t8 30t2.5 27h99z" />
    <glyph glyph-name="Aogonek" unicode="&#x104;" 
d="M1124 -250h-104q-56 0 -87.5 26t-31.5 61q0 22 12 44.5t38 43.5l92 75h-697l125 172h168h62.5t56.5 -2q-14 18 -32.5 45.5t-35.5 51.5l-120 177l-314 -444h-245l429 605q21 29 53 52t81 23q47 0 78.5 -21.5t53.5 -53.5l418 -605l-109 -88q-10 -9 -10 -18q0 -16 22 -16h97
v-128z" />
    <glyph glyph-name="aogonek" unicode="&#x105;" 
d="M1124 -250h-104q-56 0 -87.5 26t-31.5 61q0 22 12 44.5t38 43.5l92 75h-697l125 172h168h62.5t56.5 -2q-14 18 -32.5 45.5t-35.5 51.5l-120 177l-314 -444h-245l429 605q21 29 53 52t81 23q47 0 78.5 -21.5t53.5 -53.5l418 -605l-109 -88q-10 -9 -10 -18q0 -16 22 -16h97
v-128z" />
    <glyph glyph-name="Cacute" unicode="&#x106;" horiz-adv-x="923" 
d="M914 172l-133 -172h-336q-87 0 -161 26t-127.5 71.5t-84 108t-30.5 135.5t30.5 133.5t84 104t127.5 67t161 23.5h469l-133 -174h-336q-42 0 -78 -12t-62 -33.5t-41 -51.5t-15 -66t14.5 -65.5t41 -50.5t62.5 -32.5t78 -11.5h469zM686 754l-298 -39v83l298 69v-113z" />
    <glyph glyph-name="cacute" unicode="&#x107;" horiz-adv-x="923" 
d="M914 172l-133 -172h-336q-87 0 -161 26t-127.5 71.5t-84 108t-30.5 135.5t30.5 133.5t84 104t127.5 67t161 23.5h469l-133 -174h-336q-42 0 -78 -12t-62 -33.5t-41 -51.5t-15 -66t14.5 -65.5t41 -50.5t62.5 -32.5t78 -11.5h469zM686 754l-298 -39v83l298 69v-113z" />
    <glyph glyph-name="Ccircumflex" unicode="&#x108;" horiz-adv-x="923" 
d="M914 172l-133 -172h-336q-87 0 -161 26t-127.5 71.5t-84 108t-30.5 135.5t30.5 133.5t84 104t127.5 67t161 23.5h469l-133 -174h-336q-42 0 -78 -12t-62 -33.5t-41 -51.5t-15 -66t14.5 -65.5t41 -50.5t62.5 -32.5t78 -11.5h469zM697 715h-99l-56 101h-9l-55 -101h-100
l95 152h131z" />
    <glyph glyph-name="ccircumflex" unicode="&#x109;" horiz-adv-x="923" 
d="M914 172l-133 -172h-336q-87 0 -161 26t-127.5 71.5t-84 108t-30.5 135.5t30.5 133.5t84 104t127.5 67t161 23.5h469l-133 -174h-336q-42 0 -78 -12t-62 -33.5t-41 -51.5t-15 -66t14.5 -65.5t41 -50.5t62.5 -32.5t78 -11.5h469zM697 715h-99l-56 101h-9l-55 -101h-100
l95 152h131z" />
    <glyph glyph-name="Cdotaccent" unicode="&#x10a;" horiz-adv-x="923" 
d="M914 172l-133 -172h-336q-87 0 -161 26t-127.5 71.5t-84 108t-30.5 135.5t30.5 133.5t84 104t127.5 67t161 23.5h469l-133 -174h-336q-42 0 -78 -12t-62 -33.5t-41 -51.5t-15 -66t14.5 -65.5t41 -50.5t62.5 -32.5t78 -11.5h469zM433 805q0 36 25 55.5t60 19.5
q36 0 61 -19.5t25 -55.5q0 -35 -25 -54t-61 -19q-35 0 -60 19t-25 54z" />
    <glyph glyph-name="cdotaccent" unicode="&#x10b;" horiz-adv-x="923" 
d="M914 172l-133 -172h-336q-87 0 -161 26t-127.5 71.5t-84 108t-30.5 135.5t30.5 133.5t84 104t127.5 67t161 23.5h469l-133 -174h-336q-42 0 -78 -12t-62 -33.5t-41 -51.5t-15 -66t14.5 -65.5t41 -50.5t62.5 -32.5t78 -11.5h469zM433 805q0 36 25 55.5t60 19.5
q36 0 61 -19.5t25 -55.5q0 -35 -25 -54t-61 -19q-35 0 -60 19t-25 54z" />
    <glyph glyph-name="Ccaron" unicode="&#x10c;" horiz-adv-x="923" 
d="M914 172l-133 -172h-336q-87 0 -161 26t-127.5 71.5t-84 108t-30.5 135.5t30.5 133.5t84 104t127.5 67t161 23.5h469l-133 -174h-336q-42 0 -78 -12t-62 -33.5t-41 -51.5t-15 -66t14.5 -65.5t41 -50.5t62.5 -32.5t78 -11.5h469zM350 867h100l56 -101h9l55 101h99
l-94 -152h-131z" />
    <glyph glyph-name="ccaron" unicode="&#x10d;" horiz-adv-x="923" 
d="M914 172l-133 -172h-336q-87 0 -161 26t-127.5 71.5t-84 108t-30.5 135.5t30.5 133.5t84 104t127.5 67t161 23.5h469l-133 -174h-336q-42 0 -78 -12t-62 -33.5t-41 -51.5t-15 -66t14.5 -65.5t41 -50.5t62.5 -32.5t78 -11.5h469zM350 867h100l56 -101h9l55 101h99
l-94 -152h-131z" />
    <glyph glyph-name="Dcaron" unicode="&#x10e;" horiz-adv-x="956" 
d="M914 341q0 -73 -30.5 -135.5t-84 -108t-127.5 -71.5t-161 -26h-448v417h208v-245h240q43 0 79.5 11.5t62.5 32.5t41 50.5t15 65.5q0 35 -15 65t-42 51.5t-63 34t-78 12.5h-448l132 174h316q88 0 162 -24t127.5 -67.5t83.5 -104t30 -132.5zM252 867h100l56 -101h9l55 101
h99l-94 -152h-131z" />
    <glyph glyph-name="dcaron" unicode="&#x10f;" horiz-adv-x="956" 
d="M914 341q0 -73 -30.5 -135.5t-84 -108t-127.5 -71.5t-161 -26h-448v417h208v-245h240q43 0 79.5 11.5t62.5 32.5t41 50.5t15 65.5q0 35 -15 65t-42 51.5t-63 34t-78 12.5h-448l132 174h316q88 0 162 -24t127.5 -67.5t83.5 -104t30 -132.5zM252 867h100l56 -101h9l55 101
h99l-94 -152h-131z" />
    <glyph glyph-name="Dcroat" unicode="&#x110;" horiz-adv-x="1041" 
d="M597 415l-118 -152h-123v-91h240q43 0 79.5 11.5t62.5 32.5t41 50.5t15 65.5q0 35 -15 65t-42 51.5t-63 34t-78 12.5h-447l131 174h316q88 0 162 -24t127.5 -67.5t83.5 -104t30 -132.5q0 -73 -30.5 -135.5t-84 -108t-127.5 -71.5t-161 -26h-447v263h-149l118 152h479z
" />
    <glyph glyph-name="dcroat" unicode="&#x111;" horiz-adv-x="1041" 
d="M597 415l-118 -152h-123v-91h240q43 0 79.5 11.5t62.5 32.5t41 50.5t15 65.5q0 35 -15 65t-42 51.5t-63 34t-78 12.5h-447l131 174h316q88 0 162 -24t127.5 -67.5t83.5 -104t30 -132.5q0 -73 -30.5 -135.5t-84 -108t-127.5 -71.5t-161 -26h-447v263h-149l118 152h479z
" />
    <glyph glyph-name="Emacron" unicode="&#x112;" horiz-adv-x="848" 
d="M840 172l-133 -172h-644v669h775l-134 -174h-433v-80h530l-119 -152h-411v-91h569zM572 750h-298v83h298v-83z" />
    <glyph glyph-name="emacron" unicode="&#x113;" horiz-adv-x="848" 
d="M840 172l-133 -172h-644v669h775l-134 -174h-433v-80h530l-119 -152h-411v-91h569zM572 750h-298v83h298v-83z" />
    <glyph glyph-name="Ebreve" unicode="&#x114;" horiz-adv-x="848" 
d="M840 172l-133 -172h-644v669h775l-134 -174h-433v-80h530l-119 -152h-411v-91h569zM584 867q0 -20 -6.5 -46t-21.5 -49.5t-39.5 -40t-60.5 -16.5h-62q-36 0 -60.5 16.5t-39.5 40t-22 49.5t-7 46h100q0 -11 2.5 -27t9 -30t17 -24t27.5 -10h14q15 0 24.5 10t15 24t8 30
t2.5 27h99z" />
    <glyph glyph-name="ebreve" unicode="&#x115;" horiz-adv-x="848" 
d="M840 172l-133 -172h-644v669h775l-134 -174h-433v-80h530l-119 -152h-411v-91h569zM584 867q0 -20 -6.5 -46t-21.5 -49.5t-39.5 -40t-60.5 -16.5h-62q-36 0 -60.5 16.5t-39.5 40t-22 49.5t-7 46h100q0 -11 2.5 -27t9 -30t17 -24t27.5 -10h14q15 0 24.5 10t15 24t8 30
t2.5 27h99z" />
    <glyph glyph-name="Edotaccent" unicode="&#x116;" horiz-adv-x="848" 
d="M840 172l-133 -172h-644v669h775l-134 -174h-433v-80h530l-119 -152h-411v-91h569zM355 805q0 36 25 55.5t60 19.5q36 0 61 -19.5t25 -55.5q0 -35 -25 -54t-61 -19q-35 0 -60 19t-25 54z" />
    <glyph glyph-name="edotaccent" unicode="&#x117;" horiz-adv-x="848" 
d="M840 172l-133 -172h-644v669h775l-134 -174h-433v-80h530l-119 -152h-411v-91h569zM355 805q0 36 25 55.5t60 19.5q36 0 61 -19.5t25 -55.5q0 -35 -25 -54t-61 -19q-35 0 -60 19t-25 54z" />
    <glyph glyph-name="Eogonek" unicode="&#x118;" horiz-adv-x="848" 
d="M746 -250h-91q-56 0 -87.5 26t-31.5 61q0 22 8 42t29 46l58 75h-568v669h775l-134 -174h-433v-80h530l-119 -152h-411v-91h569l-203 -260q-5 -6 -6 -8.5t-1 -9.5q0 -16 22 -16h94v-128z" />
    <glyph glyph-name="eogonek" unicode="&#x119;" horiz-adv-x="848" 
d="M746 -250h-91q-56 0 -87.5 26t-31.5 61q0 22 8 42t29 46l58 75h-568v669h775l-134 -174h-433v-80h530l-119 -152h-411v-91h569l-203 -260q-5 -6 -6 -8.5t-1 -9.5q0 -16 22 -16h94v-128z" />
    <glyph glyph-name="Ecaron" unicode="&#x11a;" horiz-adv-x="848" 
d="M840 172l-133 -172h-644v669h775l-134 -174h-433v-80h530l-119 -152h-411v-91h569zM273 867h100l56 -101h9l55 101h99l-94 -152h-131z" />
    <glyph glyph-name="ecaron" unicode="&#x11b;" horiz-adv-x="848" 
d="M840 172l-133 -172h-644v669h775l-134 -174h-433v-80h530l-119 -152h-411v-91h569zM273 867h100l56 -101h9l55 101h99l-94 -152h-131z" />
    <glyph glyph-name="Gcircumflex" unicode="&#x11c;" horiz-adv-x="960" 
d="M476 418h428v-418h-459q-87 0 -161 26t-127.5 71.5t-84 108t-30.5 135.5t30.5 133.5t84 104t127.5 67t161 23.5h479l-134 -174h-345q-42 0 -78 -12t-62.5 -34t-41.5 -51.5t-15 -65.5t14.5 -65.5t41 -50.5t62.5 -32.5t79 -11.5h253v97h-346zM669 715h-99l-56 101h-9
l-55 -101h-100l95 152h131z" />
    <glyph glyph-name="gcircumflex" unicode="&#x11d;" horiz-adv-x="960" 
d="M476 418h428v-418h-459q-87 0 -161 26t-127.5 71.5t-84 108t-30.5 135.5t30.5 133.5t84 104t127.5 67t161 23.5h479l-134 -174h-345q-42 0 -78 -12t-62.5 -34t-41.5 -51.5t-15 -65.5t14.5 -65.5t41 -50.5t62.5 -32.5t79 -11.5h253v97h-346zM669 715h-99l-56 101h-9
l-55 -101h-100l95 152h131z" />
    <glyph glyph-name="Gbreve" unicode="&#x11e;" horiz-adv-x="960" 
d="M476 418h428v-418h-459q-87 0 -161 26t-127.5 71.5t-84 108t-30.5 135.5t30.5 133.5t84 104t127.5 67t161 23.5h479l-134 -174h-345q-42 0 -78 -12t-62.5 -34t-41.5 -51.5t-15 -65.5t14.5 -65.5t41 -50.5t62.5 -32.5t79 -11.5h253v97h-346zM669 867q0 -20 -6.5 -46
t-21.5 -49.5t-39.5 -40t-60.5 -16.5h-62q-36 0 -60.5 16.5t-39.5 40t-22 49.5t-7 46h100q0 -11 2.5 -27t9 -30t17 -24t27.5 -10h14q15 0 24.5 10t15 24t8 30t2.5 27h99z" />
    <glyph glyph-name="gbreve" unicode="&#x11f;" horiz-adv-x="960" 
d="M476 418h428v-418h-459q-87 0 -161 26t-127.5 71.5t-84 108t-30.5 135.5t30.5 133.5t84 104t127.5 67t161 23.5h479l-134 -174h-345q-42 0 -78 -12t-62.5 -34t-41.5 -51.5t-15 -65.5t14.5 -65.5t41 -50.5t62.5 -32.5t79 -11.5h253v97h-346zM669 867q0 -20 -6.5 -46
t-21.5 -49.5t-39.5 -40t-60.5 -16.5h-62q-36 0 -60.5 16.5t-39.5 40t-22 49.5t-7 46h100q0 -11 2.5 -27t9 -30t17 -24t27.5 -10h14q15 0 24.5 10t15 24t8 30t2.5 27h99z" />
    <glyph glyph-name="Gdotaccent" unicode="&#x120;" horiz-adv-x="960" 
d="M476 418h428v-418h-459q-87 0 -161 26t-127.5 71.5t-84 108t-30.5 135.5t30.5 133.5t84 104t127.5 67t161 23.5h479l-134 -174h-345q-42 0 -78 -12t-62.5 -34t-41.5 -51.5t-15 -65.5t14.5 -65.5t41 -50.5t62.5 -32.5t79 -11.5h253v97h-346zM433 805q0 36 25 55.5t60 19.5
q36 0 61 -19.5t25 -55.5q0 -35 -25 -54t-61 -19q-35 0 -60 19t-25 54z" />
    <glyph glyph-name="gdotaccent" unicode="&#x121;" horiz-adv-x="960" 
d="M476 418h428v-418h-459q-87 0 -161 26t-127.5 71.5t-84 108t-30.5 135.5t30.5 133.5t84 104t127.5 67t161 23.5h479l-134 -174h-345q-42 0 -78 -12t-62.5 -34t-41.5 -51.5t-15 -65.5t14.5 -65.5t41 -50.5t62.5 -32.5t79 -11.5h253v97h-346zM433 805q0 36 25 55.5t60 19.5
q36 0 61 -19.5t25 -55.5q0 -35 -25 -54t-61 -19q-35 0 -60 19t-25 54z" />
    <glyph glyph-name="Gcommaaccent" unicode="&#x122;" horiz-adv-x="960" 
d="M476 418h428v-418h-459q-87 0 -161 26t-127.5 71.5t-84 108t-30.5 135.5t30.5 133.5t84 104t127.5 67t161 23.5h479l-134 -174h-345q-42 0 -78 -12t-62.5 -34t-41.5 -51.5t-15 -65.5t14.5 -65.5t41 -50.5t62.5 -32.5t79 -11.5h253v97h-346zM623 -31l-83 -224h-72v224h155
z" />
    <glyph glyph-name="gcommaaccent" unicode="&#x123;" horiz-adv-x="960" 
d="M476 418h428v-418h-459q-87 0 -161 26t-127.5 71.5t-84 108t-30.5 135.5t30.5 133.5t84 104t127.5 67t161 23.5h479l-134 -174h-345q-42 0 -78 -12t-62.5 -34t-41.5 -51.5t-15 -65.5t14.5 -65.5t41 -50.5t62.5 -32.5t79 -11.5h253v97h-346zM623 -31l-83 -224h-72v224h155
z" />
    <glyph glyph-name="Hcircumflex" unicode="&#x124;" horiz-adv-x="939" 
d="M875 0h-206v258h-398v-258h-208v669h208v-237h398v237h206v-669zM628 715h-99l-56 101h-9l-55 -101h-100l95 152h131z" />
    <glyph glyph-name="hcircumflex" unicode="&#x125;" horiz-adv-x="939" 
d="M875 0h-206v258h-398v-258h-208v669h208v-237h398v237h206v-669zM628 715h-99l-56 101h-9l-55 -101h-100l95 152h131z" />
    <glyph glyph-name="Hbar" unicode="&#x126;" horiz-adv-x="939" 
d="M875 0h-206v258h-398v-258h-208v669h208v-73h398v73h206v-669zM669 432v92h-398v-92h398z" />
    <glyph glyph-name="hbar" unicode="&#x127;" horiz-adv-x="939" 
d="M875 0h-206v258h-398v-258h-208v669h208v-73h398v73h206v-669zM669 432v92h-398v-92h398z" />
    <glyph glyph-name="Itilde" unicode="&#x128;" horiz-adv-x="339" 
d="M273 0h-207v669h207v-669zM244 732q-19 0 -37 6.5t-35.5 14t-35.5 14t-37 6.5q-23 0 -43.5 -10.5t-33.5 -25.5v83q14 16 34 23t43 7q19 0 37 -6.5t35.5 -14.5t35 -14.5t37.5 -6.5q23 0 43 10.5t33 25.5v-82q-14 -17 -33.5 -23.5t-42.5 -6.5z" />
    <glyph glyph-name="itilde" unicode="&#x129;" horiz-adv-x="339" 
d="M273 0h-207v669h207v-669zM244 732q-19 0 -37 6.5t-35.5 14t-35.5 14t-37 6.5q-23 0 -43.5 -10.5t-33.5 -25.5v83q14 16 34 23t43 7q19 0 37 -6.5t35.5 -14.5t35 -14.5t37.5 -6.5q23 0 43 10.5t33 25.5v-82q-14 -17 -33.5 -23.5t-42.5 -6.5z" />
    <glyph glyph-name="uni012A" unicode="&#x12a;" horiz-adv-x="339" 
d="M273 0h-207v669h207v-669zM320 750h-298v83h298v-83z" />
    <glyph glyph-name="imacron" unicode="&#x12b;" horiz-adv-x="339" 
d="M273 0h-207v669h207v-669zM320 750h-298v83h298v-83z" />
    <glyph glyph-name="Ibreve" unicode="&#x12c;" horiz-adv-x="339" 
d="M273 0h-207v669h207v-669zM330 867q0 -20 -6.5 -46t-21.5 -49.5t-39.5 -40t-60.5 -16.5h-62q-36 0 -60.5 16.5t-39.5 40t-22 49.5t-7 46h100q0 -11 2.5 -27t9 -30t17 -24t27.5 -10h14q15 0 24.5 10t15 24t8 30t2.5 27h99z" />
    <glyph glyph-name="ibreve" unicode="&#x12d;" horiz-adv-x="339" 
d="M273 0h-207v669h207v-669zM330 867q0 -20 -6.5 -46t-21.5 -49.5t-39.5 -40t-60.5 -16.5h-62q-36 0 -60.5 16.5t-39.5 40t-22 49.5t-7 46h100q0 -11 2.5 -27t9 -30t17 -24t27.5 -10h14q15 0 24.5 10t15 24t8 30t2.5 27h99z" />
    <glyph glyph-name="Iogonek" unicode="&#x12e;" horiz-adv-x="339" 
d="M273 -250h-105q-55 0 -87 26t-32 61q0 22 12 44.5t38 43.5l92 75h-125v669h207v-669l-109 -88q-11 -8 -11 -18q0 -16 22 -16h98v-128z" />
    <glyph glyph-name="iogonek" unicode="&#x12f;" horiz-adv-x="339" 
d="M273 -250h-105q-55 0 -87 26t-32 61q0 22 12 44.5t38 43.5l92 75h-125v669h207v-669l-109 -88q-11 -8 -11 -18q0 -16 22 -16h98v-128z" />
    <glyph glyph-name="Idotaccent" unicode="&#x130;" horiz-adv-x="339" 
d="M273 0h-207v669h207v-669zM85 805q0 36 25 55.5t60 19.5q36 0 61 -19.5t25 -55.5q0 -35 -25 -54t-61 -19q-35 0 -60 19t-25 54z" />
    <glyph glyph-name="dotlessi" unicode="&#x131;" horiz-adv-x="339" 
d="M273 0h-207v669h207v-669z" />
    <glyph glyph-name="IJ" unicode="&#x132;" horiz-adv-x="1071" 
d="M273 0h-207v669h207v-669zM600 172q59 0 99.5 7t65 23t35 41t10.5 61v365h208v-365q0 -304 -418 -304h-250l135 172h115z" />
    <glyph glyph-name="ij" unicode="&#x133;" horiz-adv-x="1071" 
d="M273 0h-207v669h207v-669zM600 172q59 0 99.5 7t65 23t35 41t10.5 61v365h208v-365q0 -304 -418 -304h-250l135 172h115z" />
    <glyph glyph-name="Jcircumflex" unicode="&#x134;" horiz-adv-x="732" 
d="M261 172q59 0 99.5 7t65 23t35 41t10.5 61v365h208v-365q0 -304 -418 -304h-250l135 172h115zM676 715h-99l-56 101h-9l-55 -101h-100l95 152h131z" />
    <glyph glyph-name="jcircumflex" unicode="&#x135;" horiz-adv-x="732" 
d="M261 172q59 0 99.5 7t65 23t35 41t10.5 61v365h208v-365q0 -304 -418 -304h-250l135 172h115zM676 715h-99l-56 101h-9l-55 -101h-100l95 152h131z" />
    <glyph glyph-name="Kcommaaccent" unicode="&#x136;" horiz-adv-x="912" 
d="M907 0h-313l-202 176q-52 45 -79.5 70t-44.5 42q1 -23 2 -47.5t1 -48.5v-192h-208v669h208v-155q0 -31 -1 -61t-3 -56q20 18 48.5 44.5t74.5 64.5l193 163h300l-256 -192q-33 -25 -58.5 -44t-45.5 -33t-36.5 -25t-32.5 -21q29 -20 70 -50t106 -83zM504 -31l-83 -224h-72
v224h155z" />
    <glyph glyph-name="kcommaaccent" unicode="&#x137;" horiz-adv-x="912" 
d="M907 0h-313l-202 176q-52 45 -79.5 70t-44.5 42q1 -23 2 -47.5t1 -48.5v-192h-208v669h208v-155q0 -31 -1 -61t-3 -56q20 18 48.5 44.5t74.5 64.5l193 163h300l-256 -192q-33 -25 -58.5 -44t-45.5 -33t-36.5 -25t-32.5 -21q29 -20 70 -50t106 -83zM504 -31l-83 -224h-72
v224h155z" />
    <glyph glyph-name="Lacute" unicode="&#x139;" horiz-adv-x="794" 
d="M788 172l-134 -172h-591v669h207v-497h518zM366 754l-298 -39v83l298 69v-113z" />
    <glyph glyph-name="lacute" unicode="&#x13a;" horiz-adv-x="794" 
d="M788 172l-134 -172h-591v669h207v-497h518zM366 754l-298 -39v83l298 69v-113z" />
    <glyph glyph-name="Lcommaaccent" unicode="&#x13b;" horiz-adv-x="794" 
d="M788 172l-134 -172h-591v669h207v-497h518zM427 -31l-83 -224h-72v224h155z" />
    <glyph glyph-name="lcommaaccent" unicode="&#x13c;" horiz-adv-x="794" 
d="M788 172l-134 -172h-591v669h207v-497h518zM427 -31l-83 -224h-72v224h155z" />
    <glyph glyph-name="Lcaron" unicode="&#x13d;" horiz-adv-x="794" 
d="M788 172l-134 -172h-591v669h207v-497h518zM599 669l-99 -268h-86v268h185z" />
    <glyph glyph-name="lcaron" unicode="&#x13e;" horiz-adv-x="794" 
d="M788 172l-134 -172h-591v669h207v-497h518zM599 669l-99 -268h-86v268h185z" />
    <glyph glyph-name="Ldot" unicode="&#x13f;" horiz-adv-x="794" 
d="M788 172l-134 -172h-591v669h207v-497h518zM336 377q0 36 25 55.5t60 19.5q36 0 61 -19.5t25 -55.5q0 -35 -25 -54t-61 -19q-35 0 -60 19t-25 54z" />
    <glyph glyph-name="ldot" unicode="&#x140;" horiz-adv-x="794" 
d="M788 172l-134 -172h-591v669h207v-497h518zM336 377q0 36 25 55.5t60 19.5q36 0 61 -19.5t25 -55.5q0 -35 -25 -54t-61 -19q-35 0 -60 19t-25 54z" />
    <glyph glyph-name="Lslash" unicode="&#x141;" horiz-adv-x="794" 
d="M788 172l-134 -172h-591v669h207v-233h327l-118 -151h-209v-113h518z" />
    <glyph glyph-name="lslash" unicode="&#x142;" horiz-adv-x="794" 
d="M788 172l-134 -172h-591v669h207v-233h327l-118 -151h-209v-113h518z" />
    <glyph glyph-name="Nacute" unicode="&#x143;" horiz-adv-x="914" 
d="M741 -11q-20 0 -39.5 6.5t-43.5 29.5l-410 368v-393h-188v555q0 33 9.5 57t25 39t36 22t42.5 7q19 0 38.5 -6.5t44.5 -29.5l410 -368v393h189v-554q0 -33 -9.5 -57t-25 -39.5t-36.5 -22.5t-43 -7zM615 754l-298 -39v83l298 69v-113z" />
    <glyph glyph-name="nacute" unicode="&#x144;" horiz-adv-x="914" 
d="M741 -11q-20 0 -39.5 6.5t-43.5 29.5l-410 368v-393h-188v555q0 33 9.5 57t25 39t36 22t42.5 7q19 0 38.5 -6.5t44.5 -29.5l410 -368v393h189v-554q0 -33 -9.5 -57t-25 -39.5t-36.5 -22.5t-43 -7zM615 754l-298 -39v83l298 69v-113z" />
    <glyph glyph-name="Ncommaaccent" unicode="&#x145;" horiz-adv-x="914" 
d="M741 -11q-20 0 -39.5 6.5t-43.5 29.5l-410 368v-393h-188v555q0 33 9.5 57t25 39t36 22t42.5 7q19 0 38.5 -6.5t44.5 -29.5l410 -368v393h189v-554q0 -33 -9.5 -57t-25 -39.5t-36.5 -22.5t-43 -7zM506 -31l-83 -224h-72v224h155z" />
    <glyph glyph-name="ncommaaccent" unicode="&#x146;" horiz-adv-x="914" 
d="M741 -11q-20 0 -39.5 6.5t-43.5 29.5l-410 368v-393h-188v555q0 33 9.5 57t25 39t36 22t42.5 7q19 0 38.5 -6.5t44.5 -29.5l410 -368v393h189v-554q0 -33 -9.5 -57t-25 -39.5t-36.5 -22.5t-43 -7zM506 -31l-83 -224h-72v224h155z" />
    <glyph glyph-name="Ncaron" unicode="&#x147;" horiz-adv-x="914" 
d="M741 -11q-20 0 -39.5 6.5t-43.5 29.5l-410 368v-393h-188v555q0 33 9.5 57t25 39t36 22t42.5 7q19 0 38.5 -6.5t44.5 -29.5l410 -368v393h189v-554q0 -33 -9.5 -57t-25 -39.5t-36.5 -22.5t-43 -7zM297 867h100l56 -101h9l55 101h99l-94 -152h-131z" />
    <glyph glyph-name="ncaron" unicode="&#x148;" horiz-adv-x="914" 
d="M741 -11q-20 0 -39.5 6.5t-43.5 29.5l-410 368v-393h-188v555q0 33 9.5 57t25 39t36 22t42.5 7q19 0 38.5 -6.5t44.5 -29.5l410 -368v393h189v-554q0 -33 -9.5 -57t-25 -39.5t-36.5 -22.5t-43 -7zM297 867h100l56 -101h9l55 101h99l-94 -152h-131z" />
    <glyph glyph-name="Eng" unicode="&#x14a;" horiz-adv-x="914" 
d="M437 -82q106 0 160.5 23t65.5 78l-415 374v-393h-188v555q0 33 9.5 57t25 39t36 22t42.5 7q19 0 38.5 -6.5t44.5 -29.5l410 -368v393h189v-620q0 -304 -418 -304h-152l134 173h18z" />
    <glyph glyph-name="eng" unicode="&#x14b;" horiz-adv-x="914" 
d="M437 -82q106 0 160.5 23t65.5 78l-415 374v-393h-188v555q0 33 9.5 57t25 39t36 22t42.5 7q19 0 38.5 -6.5t44.5 -29.5l410 -368v393h189v-620q0 -304 -418 -304h-152l134 173h18z" />
    <glyph glyph-name="Omacron" unicode="&#x14c;" horiz-adv-x="1062" 
d="M531 680q244 0 366.5 -83t122.5 -262q0 -180 -122 -263t-367 -83q-246 0 -367.5 83t-121.5 263q0 179 122 262t367 83zM531 163q78 0 132 6.5t87.5 25.5t48.5 52.5t15 87.5t-15 87.5t-48.5 52t-87.5 25t-132 6.5t-132 -6.5t-87.5 -25t-48.5 -52t-15 -87.5t15 -87.5
t48.5 -52.5t87.5 -25.5t132 -6.5zM679 750h-298v83h298v-83z" />
    <glyph glyph-name="omacron" unicode="&#x14d;" horiz-adv-x="1062" 
d="M531 680q244 0 366.5 -83t122.5 -262q0 -180 -122 -263t-367 -83q-246 0 -367.5 83t-121.5 263q0 179 122 262t367 83zM531 163q78 0 132 6.5t87.5 25.5t48.5 52.5t15 87.5t-15 87.5t-48.5 52t-87.5 25t-132 6.5t-132 -6.5t-87.5 -25t-48.5 -52t-15 -87.5t15 -87.5
t48.5 -52.5t87.5 -25.5t132 -6.5zM679 750h-298v83h298v-83z" />
    <glyph glyph-name="Obreve" unicode="&#x14e;" horiz-adv-x="1062" 
d="M531 680q244 0 366.5 -83t122.5 -262q0 -180 -122 -263t-367 -83q-246 0 -367.5 83t-121.5 263q0 179 122 262t367 83zM531 163q78 0 132 6.5t87.5 25.5t48.5 52.5t15 87.5t-15 87.5t-48.5 52t-87.5 25t-132 6.5t-132 -6.5t-87.5 -25t-48.5 -52t-15 -87.5t15 -87.5
t48.5 -52.5t87.5 -25.5t132 -6.5zM690 867q0 -20 -6.5 -46t-21.5 -49.5t-39.5 -40t-60.5 -16.5h-62q-36 0 -60.5 16.5t-39.5 40t-22 49.5t-7 46h100q0 -11 2.5 -27t9 -30t17 -24t27.5 -10h14q15 0 24.5 10t15 24t8 30t2.5 27h99z" />
    <glyph glyph-name="obreve" unicode="&#x14f;" horiz-adv-x="1062" 
d="M531 680q244 0 366.5 -83t122.5 -262q0 -180 -122 -263t-367 -83q-246 0 -367.5 83t-121.5 263q0 179 122 262t367 83zM531 163q78 0 132 6.5t87.5 25.5t48.5 52.5t15 87.5t-15 87.5t-48.5 52t-87.5 25t-132 6.5t-132 -6.5t-87.5 -25t-48.5 -52t-15 -87.5t15 -87.5
t48.5 -52.5t87.5 -25.5t132 -6.5zM690 867q0 -20 -6.5 -46t-21.5 -49.5t-39.5 -40t-60.5 -16.5h-62q-36 0 -60.5 16.5t-39.5 40t-22 49.5t-7 46h100q0 -11 2.5 -27t9 -30t17 -24t27.5 -10h14q15 0 24.5 10t15 24t8 30t2.5 27h99z" />
    <glyph glyph-name="Ohungarumlaut" unicode="&#x150;" horiz-adv-x="1062" 
d="M531 680q244 0 366.5 -83t122.5 -262q0 -180 -122 -263t-367 -83q-246 0 -367.5 83t-121.5 263q0 179 122 262t367 83zM531 163q78 0 132 6.5t87.5 25.5t48.5 52.5t15 87.5t-15 87.5t-48.5 52t-87.5 25t-132 6.5t-132 -6.5t-87.5 -25t-48.5 -52t-15 -87.5t15 -87.5
t48.5 -52.5t87.5 -25.5t132 -6.5zM627 725h-76l50 142h125zM444 725h-75l49 142h126z" />
    <glyph glyph-name="ohungarumlaut" unicode="&#x151;" horiz-adv-x="1062" 
d="M531 680q244 0 366.5 -83t122.5 -262q0 -180 -122 -263t-367 -83q-246 0 -367.5 83t-121.5 263q0 179 122 262t367 83zM531 163q78 0 132 6.5t87.5 25.5t48.5 52.5t15 87.5t-15 87.5t-48.5 52t-87.5 25t-132 6.5t-132 -6.5t-87.5 -25t-48.5 -52t-15 -87.5t15 -87.5
t48.5 -52.5t87.5 -25.5t132 -6.5zM627 725h-76l50 142h125zM444 725h-75l49 142h126z" />
    <glyph glyph-name="OE" unicode="&#x152;" horiz-adv-x="1506" 
d="M1498 172l-133 -172h-644q-35 -5 -83 -8t-107 -3q-246 0 -367.5 83t-121.5 263q0 179 122 262t367 83q59 0 107 -3t83 -8h774l-133 -174h-434v-80h530l-118 -152h-412v-91h570zM531 163q63 0 110 4t80 15v305q-33 11 -80 15t-110 4q-78 0 -132 -6.5t-87.5 -25t-48.5 -52
t-15 -87.5t15 -87.5t48.5 -52.5t87.5 -25.5t132 -6.5z" />
    <glyph glyph-name="oe" unicode="&#x153;" horiz-adv-x="1506" 
d="M1498 172l-133 -172h-644q-35 -5 -83 -8t-107 -3q-246 0 -367.5 83t-121.5 263q0 179 122 262t367 83q59 0 107 -3t83 -8h774l-133 -174h-434v-80h530l-118 -152h-412v-91h570zM531 163q63 0 110 4t80 15v305q-33 11 -80 15t-110 4q-78 0 -132 -6.5t-87.5 -25t-48.5 -52
t-15 -87.5t15 -87.5t48.5 -52.5t87.5 -25.5t132 -6.5z" />
    <glyph glyph-name="Racute" unicode="&#x154;" horiz-adv-x="1023" 
d="M1012 0h-277l-149 177h-318v-177h-207v342h582q48 0 81 20t33 55q0 39 -30 58.5t-84 19.5h-582l135 174h430q57 0 118 -10.5t111 -37.5t82.5 -73t32.5 -118q0 -39 -12 -74t-34.5 -63t-55 -47.5t-73.5 -27.5q17 -13 38 -33t56 -55zM661 754l-298 -39v83l298 69v-113z" />
    <glyph glyph-name="racute" unicode="&#x155;" horiz-adv-x="1023" 
d="M1012 0h-277l-149 177h-318v-177h-207v342h582q48 0 81 20t33 55q0 39 -30 58.5t-84 19.5h-582l135 174h430q57 0 118 -10.5t111 -37.5t82.5 -73t32.5 -118q0 -39 -12 -74t-34.5 -63t-55 -47.5t-73.5 -27.5q17 -13 38 -33t56 -55zM661 754l-298 -39v83l298 69v-113z" />
    <glyph glyph-name="Rcommaaccent" unicode="&#x156;" horiz-adv-x="1023" 
d="M1012 0h-277l-149 177h-318v-177h-207v342h582q48 0 81 20t33 55q0 39 -30 58.5t-84 19.5h-582l135 174h430q57 0 118 -10.5t111 -37.5t82.5 -73t32.5 -118q0 -39 -12 -74t-34.5 -63t-55 -47.5t-73.5 -27.5q17 -13 38 -33t56 -55zM570 -31l-83 -224h-72v224h155z" />
    <glyph glyph-name="rcommaaccent" unicode="&#x157;" horiz-adv-x="1023" 
d="M1012 0h-277l-149 177h-318v-177h-207v342h582q48 0 81 20t33 55q0 39 -30 58.5t-84 19.5h-582l135 174h430q57 0 118 -10.5t111 -37.5t82.5 -73t32.5 -118q0 -39 -12 -74t-34.5 -63t-55 -47.5t-73.5 -27.5q17 -13 38 -33t56 -55zM570 -31l-83 -224h-72v224h155z" />
    <glyph glyph-name="Rcaron" unicode="&#x158;" horiz-adv-x="1023" 
d="M1012 0h-277l-149 177h-318v-177h-207v342h582q48 0 81 20t33 55q0 39 -30 58.5t-84 19.5h-582l135 174h430q57 0 118 -10.5t111 -37.5t82.5 -73t32.5 -118q0 -39 -12 -74t-34.5 -63t-55 -47.5t-73.5 -27.5q17 -13 38 -33t56 -55zM323 867h100l56 -101h9l55 101h99
l-94 -152h-131z" />
    <glyph glyph-name="rcaron" unicode="&#x159;" horiz-adv-x="1023" 
d="M1012 0h-277l-149 177h-318v-177h-207v342h582q48 0 81 20t33 55q0 39 -30 58.5t-84 19.5h-582l135 174h430q57 0 118 -10.5t111 -37.5t82.5 -73t32.5 -118q0 -39 -12 -74t-34.5 -63t-55 -47.5t-73.5 -27.5q17 -13 38 -33t56 -55zM323 867h100l56 -101h9l55 101h99
l-94 -152h-131z" />
    <glyph glyph-name="Sacute" unicode="&#x15a;" horiz-adv-x="963" 
d="M683 402q123 0 187 -45.5t64 -137.5q0 -51 -16 -92t-51 -69t-89.5 -43t-130.5 -15h-623l133 172h506q37 0 54 11.5t17 37.5t-17 37t-54 11h-364q-65 0 -112 14t-78 39t-46 60.5t-15 78.5q0 47 16.5 85.5t51 65.5t89 42t130.5 15h581l-133 -174h-464q-36 0 -53.5 -10
t-17.5 -36t17.5 -36.5t53.5 -10.5h364zM649 754l-298 -39v83l298 69v-113z" />
    <glyph glyph-name="sacute" unicode="&#x15b;" horiz-adv-x="963" 
d="M683 402q123 0 187 -45.5t64 -137.5q0 -51 -16 -92t-51 -69t-89.5 -43t-130.5 -15h-623l133 172h506q37 0 54 11.5t17 37.5t-17 37t-54 11h-364q-65 0 -112 14t-78 39t-46 60.5t-15 78.5q0 47 16.5 85.5t51 65.5t89 42t130.5 15h581l-133 -174h-464q-36 0 -53.5 -10
t-17.5 -36t17.5 -36.5t53.5 -10.5h364zM649 754l-298 -39v83l298 69v-113z" />
    <glyph glyph-name="Scircumflex" unicode="&#x15c;" horiz-adv-x="963" 
d="M683 402q123 0 187 -45.5t64 -137.5q0 -51 -16 -92t-51 -69t-89.5 -43t-130.5 -15h-623l133 172h506q37 0 54 11.5t17 37.5t-17 37t-54 11h-364q-65 0 -112 14t-78 39t-46 60.5t-15 78.5q0 47 16.5 85.5t51 65.5t89 42t130.5 15h581l-133 -174h-464q-36 0 -53.5 -10
t-17.5 -36t17.5 -36.5t53.5 -10.5h364zM659 715h-99l-56 101h-9l-55 -101h-100l95 152h131z" />
    <glyph glyph-name="scircumflex" unicode="&#x15d;" horiz-adv-x="963" 
d="M683 402q123 0 187 -45.5t64 -137.5q0 -51 -16 -92t-51 -69t-89.5 -43t-130.5 -15h-623l133 172h506q37 0 54 11.5t17 37.5t-17 37t-54 11h-364q-65 0 -112 14t-78 39t-46 60.5t-15 78.5q0 47 16.5 85.5t51 65.5t89 42t130.5 15h581l-133 -174h-464q-36 0 -53.5 -10
t-17.5 -36t17.5 -36.5t53.5 -10.5h364zM659 715h-99l-56 101h-9l-55 -101h-100l95 152h131z" />
    <glyph glyph-name="Scedilla" unicode="&#x15e;" horiz-adv-x="963" 
d="M683 402q123 0 187 -45.5t64 -137.5q0 -51 -16 -92t-51 -69t-89.5 -43t-130.5 -15h-623l133 172h506q37 0 54 11.5t17 37.5t-17 37t-54 11h-364q-65 0 -112 14t-78 39t-46 60.5t-15 78.5q0 47 16.5 85.5t51 65.5t89 42t130.5 15h581l-133 -174h-464q-36 0 -53.5 -10
t-17.5 -36t17.5 -36.5t53.5 -10.5h364zM558 -31l-82 -224h-72v224h154z" />
    <glyph glyph-name="scedilla" unicode="&#x15f;" horiz-adv-x="963" 
d="M683 402q123 0 187 -45.5t64 -137.5q0 -51 -16 -92t-51 -69t-89.5 -43t-130.5 -15h-623l133 172h506q37 0 54 11.5t17 37.5t-17 37t-54 11h-364q-65 0 -112 14t-78 39t-46 60.5t-15 78.5q0 47 16.5 85.5t51 65.5t89 42t130.5 15h581l-133 -174h-464q-36 0 -53.5 -10
t-17.5 -36t17.5 -36.5t53.5 -10.5h364zM558 -31l-82 -224h-72v224h154z" />
    <glyph glyph-name="Scaron" unicode="&#x160;" horiz-adv-x="963" 
d="M683 402q123 0 187 -45.5t64 -137.5q0 -51 -16 -92t-51 -69t-89.5 -43t-130.5 -15h-623l133 172h506q37 0 54 11.5t17 37.5t-17 37t-54 11h-364q-65 0 -112 14t-78 39t-46 60.5t-15 78.5q0 47 16.5 85.5t51 65.5t89 42t130.5 15h581l-133 -174h-464q-36 0 -53.5 -10
t-17.5 -36t17.5 -36.5t53.5 -10.5h364zM326 867h100l56 -101h9l55 101h99l-94 -152h-131z" />
    <glyph glyph-name="scaron" unicode="&#x161;" horiz-adv-x="963" 
d="M683 402q123 0 187 -45.5t64 -137.5q0 -51 -16 -92t-51 -69t-89.5 -43t-130.5 -15h-623l133 172h506q37 0 54 11.5t17 37.5t-17 37t-54 11h-364q-65 0 -112 14t-78 39t-46 60.5t-15 78.5q0 47 16.5 85.5t51 65.5t89 42t130.5 15h581l-133 -174h-464q-36 0 -53.5 -10
t-17.5 -36t17.5 -36.5t53.5 -10.5h364zM326 867h100l56 -101h9l55 101h99l-94 -152h-131z" />
    <glyph glyph-name="Tcommaaccent" unicode="&#x162;" horiz-adv-x="894" 
d="M894 669l-134 -174h-239v-495h-207v495h-314l134 174h760zM496 -31l-83 -224h-72v224h155z" />
    <glyph glyph-name="tcommaaccent" unicode="&#x163;" horiz-adv-x="894" 
d="M894 669l-134 -174h-239v-495h-207v495h-314l134 174h760zM496 -31l-83 -224h-72v224h155z" />
    <glyph glyph-name="Tcaron" unicode="&#x164;" horiz-adv-x="894" 
d="M894 669l-134 -174h-239v-495h-207v495h-314l134 174h760zM259 867h100l56 -101h9l55 101h99l-94 -152h-131z" />
    <glyph glyph-name="tcaron" unicode="&#x165;" horiz-adv-x="894" 
d="M894 669l-134 -174h-239v-495h-207v495h-314l134 174h760zM259 867h100l56 -101h9l55 101h99l-94 -152h-131z" />
    <glyph glyph-name="Tbar" unicode="&#x166;" horiz-adv-x="894" 
d="M314 403v92h-314l134 174h760l-134 -174h-239v-92h167l-101 -129h-66v-274h-207v274h-160l102 129h58z" />
    <glyph glyph-name="tbar" unicode="&#x167;" horiz-adv-x="894" 
d="M314 403v92h-314l134 174h760l-134 -174h-239v-92h167l-101 -129h-66v-274h-207v274h-160l102 129h58z" />
    <glyph glyph-name="Utilde" unicode="&#x168;" horiz-adv-x="986" 
d="M932 292q0 -303 -417 -303q-121 0 -208 19t-143.5 57t-83 94.5t-26.5 132.5v377h206v-377q0 -37 10 -62t37.5 -40.5t77.5 -22t130 -6.5q60 0 100 7t64 23t34.5 41t10.5 60v377h208v-377zM565 732q-19 0 -37 6.5t-35.5 14t-35.5 14t-37 6.5q-23 0 -43.5 -10.5t-33.5 -25.5
v83q14 16 34 23t43 7q19 0 37 -6.5t35.5 -14.5t35 -14.5t37.5 -6.5q23 0 43 10.5t33 25.5v-82q-14 -17 -33.5 -23.5t-42.5 -6.5z" />
    <glyph glyph-name="utilde" unicode="&#x169;" horiz-adv-x="986" 
d="M932 292q0 -303 -417 -303q-121 0 -208 19t-143.5 57t-83 94.5t-26.5 132.5v377h206v-377q0 -37 10 -62t37.5 -40.5t77.5 -22t130 -6.5q60 0 100 7t64 23t34.5 41t10.5 60v377h208v-377zM565 732q-19 0 -37 6.5t-35.5 14t-35.5 14t-37 6.5q-23 0 -43.5 -10.5t-33.5 -25.5
v83q14 16 34 23t43 7q19 0 37 -6.5t35.5 -14.5t35 -14.5t37.5 -6.5q23 0 43 10.5t33 25.5v-82q-14 -17 -33.5 -23.5t-42.5 -6.5z" />
    <glyph glyph-name="Umacron" unicode="&#x16a;" horiz-adv-x="986" 
d="M932 292q0 -303 -417 -303q-121 0 -208 19t-143.5 57t-83 94.5t-26.5 132.5v377h206v-377q0 -37 10 -62t37.5 -40.5t77.5 -22t130 -6.5q60 0 100 7t64 23t34.5 41t10.5 60v377h208v-377zM641 750h-298v83h298v-83z" />
    <glyph glyph-name="umacron" unicode="&#x16b;" horiz-adv-x="986" 
d="M932 292q0 -303 -417 -303q-121 0 -208 19t-143.5 57t-83 94.5t-26.5 132.5v377h206v-377q0 -37 10 -62t37.5 -40.5t77.5 -22t130 -6.5q60 0 100 7t64 23t34.5 41t10.5 60v377h208v-377zM641 750h-298v83h298v-83z" />
    <glyph glyph-name="Ubreve" unicode="&#x16c;" horiz-adv-x="986" 
d="M932 292q0 -303 -417 -303q-121 0 -208 19t-143.5 57t-83 94.5t-26.5 132.5v377h206v-377q0 -37 10 -62t37.5 -40.5t77.5 -22t130 -6.5q60 0 100 7t64 23t34.5 41t10.5 60v377h208v-377zM652 867q0 -20 -6.5 -46t-21.5 -49.5t-39.5 -40t-60.5 -16.5h-62q-36 0 -60.5 16.5
t-39.5 40t-22 49.5t-7 46h100q0 -11 2.5 -27t9 -30t17 -24t27.5 -10h14q15 0 24.5 10t15 24t8 30t2.5 27h99z" />
    <glyph glyph-name="ubreve" unicode="&#x16d;" horiz-adv-x="986" 
d="M932 292q0 -303 -417 -303q-121 0 -208 19t-143.5 57t-83 94.5t-26.5 132.5v377h206v-377q0 -37 10 -62t37.5 -40.5t77.5 -22t130 -6.5q60 0 100 7t64 23t34.5 41t10.5 60v377h208v-377zM652 867q0 -20 -6.5 -46t-21.5 -49.5t-39.5 -40t-60.5 -16.5h-62q-36 0 -60.5 16.5
t-39.5 40t-22 49.5t-7 46h100q0 -11 2.5 -27t9 -30t17 -24t27.5 -10h14q15 0 24.5 10t15 24t8 30t2.5 27h99z" />
    <glyph glyph-name="Uring" unicode="&#x16e;" horiz-adv-x="986" 
d="M932 292q0 -303 -417 -303q-121 0 -208 19t-143.5 57t-83 94.5t-26.5 132.5v377h206v-377q0 -37 10 -62t37.5 -40.5t77.5 -22t130 -6.5q60 0 100 7t64 23t34.5 41t10.5 60v377h208v-377zM445 873q-19 0 -19 -18v-51q0 -18 19 -18h94q20 0 20 18v51q0 18 -20 18h-94z
M637 798q0 -83 -104 -83h-82q-103 0 -103 83v63q0 84 103 84h82q104 0 104 -84v-63z" />
    <glyph glyph-name="uring" unicode="&#x16f;" horiz-adv-x="986" 
d="M932 292q0 -303 -417 -303q-121 0 -208 19t-143.5 57t-83 94.5t-26.5 132.5v377h206v-377q0 -37 10 -62t37.5 -40.5t77.5 -22t130 -6.5q60 0 100 7t64 23t34.5 41t10.5 60v377h208v-377zM445 873q-19 0 -19 -18v-51q0 -18 19 -18h94q20 0 20 18v51q0 18 -20 18h-94z
M637 798q0 -83 -104 -83h-82q-103 0 -103 83v63q0 84 103 84h82q104 0 104 -84v-63z" />
    <glyph glyph-name="Uhungarumlaut" unicode="&#x170;" horiz-adv-x="986" 
d="M932 292q0 -303 -417 -303q-121 0 -208 19t-143.5 57t-83 94.5t-26.5 132.5v377h206v-377q0 -37 10 -62t37.5 -40.5t77.5 -22t130 -6.5q60 0 100 7t64 23t34.5 41t10.5 60v377h208v-377zM608 725h-76l50 142h125zM425 725h-75l49 142h126z" />
    <glyph glyph-name="uhungarumlaut" unicode="&#x171;" horiz-adv-x="986" 
d="M932 292q0 -303 -417 -303q-121 0 -208 19t-143.5 57t-83 94.5t-26.5 132.5v377h206v-377q0 -37 10 -62t37.5 -40.5t77.5 -22t130 -6.5q60 0 100 7t64 23t34.5 41t10.5 60v377h208v-377zM608 725h-76l50 142h125zM425 725h-75l49 142h126z" />
    <glyph glyph-name="Uogonek" unicode="&#x172;" horiz-adv-x="986" 
d="M657 -250h-104q-56 0 -88 26t-32 61q0 22 12.5 44.5t38.5 43.5l79 66q-12 -1 -24 -1.5t-24 -0.5q-121 0 -208 19t-143.5 57t-83 94.5t-26.5 132.5v377h206v-377q0 -37 10 -62t37.5 -40.5t77.5 -22t130 -6.5q60 0 100 7t64 23t34.5 41t10.5 60v377h208v-377
q0 -247 -276 -292l-108 -88q-10 -8 -10 -18q0 -16 21 -16h98v-128z" />
    <glyph glyph-name="uogonek" unicode="&#x173;" horiz-adv-x="986" 
d="M657 -250h-104q-56 0 -88 26t-32 61q0 22 12.5 44.5t38.5 43.5l79 66q-12 -1 -24 -1.5t-24 -0.5q-121 0 -208 19t-143.5 57t-83 94.5t-26.5 132.5v377h206v-377q0 -37 10 -62t37.5 -40.5t77.5 -22t130 -6.5q60 0 100 7t64 23t34.5 41t10.5 60v377h208v-377
q0 -247 -276 -292l-108 -88q-10 -8 -10 -18q0 -16 21 -16h98v-128z" />
    <glyph glyph-name="Wcircumflex" unicode="&#x174;" horiz-adv-x="1260" 
d="M734 249q-22 39 -38 68.5t-29 53t-22.5 42.5l-18.5 37q-8 -18 -17.5 -37t-22 -42.5t-28.5 -52.5t-38 -68l-107 -190q-18 -32 -45.5 -51.5t-68.5 -19.5q-39 0 -70.5 22.5t-45.5 69.5l-170 588h207l63 -233q16 -57 26.5 -100t18.5 -84q16 35 37.5 77.5t56.5 107.5l90 168
q13 25 26 39.5t27.5 22.5t30.5 10.5t34 2.5q19 0 35 -2.5t30.5 -10.5t28 -22.5t26.5 -39.5l89 -169q19 -35 33 -61.5t25 -48t19.5 -39.5t16.5 -35q8 40 19.5 84t26.5 100l63 233h202l-173 -588q-14 -47 -45.5 -69.5t-70.5 -22.5q-40 0 -67.5 19t-46.5 52zM789 715h-99
l-56 101h-9l-55 -101h-100l95 152h131z" />
    <glyph glyph-name="wcircumflex" unicode="&#x175;" horiz-adv-x="1260" 
d="M734 249q-22 39 -38 68.5t-29 53t-22.5 42.5l-18.5 37q-8 -18 -17.5 -37t-22 -42.5t-28.5 -52.5t-38 -68l-107 -190q-18 -32 -45.5 -51.5t-68.5 -19.5q-39 0 -70.5 22.5t-45.5 69.5l-170 588h207l63 -233q16 -57 26.5 -100t18.5 -84q16 35 37.5 77.5t56.5 107.5l90 168
q13 25 26 39.5t27.5 22.5t30.5 10.5t34 2.5q19 0 35 -2.5t30.5 -10.5t28 -22.5t26.5 -39.5l89 -169q19 -35 33 -61.5t25 -48t19.5 -39.5t16.5 -35q8 40 19.5 84t26.5 100l63 233h202l-173 -588q-14 -47 -45.5 -69.5t-70.5 -22.5q-40 0 -67.5 19t-46.5 52zM789 715h-99
l-56 101h-9l-55 -101h-100l95 152h131z" />
    <glyph glyph-name="Ycircumflex" unicode="&#x176;" horiz-adv-x="1028" 
d="M1021 669l-397 -448v-221h-208v222l-408 447h266l160 -186q8 -9 21 -23.5t27 -30.5t26 -30t17 -21q10 14 29 38t55 68l152 185h260zM688 715h-99l-56 101h-9l-55 -101h-100l95 152h131z" />
    <glyph glyph-name="ycircumflex" unicode="&#x177;" horiz-adv-x="1028" 
d="M1021 669l-397 -448v-221h-208v222l-408 447h266l160 -186q8 -9 21 -23.5t27 -30.5t26 -30t17 -21q10 14 29 38t55 68l152 185h260zM688 715h-99l-56 101h-9l-55 -101h-100l95 152h131z" />
    <glyph glyph-name="Ydieresis" unicode="&#x178;" horiz-adv-x="1028" 
d="M1021 669l-397 -448v-221h-208v222l-408 447h266l160 -186q8 -9 21 -23.5t27 -30.5t26 -30t17 -21q10 14 29 38t55 68l152 185h260zM335 805q0 36 25 55.5t60 19.5q36 0 61 -19.5t25 -55.5q0 -35 -25 -54t-61 -19q-35 0 -60 19t-25 54zM543 805q0 36 25 55.5t60 19.5
q36 0 61 -19.5t25 -55.5q0 -35 -25 -54t-61 -19q-35 0 -60 19t-25 54z" />
    <glyph glyph-name="Zacute" unicode="&#x179;" horiz-adv-x="899" 
d="M766 0h-634q-39 0 -67.5 21.5t-28.5 62.5q0 23 12 44.5t33 38.5l244 192q42 33 72 56.5t52 40t36.5 26.5t23.5 17q-14 -1 -32.5 -2t-46 -1.5t-64.5 -0.5h-87h-268l132 174h617q39 0 67.5 -21.5t28.5 -62.5q0 -23 -12 -44.5t-33 -37.5l-247 -196q-41 -33 -71 -56
t-51.5 -39.5t-35.5 -26.5t-24 -17q12 1 40.5 1.5t65.5 1t79 1t81 0.5h243zM598 754l-298 -39v83l298 69v-113z" />
    <glyph glyph-name="zacute" unicode="&#x17a;" horiz-adv-x="899" 
d="M766 0h-634q-39 0 -67.5 21.5t-28.5 62.5q0 23 12 44.5t33 38.5l244 192q42 33 72 56.5t52 40t36.5 26.5t23.5 17q-14 -1 -32.5 -2t-46 -1.5t-64.5 -0.5h-87h-268l132 174h617q39 0 67.5 -21.5t28.5 -62.5q0 -23 -12 -44.5t-33 -37.5l-247 -196q-41 -33 -71 -56
t-51.5 -39.5t-35.5 -26.5t-24 -17q12 1 40.5 1.5t65.5 1t79 1t81 0.5h243zM598 754l-298 -39v83l298 69v-113z" />
    <glyph glyph-name="Zdotaccent" unicode="&#x17b;" horiz-adv-x="899" 
d="M766 0h-634q-39 0 -67.5 21.5t-28.5 62.5q0 23 12 44.5t33 38.5l244 192q42 33 72 56.5t52 40t36.5 26.5t23.5 17q-14 -1 -32.5 -2t-46 -1.5t-64.5 -0.5h-87h-268l132 174h617q39 0 67.5 -21.5t28.5 -62.5q0 -23 -12 -44.5t-33 -37.5l-247 -196q-41 -33 -71 -56
t-51.5 -39.5t-35.5 -26.5t-24 -17q12 1 40.5 1.5t65.5 1t79 1t81 0.5h243zM385 805q0 36 25 55.5t60 19.5q36 0 61 -19.5t25 -55.5q0 -35 -25 -54t-61 -19q-35 0 -60 19t-25 54z" />
    <glyph glyph-name="zdotaccent" unicode="&#x17c;" horiz-adv-x="899" 
d="M766 0h-634q-39 0 -67.5 21.5t-28.5 62.5q0 23 12 44.5t33 38.5l244 192q42 33 72 56.5t52 40t36.5 26.5t23.5 17q-14 -1 -32.5 -2t-46 -1.5t-64.5 -0.5h-87h-268l132 174h617q39 0 67.5 -21.5t28.5 -62.5q0 -23 -12 -44.5t-33 -37.5l-247 -196q-41 -33 -71 -56
t-51.5 -39.5t-35.5 -26.5t-24 -17q12 1 40.5 1.5t65.5 1t79 1t81 0.5h243zM385 805q0 36 25 55.5t60 19.5q36 0 61 -19.5t25 -55.5q0 -35 -25 -54t-61 -19q-35 0 -60 19t-25 54z" />
    <glyph glyph-name="Zcaron" unicode="&#x17d;" horiz-adv-x="899" 
d="M766 0h-634q-39 0 -67.5 21.5t-28.5 62.5q0 23 12 44.5t33 38.5l244 192q42 33 72 56.5t52 40t36.5 26.5t23.5 17q-14 -1 -32.5 -2t-46 -1.5t-64.5 -0.5h-87h-268l132 174h617q39 0 67.5 -21.5t28.5 -62.5q0 -23 -12 -44.5t-33 -37.5l-247 -196q-41 -33 -71 -56
t-51.5 -39.5t-35.5 -26.5t-24 -17q12 1 40.5 1.5t65.5 1t79 1t81 0.5h243zM299 867h100l56 -101h9l55 101h99l-94 -152h-131z" />
    <glyph glyph-name="zcaron" unicode="&#x17e;" horiz-adv-x="899" 
d="M766 0h-634q-39 0 -67.5 21.5t-28.5 62.5q0 23 12 44.5t33 38.5l244 192q42 33 72 56.5t52 40t36.5 26.5t23.5 17q-14 -1 -32.5 -2t-46 -1.5t-64.5 -0.5h-87h-268l132 174h617q39 0 67.5 -21.5t28.5 -62.5q0 -23 -12 -44.5t-33 -37.5l-247 -196q-41 -33 -71 -56
t-51.5 -39.5t-35.5 -26.5t-24 -17q12 1 40.5 1.5t65.5 1t79 1t81 0.5h243zM299 867h100l56 -101h9l55 101h99l-94 -152h-131z" />
    <glyph glyph-name="Scommaaccent" unicode="&#x218;" horiz-adv-x="963" 
d="M683 402q123 0 187 -45.5t64 -137.5q0 -51 -16 -92t-51 -69t-89.5 -43t-130.5 -15h-623l133 172h506q37 0 54 11.5t17 37.5t-17 37t-54 11h-364q-65 0 -112 14t-78 39t-46 60.5t-15 78.5q0 47 16.5 85.5t51 65.5t89 42t130.5 15h581l-133 -174h-464q-36 0 -53.5 -10
t-17.5 -36t17.5 -36.5t53.5 -10.5h364zM559 -31l-83 -224h-72v224h155z" />
    <glyph glyph-name="scommaaccent" unicode="&#x219;" horiz-adv-x="963" 
d="M683 402q123 0 187 -45.5t64 -137.5q0 -51 -16 -92t-51 -69t-89.5 -43t-130.5 -15h-623l133 172h506q37 0 54 11.5t17 37.5t-17 37t-54 11h-364q-65 0 -112 14t-78 39t-46 60.5t-15 78.5q0 47 16.5 85.5t51 65.5t89 42t130.5 15h581l-133 -174h-464q-36 0 -53.5 -10
t-17.5 -36t17.5 -36.5t53.5 -10.5h364zM559 -31l-83 -224h-72v224h155z" />
    <glyph glyph-name="uni021A" unicode="&#x21a;" horiz-adv-x="894" 
d="M894 669l-134 -174h-239v-495h-207v495h-314l134 174h760zM496 -31l-83 -224h-72v224h155z" />
    <glyph glyph-name="uni021B" unicode="&#x21b;" horiz-adv-x="894" 
d="M894 669l-134 -174h-239v-495h-207v495h-314l134 174h760zM496 -31l-83 -224h-72v224h155z" />
    <glyph glyph-name="circumflex" unicode="&#x2c6;" horiz-adv-x="414" 
d="M366 715h-99l-56 101h-9l-55 -101h-100l95 152h131z" />
    <glyph glyph-name="caron" unicode="&#x2c7;" horiz-adv-x="414" 
d="M47 867h100l56 -101h9l55 101h99l-94 -152h-131z" />
    <glyph glyph-name="breve" unicode="&#x2d8;" horiz-adv-x="414" 
d="M366 867q0 -20 -6.5 -46t-21.5 -49.5t-39.5 -40t-60.5 -16.5h-62q-36 0 -60.5 16.5t-39.5 40t-22 49.5t-7 46h100q0 -11 2.5 -27t9 -30t17 -24t27.5 -10h14q15 0 24.5 10t15 24t8 30t2.5 27h99z" />
    <glyph glyph-name="dotaccent" unicode="&#x2d9;" horiz-adv-x="221" 
d="M26 805q0 36 25 55.5t60 19.5q36 0 61 -19.5t25 -55.5q0 -35 -25 -54t-61 -19q-35 0 -60 19t-25 54z" />
    <glyph glyph-name="ring" unicode="&#x2da;" horiz-adv-x="383" 
d="M144 873q-19 0 -19 -18v-51q0 -18 19 -18h94q20 0 20 18v51q0 18 -20 18h-94zM336 798q0 -83 -104 -83h-82q-103 0 -103 83v63q0 84 103 84h82q104 0 104 -84v-63z" />
    <glyph glyph-name="ogonek" unicode="&#x2db;" horiz-adv-x="309" 
d="M262 -250h-104q-56 0 -87.5 26t-31.5 61q0 22 12 44.5t38 43.5l92 75h81l-109 -88q-10 -9 -10 -18q0 -16 22 -16h97v-128z" />
    <glyph glyph-name="tilde" unicode="&#x2dc;" horiz-adv-x="393" 
d="M269 732q-19 0 -37 6.5t-35.5 14t-35.5 14t-37 6.5q-23 0 -43.5 -10.5t-33.5 -25.5v83q14 16 34 23t43 7q19 0 37 -6.5t35.5 -14.5t35 -14.5t37.5 -6.5q23 0 43 10.5t33 25.5v-82q-14 -17 -33.5 -23.5t-42.5 -6.5z" />
    <glyph glyph-name="hungarumlaut" unicode="&#x2dd;" horiz-adv-x="452" 
d="M334 725h-76l50 142h125zM151 725h-75l49 142h126z" />
    <glyph glyph-name="commaaccent" unicode="&#x326;" horiz-adv-x="259" 
d="M220 -31l-83 -224h-72v224h155z" />
    <glyph glyph-name="Wgrave" unicode="&#x1e80;" horiz-adv-x="1260" 
d="M734 249q-22 39 -38 68.5t-29 53t-22.5 42.5l-18.5 37q-8 -18 -17.5 -37t-22 -42.5t-28.5 -52.5t-38 -68l-107 -190q-18 -32 -45.5 -51.5t-68.5 -19.5q-39 0 -70.5 22.5t-45.5 69.5l-170 588h207l63 -233q16 -57 26.5 -100t18.5 -84q16 35 37.5 77.5t56.5 107.5l90 168
q13 25 26 39.5t27.5 22.5t30.5 10.5t34 2.5q19 0 35 -2.5t30.5 -10.5t28 -22.5t26.5 -39.5l89 -169q19 -35 33 -61.5t25 -48t19.5 -39.5t16.5 -35q8 40 19.5 84t26.5 100l63 233h202l-173 -588q-14 -47 -45.5 -69.5t-70.5 -22.5q-40 0 -67.5 19t-46.5 52zM750 715l-298 39
v113l298 -69v-83z" />
    <glyph glyph-name="wgrave" unicode="&#x1e81;" horiz-adv-x="1260" 
d="M734 249q-22 39 -38 68.5t-29 53t-22.5 42.5l-18.5 37q-8 -18 -17.5 -37t-22 -42.5t-28.5 -52.5t-38 -68l-107 -190q-18 -32 -45.5 -51.5t-68.5 -19.5q-39 0 -70.5 22.5t-45.5 69.5l-170 588h207l63 -233q16 -57 26.5 -100t18.5 -84q16 35 37.5 77.5t56.5 107.5l90 168
q13 25 26 39.5t27.5 22.5t30.5 10.5t34 2.5q19 0 35 -2.5t30.5 -10.5t28 -22.5t26.5 -39.5l89 -169q19 -35 33 -61.5t25 -48t19.5 -39.5t16.5 -35q8 40 19.5 84t26.5 100l63 233h202l-173 -588q-14 -47 -45.5 -69.5t-70.5 -22.5q-40 0 -67.5 19t-46.5 52zM750 715l-298 39
v113l298 -69v-83z" />
    <glyph glyph-name="Wacute" unicode="&#x1e82;" horiz-adv-x="1260" 
d="M734 249q-22 39 -38 68.5t-29 53t-22.5 42.5l-18.5 37q-8 -18 -17.5 -37t-22 -42.5t-28.5 -52.5t-38 -68l-107 -190q-18 -32 -45.5 -51.5t-68.5 -19.5q-39 0 -70.5 22.5t-45.5 69.5l-170 588h207l63 -233q16 -57 26.5 -100t18.5 -84q16 35 37.5 77.5t56.5 107.5l90 168
q13 25 26 39.5t27.5 22.5t30.5 10.5t34 2.5q19 0 35 -2.5t30.5 -10.5t28 -22.5t26.5 -39.5l89 -169q19 -35 33 -61.5t25 -48t19.5 -39.5t16.5 -35q8 40 19.5 84t26.5 100l63 233h202l-173 -588q-14 -47 -45.5 -69.5t-70.5 -22.5q-40 0 -67.5 19t-46.5 52zM807 754l-298 -39
v83l298 69v-113z" />
    <glyph glyph-name="wacute" unicode="&#x1e83;" horiz-adv-x="1260" 
d="M734 249q-22 39 -38 68.5t-29 53t-22.5 42.5l-18.5 37q-8 -18 -17.5 -37t-22 -42.5t-28.5 -52.5t-38 -68l-107 -190q-18 -32 -45.5 -51.5t-68.5 -19.5q-39 0 -70.5 22.5t-45.5 69.5l-170 588h207l63 -233q16 -57 26.5 -100t18.5 -84q16 35 37.5 77.5t56.5 107.5l90 168
q13 25 26 39.5t27.5 22.5t30.5 10.5t34 2.5q19 0 35 -2.5t30.5 -10.5t28 -22.5t26.5 -39.5l89 -169q19 -35 33 -61.5t25 -48t19.5 -39.5t16.5 -35q8 40 19.5 84t26.5 100l63 233h202l-173 -588q-14 -47 -45.5 -69.5t-70.5 -22.5q-40 0 -67.5 19t-46.5 52zM807 754l-298 -39
v83l298 69v-113z" />
    <glyph glyph-name="Wdieresis" unicode="&#x1e84;" horiz-adv-x="1260" 
d="M734 249q-22 39 -38 68.5t-29 53t-22.5 42.5l-18.5 37q-8 -18 -17.5 -37t-22 -42.5t-28.5 -52.5t-38 -68l-107 -190q-18 -32 -45.5 -51.5t-68.5 -19.5q-39 0 -70.5 22.5t-45.5 69.5l-170 588h207l63 -233q16 -57 26.5 -100t18.5 -84q16 35 37.5 77.5t56.5 107.5l90 168
q13 25 26 39.5t27.5 22.5t30.5 10.5t34 2.5q19 0 35 -2.5t30.5 -10.5t28 -22.5t26.5 -39.5l89 -169q19 -35 33 -61.5t25 -48t19.5 -39.5t16.5 -35q8 40 19.5 84t26.5 100l63 233h202l-173 -588q-14 -47 -45.5 -69.5t-70.5 -22.5q-40 0 -67.5 19t-46.5 52zM441 805
q0 36 25 55.5t60 19.5q36 0 61 -19.5t25 -55.5q0 -35 -25 -54t-61 -19q-35 0 -60 19t-25 54zM649 805q0 36 25 55.5t60 19.5q36 0 61 -19.5t25 -55.5q0 -35 -25 -54t-61 -19q-35 0 -60 19t-25 54z" />
    <glyph glyph-name="wdieresis" unicode="&#x1e85;" horiz-adv-x="1260" 
d="M734 249q-22 39 -38 68.5t-29 53t-22.5 42.5l-18.5 37q-8 -18 -17.5 -37t-22 -42.5t-28.5 -52.5t-38 -68l-107 -190q-18 -32 -45.5 -51.5t-68.5 -19.5q-39 0 -70.5 22.5t-45.5 69.5l-170 588h207l63 -233q16 -57 26.5 -100t18.5 -84q16 35 37.5 77.5t56.5 107.5l90 168
q13 25 26 39.5t27.5 22.5t30.5 10.5t34 2.5q19 0 35 -2.5t30.5 -10.5t28 -22.5t26.5 -39.5l89 -169q19 -35 33 -61.5t25 -48t19.5 -39.5t16.5 -35q8 40 19.5 84t26.5 100l63 233h202l-173 -588q-14 -47 -45.5 -69.5t-70.5 -22.5q-40 0 -67.5 19t-46.5 52zM441 805
q0 36 25 55.5t60 19.5q36 0 61 -19.5t25 -55.5q0 -35 -25 -54t-61 -19q-35 0 -60 19t-25 54zM649 805q0 36 25 55.5t60 19.5q36 0 61 -19.5t25 -55.5q0 -35 -25 -54t-61 -19q-35 0 -60 19t-25 54z" />
    <glyph glyph-name="Ygrave" unicode="&#x1ef2;" horiz-adv-x="1028" 
d="M1021 669l-397 -448v-221h-208v222l-408 447h266l160 -186q8 -9 21 -23.5t27 -30.5t26 -30t17 -21q10 14 29 38t55 68l152 185h260zM634 715l-298 39v113l298 -69v-83z" />
    <glyph glyph-name="ygrave" unicode="&#x1ef3;" horiz-adv-x="1028" 
d="M1021 669l-397 -448v-221h-208v222l-408 447h266l160 -186q8 -9 21 -23.5t27 -30.5t26 -30t17 -21q10 14 29 38t55 68l152 185h260zM634 715l-298 39v113l298 -69v-83z" />
    <glyph glyph-name="endash" unicode="&#x2013;" horiz-adv-x="625" 
d="M611 403l-101 -129h-495l101 129h495z" />
    <glyph glyph-name="emdash" unicode="&#x2014;" horiz-adv-x="1003" 
d="M990 403l-101 -129h-874l101 129h874z" />
    <glyph glyph-name="quoteleft" unicode="&#x2018;" horiz-adv-x="219" 
d="M202 669v-268h-87l-98 268h185z" />
    <glyph glyph-name="quoteright" unicode="&#x2019;" horiz-adv-x="219" 
d="M202 669l-99 -268h-86v268h185z" />
    <glyph glyph-name="quotesinglbase" unicode="&#x201a;" horiz-adv-x="219" 
d="M202 172l-99 -268h-86v268h185z" />
    <glyph glyph-name="quotedblleft" unicode="&#x201c;" horiz-adv-x="446" 
d="M202 669v-268h-87l-98 268h185zM429 669v-268h-86l-99 268h185z" />
    <glyph glyph-name="quotedblright" unicode="&#x201d;" horiz-adv-x="446" 
d="M429 669l-99 -268h-86v268h185zM202 669l-99 -268h-86v268h185z" />
    <glyph glyph-name="quotedblbase" unicode="&#x201e;" horiz-adv-x="446" 
d="M429 172l-99 -268h-86v268h185zM202 172l-99 -268h-86v268h185z" />
    <glyph glyph-name="dagger" unicode="&#x2020;" horiz-adv-x="429" 
d="M255 488l124 -38l-123 -39l-32 -411h-26l-30 411l-125 39l125 38l31 181h24z" />
    <glyph glyph-name="daggerdbl" unicode="&#x2021;" horiz-adv-x="436" 
d="M255 516l124 -31v-20l-123 -32v-198l123 -31v-20l-124 -31l-30 -154h-23l-32 154l-122 31v20l121 31v199l-122 36l2 21l121 26l32 152h23z" />
    <glyph glyph-name="bullet" unicode="&#x2022;" horiz-adv-x="458" 
d="M59 335q0 35 13.5 66t36.5 54t54 36.5t66 13.5t66 -13.5t54 -36.5t36.5 -54t13.5 -66t-13.5 -66t-36.5 -54t-54 -36.5t-66 -13.5t-66 13.5t-54 36.5t-36.5 54t-13.5 66z" />
    <glyph glyph-name="ellipsis" unicode="&#x2026;" horiz-adv-x="1543" 
d="M42 85q0 47 32.5 72.5t79.5 25.5q48 0 80.5 -25.5t32.5 -72.5q0 -46 -32.5 -71t-80.5 -25q-47 0 -79.5 25t-32.5 71zM659 85q0 47 32.5 72.5t79.5 25.5q48 0 80.5 -25.5t32.5 -72.5q0 -46 -32.5 -71t-80.5 -25q-47 0 -79.5 25t-32.5 71zM1276 85q0 47 32.5 72.5
t79.5 25.5q48 0 80.5 -25.5t32.5 -72.5q0 -46 -32.5 -71t-80.5 -25q-47 0 -79.5 25t-32.5 71z" />
    <glyph glyph-name="perthousand" unicode="&#x2030;" horiz-adv-x="1359" 
d="M256 692q107 0 160 -41t53 -131q0 -91 -53 -132t-160 -41q-108 0 -161 41t-53 132q0 90 53 131t161 41zM256 434q30 0 51.5 3.5t34.5 12.5t19 26t6 44t-6 43.5t-19 26t-34.5 12.5t-51.5 3q-31 0 -52 -3t-34.5 -12.5t-19.5 -26t-6 -43.5t6 -44t19.5 -26t34.5 -12.5
t52 -3.5zM764 706l-533 -744h-91l540 744h84zM658 330q107 0 160 -41t53 -131q0 -91 -53 -132t-160 -41q-108 0 -161 41t-53 132q0 90 53 131t161 41zM658 72q30 0 51.5 3.5t34.5 12.5t19 26t6 44t-6 43.5t-19 26t-34.5 12.5t-51.5 3q-31 0 -52 -3t-34.5 -12.5t-19.5 -26
t-6 -43.5t6 -44t19.5 -26t34.5 -12.5t52 -3.5zM1105 330q107 0 160 -41t53 -131q0 -91 -53 -132t-160 -41q-108 0 -161 41t-53 132q0 90 53 131t161 41zM1105 72q30 0 51.5 3.5t34.5 12.5t19 26t6 44t-6 43.5t-19 26t-34.5 12.5t-51.5 3q-31 0 -52 -3t-34.5 -12.5t-19.5 -26
t-6 -43.5t6 -44t19.5 -26t34.5 -12.5t52 -3.5z" />
    <glyph glyph-name="guilsinglleft" unicode="&#x2039;" horiz-adv-x="245" 
d="M90 325l113 -74v-93l-174 118v91l174 125v-95z" />
    <glyph glyph-name="guilsinglright" unicode="&#x203a;" horiz-adv-x="245" 
d="M46 397v95l175 -125v-91l-175 -118v93l114 74z" />
    <glyph glyph-name="fraction" unicode="&#x2044;" horiz-adv-x="283" 
d="M459 706l-533 -744h-91l540 744h84z" />
    <glyph glyph-name="zerosuperior" unicode="&#x2070;" horiz-adv-x="497" 
d="M249 692q107 0 160 -41t53 -131q0 -91 -53 -132t-160 -41q-108 0 -161 41t-53 132q0 90 53 131t161 41zM249 434q30 0 51.5 3.5t34.5 12.5t19 26t6 44t-6 43.5t-19 26t-34.5 12.5t-51.5 3q-31 0 -52 -3t-34.5 -12.5t-19.5 -26t-6 -43.5t6 -44t19.5 -26t34.5 -12.5
t52 -3.5z" />
    <glyph glyph-name="foursuperior" unicode="&#x2074;" horiz-adv-x="508" 
d="M79 392q-24 0 -37.5 14t-13.5 32q0 22 22 40l241 196q13 11 25.5 14.5t22.5 3.5q22 0 39.5 -14.5t17.5 -47.5v-155h95l-60 -83h-35v-39h-100v39h-217zM296 524q0 16 0.5 25.5t1.5 17.5q-6 -6 -15 -13.5l-21 -17.5l-37 -30q-14 -11 -25.5 -19t-19.5 -14q11 1 24.5 1.5
t32.5 0.5h59v49z" />
    <glyph glyph-name="fivesuperior" unicode="&#x2075;" horiz-adv-x="478" 
d="M431 687l-67 -87h-209v-47h162q61 0 93.5 -22.5t32.5 -69.5q0 -51 -33.5 -79.5t-110.5 -28.5h-264l66 86h207q35 0 35 23q0 25 -35 25h-256v200h379z" />
    <glyph glyph-name="sixsuperior" unicode="&#x2076;" horiz-adv-x="514" 
d="M232 600q-32 0 -55.5 -12.5t-34.5 -34.5h211q58 0 92 -23.5t34 -69.5q0 -34 -17.5 -56t-46.5 -34.5t-67 -17.5t-78 -5q-117 0 -176 42t-59 134q0 36 15 66.5t42 52t64 33.5t81 12h215l-67 -87h-153zM142 487q9 -34 42 -43.5t91 -9.5q33 0 53.5 2t32 5.5t16 9t4.5 13.5
q0 23 -36 23h-203z" />
    <glyph glyph-name="sevensuperior" unicode="&#x2077;" horiz-adv-x="450" 
d="M201 353h-131l165 184q26 29 38.5 43t22.5 22q-14 -2 -34.5 -2h-59.5h-182l66 87h289q29 0 43 -13t14 -32q0 -9 -3.5 -18.5t-13.5 -20.5z" />
    <glyph glyph-name="eightsuperior" unicode="&#x2078;" horiz-adv-x="504" 
d="M170 353q-39 0 -65 7.5t-41.5 20t-22 30.5t-6.5 39q0 30 15 49t37 26q-17 5 -31 22.5t-14 46.5q0 46 35.5 69.5t95.5 23.5h158q61 0 96.5 -23.5t35.5 -69.5q0 -29 -14.5 -46.5t-31.5 -22.5q23 -7 37.5 -26t14.5 -49q0 -21 -6.5 -39t-22 -30.5t-41.5 -20t-65 -7.5h-164z
M170 484q-32 0 -32 -23q0 -22 32 -22h164q32 0 32 22q0 23 -32 23h-164zM168 600q-11 0 -19.5 -4.5t-8.5 -16.5q0 -13 8.5 -18t19.5 -5h168q11 0 19.5 5t8.5 18q0 12 -8.5 16.5t-19.5 4.5h-168z" />
    <glyph glyph-name="ninesuperior" unicode="&#x2079;" horiz-adv-x="514" 
d="M282 439q33 0 56 16t34 39q-9 -2 -20.5 -3t-33 -2.5t-59 -2t-99.5 -0.5q-57 0 -91 23.5t-34 69.5q0 34 17.5 56t46.5 35t66.5 17.5t78.5 4.5q116 0 175.5 -40.5t59.5 -124.5q0 -41 -15.5 -73t-42.5 -54.5t-64 -34.5t-80 -12h-211l66 86h150zM168 552q58 0 92.5 0.5
t55.5 1t32.5 1.5t22.5 2q-8 32 -41 40t-92 8q-32 0 -52.5 -2t-32.5 -5.5t-16.5 -9.5t-4.5 -13q0 -23 36 -23z" />
    <glyph glyph-name="zeroinferior" unicode="&#x2080;" horiz-adv-x="497" 
d="M249 330q107 0 160 -41t53 -131q0 -91 -53 -132t-160 -41q-108 0 -161 41t-53 132q0 90 53 131t161 41zM249 72q30 0 51.5 3.5t34.5 12.5t19 26t6 44t-6 43.5t-19 26t-34.5 12.5t-51.5 3q-31 0 -52 -3t-34.5 -12.5t-19.5 -26t-6 -43.5t6 -44t19.5 -26t34.5 -12.5t52 -3.5
z" />
    <glyph glyph-name="oneinferior" unicode="&#x2081;" horiz-adv-x="251" 
d="M82 325h123v-334h-104v247h-81z" />
    <glyph glyph-name="twoinferior" unicode="&#x2082;" horiz-adv-x="496" 
d="M118 325h196q77 0 110.5 -28t33.5 -76q0 -43 -30.5 -69.5t-95.5 -26.5h-159q-35 0 -35 -25v-23h323l-67 -86h-356v108q0 47 32 69.5t94 22.5h159q35 0 35 24q0 23 -35 23h-271z" />
    <glyph glyph-name="threeinferior" unicode="&#x2083;" horiz-adv-x="484" 
d="M84 77h229q32 0 32 22q0 23 -32 23h-200l54 72h148q11 0 20 5t9 18q0 12 -9 16.5t-20 4.5h-280l66 87h209q61 0 96.5 -23.5t35.5 -69.5q0 -29 -14 -46.5t-31 -22.5q22 -7 37 -26t15 -49q0 -21 -6.5 -39t-22 -30.5t-42 -20t-65.5 -7.5h-294z" />
    <glyph glyph-name="fourinferior" unicode="&#x2084;" horiz-adv-x="508" 
d="M79 30q-24 0 -37.5 14t-13.5 32q0 22 22 40l241 196q13 11 25.5 14.5t22.5 3.5q22 0 39.5 -14.5t17.5 -47.5v-155h95l-60 -83h-35v-39h-100v39h-217zM296 162q0 16 0.5 25.5t1.5 17.5q-6 -6 -15 -13.5l-21 -17.5l-37 -30q-14 -11 -25.5 -19t-19.5 -14q11 1 24.5 1.5
t32.5 0.5h59v49z" />
    <glyph glyph-name="fiveinferior" unicode="&#x2085;" horiz-adv-x="478" 
d="M431 325l-67 -87h-209v-47h162q61 0 93.5 -22.5t32.5 -69.5q0 -51 -33.5 -79.5t-110.5 -28.5h-264l66 86h207q35 0 35 23q0 25 -35 25h-256v200h379z" />
    <glyph glyph-name="sixinferior" unicode="&#x2086;" horiz-adv-x="514" 
d="M232 238q-32 0 -55.5 -12.5t-34.5 -34.5h211q58 0 92 -23.5t34 -69.5q0 -34 -17.5 -56t-46.5 -34.5t-67 -17.5t-78 -5q-117 0 -176 42t-59 134q0 36 15 66.5t42 52t64 33.5t81 12h215l-67 -87h-153zM142 125q9 -34 42 -43.5t91 -9.5q33 0 53.5 2t32 5.5t16 9t4.5 13.5
q0 23 -36 23h-203z" />
    <glyph glyph-name="seveninferior" unicode="&#x2087;" horiz-adv-x="450" 
d="M201 -9h-131l165 184q26 29 38.5 43t22.5 22q-14 -2 -34.5 -2h-59.5h-182l66 87h289q29 0 43 -13t14 -32q0 -9 -3.5 -18.5t-13.5 -20.5z" />
    <glyph glyph-name="eightinferior" unicode="&#x2088;" horiz-adv-x="504" 
d="M170 -9q-39 0 -65 7.5t-41.5 20t-22 30.5t-6.5 39q0 30 15 49t37 26q-17 5 -31 22.5t-14 46.5q0 46 35.5 69.5t95.5 23.5h158q61 0 96.5 -23.5t35.5 -69.5q0 -29 -14.5 -46.5t-31.5 -22.5q23 -7 37.5 -26t14.5 -49q0 -21 -6.5 -39t-22 -30.5t-41.5 -20t-65 -7.5h-164z
M170 122q-32 0 -32 -23q0 -22 32 -22h164q32 0 32 22q0 23 -32 23h-164zM168 238q-11 0 -19.5 -4.5t-8.5 -16.5q0 -13 8.5 -18t19.5 -5h168q11 0 19.5 5t8.5 18q0 12 -8.5 16.5t-19.5 4.5h-168z" />
    <glyph glyph-name="nineinferior" unicode="&#x2089;" horiz-adv-x="514" 
d="M282 77q33 0 56 16t34 39q-9 -2 -20.5 -3t-33 -2.5t-59 -2t-99.5 -0.5q-57 0 -91 23.5t-34 69.5q0 34 17.5 56t46.5 35t66.5 17.5t78.5 4.5q116 0 175.5 -40.5t59.5 -124.5q0 -41 -15.5 -73t-42.5 -54.5t-64 -34.5t-80 -12h-211l66 86h150zM168 190q58 0 92.5 0.5t55.5 1
t32.5 1.5t22.5 2q-8 32 -41 40t-92 8q-32 0 -52.5 -2t-32.5 -5.5t-16.5 -9.5t-4.5 -13q0 -23 36 -23z" />
    <glyph glyph-name="Euro" unicode="&#x20ac;" horiz-adv-x="889" 
d="M52 430h48q16 54 52 98.5t87 75.5t115 48t137 17h375l-135 -174h-240q-51 0 -92.5 -17.5t-67.5 -47.5h348l-51 -67h-330q-3 -15 -3 -31v-9.5t1 -9.5h294l-52 -66h-216q25 -35 68.5 -55t100.5 -20h337l-133 -172h-204q-72 0 -135.5 18t-114 50.5t-86.5 78t-53 100.5h-95
l45 66h37q-1 7 -1 13.5v14.5v11t1 11h-82z" />
    <glyph glyph-name="uni2117" unicode="&#x2117;" horiz-adv-x="785" 
d="M572 379q0 -51 -36.5 -82t-102.5 -31h-137v-92h-64v146h206q32 0 48.5 16.5t16.5 42.5q0 27 -16.5 43t-48.5 16h-187l45 56h137q66 0 102.5 -32t36.5 -83zM44 335q0 72 27 135t74 110t110 74t135 27t135 -27t110 -74t74 -110t27 -135t-27 -135t-74 -110t-110 -74
t-135 -27t-135 27t-110 74t-74 110t-27 135zM85 334q0 -64 24 -119.5t65.5 -97t97.5 -65.5t120 -24q63 0 119 24t97.5 65.5t65.5 97t24 119.5q0 63 -24 119.5t-65.5 98.5t-97.5 66.5t-119 24.5q-64 0 -120 -24.5t-97.5 -66.5t-65.5 -98.5t-24 -119.5z" />
    <glyph glyph-name="trademark" unicode="&#x2122;" horiz-adv-x="578" 
d="M244 609h-74v-220h-61v220h-75v60h210v-60zM532 389h-62v105l-43 -105h-47l-43 104v-104h-62v280h56l73 -177l72 177h56v-280z" />
    <glyph glyph-name="onethird" unicode="&#x2153;" horiz-adv-x="923" 
d="M104 687h123v-334h-104v247h-81zM684 706l-533 -744h-91l540 744h84zM516 77h229q32 0 32 22q0 23 -32 23h-200l54 72h148q11 0 20 5t9 18q0 12 -9 16.5t-20 4.5h-280l66 87h209q61 0 96.5 -23.5t35.5 -69.5q0 -29 -14 -46.5t-31 -22.5q22 -7 37 -26t15 -49
q0 -21 -6.5 -39t-22 -30.5t-42 -20t-65.5 -7.5h-294z" />
    <glyph glyph-name="twothirds" unicode="&#x2154;" horiz-adv-x="1036" 
d="M122 687h196q77 0 110.5 -28t33.5 -76q0 -43 -30.5 -69.5t-95.5 -26.5h-159q-35 0 -35 -25v-23h323l-67 -86h-356v108q0 47 32 69.5t94 22.5h159q35 0 35 24q0 23 -35 23h-271zM826 706l-533 -744h-91l540 744h84zM630 77h229q32 0 32 22q0 23 -32 23h-200l54 72h148
q11 0 20 5t9 18q0 12 -9 16.5t-20 4.5h-280l66 87h209q61 0 96.5 -23.5t35.5 -69.5q0 -29 -14 -46.5t-31 -22.5q22 -7 37 -26t15 -49q0 -21 -6.5 -39t-22 -30.5t-42 -20t-65.5 -7.5h-294z" />
    <glyph glyph-name="oneeighth" unicode="&#x215b;" horiz-adv-x="962" 
d="M104 687h123v-334h-104v247h-81zM703 706l-533 -744h-91l540 744h84zM621 -9q-39 0 -65 7.5t-41.5 20t-22 30.5t-6.5 39q0 30 15 49t37 26q-17 5 -31 22.5t-14 46.5q0 46 35.5 69.5t95.5 23.5h158q61 0 96.5 -23.5t35.5 -69.5q0 -29 -14.5 -46.5t-31.5 -22.5
q23 -7 37.5 -26t14.5 -49q0 -21 -6.5 -39t-22 -30.5t-41.5 -20t-65 -7.5h-164zM621 122q-32 0 -32 -23q0 -22 32 -22h164q32 0 32 22q0 23 -32 23h-164zM619 238q-11 0 -19.5 -4.5t-8.5 -16.5q0 -13 8.5 -18t19.5 -5h168q11 0 19.5 5t8.5 18q0 12 -8.5 16.5t-19.5 4.5h-168z
" />
    <glyph glyph-name="threeeighths" unicode="&#x215c;" horiz-adv-x="1092" 
d="M107 439h229q32 0 32 22q0 23 -32 23h-200l54 72h148q11 0 20 5t9 18q0 12 -9 16.5t-20 4.5h-280l66 87h209q61 0 96.5 -23.5t35.5 -69.5q0 -29 -14 -46.5t-31 -22.5q22 -7 37 -26t15 -49q0 -21 -6.5 -39t-22 -30.5t-42 -20t-65.5 -7.5h-294zM852 706l-533 -744h-91
l540 744h84zM751 -9q-39 0 -65 7.5t-41.5 20t-22 30.5t-6.5 39q0 30 15 49t37 26q-17 5 -31 22.5t-14 46.5q0 46 35.5 69.5t95.5 23.5h158q61 0 96.5 -23.5t35.5 -69.5q0 -29 -14.5 -46.5t-31.5 -22.5q23 -7 37.5 -26t14.5 -49q0 -21 -6.5 -39t-22 -30.5t-41.5 -20t-65 -7.5
h-164zM751 122q-32 0 -32 -23q0 -22 32 -22h164q32 0 32 22q0 23 -32 23h-164zM749 238q-11 0 -19.5 -4.5t-8.5 -16.5q0 -13 8.5 -18t19.5 -5h168q11 0 19.5 5t8.5 18q0 12 -8.5 16.5t-19.5 4.5h-168z" />
    <glyph glyph-name="fiveeighths" unicode="&#x215d;" horiz-adv-x="1061" 
d="M438 687l-67 -87h-209v-47h162q61 0 93.5 -22.5t32.5 -69.5q0 -51 -33.5 -79.5t-110.5 -28.5h-264l66 86h207q35 0 35 23q0 25 -35 25h-256v200h379zM821 706l-533 -744h-91l540 744h84zM720 -9q-39 0 -65 7.5t-41.5 20t-22 30.5t-6.5 39q0 30 15 49t37 26
q-17 5 -31 22.5t-14 46.5q0 46 35.5 69.5t95.5 23.5h158q61 0 96.5 -23.5t35.5 -69.5q0 -29 -14.5 -46.5t-31.5 -22.5q23 -7 37.5 -26t14.5 -49q0 -21 -6.5 -39t-22 -30.5t-41.5 -20t-65 -7.5h-164zM720 122q-32 0 -32 -23q0 -22 32 -22h164q32 0 32 22q0 23 -32 23h-164z
M718 238q-11 0 -19.5 -4.5t-8.5 -16.5q0 -13 8.5 -18t19.5 -5h168q11 0 19.5 5t8.5 18q0 12 -8.5 16.5t-19.5 4.5h-168z" />
    <glyph glyph-name="seveneighths" unicode="&#x215e;" horiz-adv-x="982" 
d="M223 353h-131l165 184q26 29 38.5 43t22.5 22q-14 -2 -34.5 -2h-59.5h-182l66 87h289q29 0 43 -13t14 -32q0 -9 -3.5 -18.5t-13.5 -20.5zM742 706l-533 -744h-91l540 744h84zM641 -9q-39 0 -65 7.5t-41.5 20t-22 30.5t-6.5 39q0 30 15 49t37 26q-17 5 -31 22.5t-14 46.5
q0 46 35.5 69.5t95.5 23.5h158q61 0 96.5 -23.5t35.5 -69.5q0 -29 -14.5 -46.5t-31.5 -22.5q23 -7 37.5 -26t14.5 -49q0 -21 -6.5 -39t-22 -30.5t-41.5 -20t-65 -7.5h-164zM641 122q-32 0 -32 -23q0 -22 32 -22h164q32 0 32 22q0 23 -32 23h-164zM639 238q-11 0 -19.5 -4.5
t-8.5 -16.5q0 -13 8.5 -18t19.5 -5h168q11 0 19.5 5t8.5 18q0 12 -8.5 16.5t-19.5 4.5h-168z" />
    <glyph glyph-name="minus" unicode="&#x2212;" horiz-adv-x="629" 
d="M588 284h-546v112h546v-112z" />
    <glyph glyph-name="approxequal" unicode="&#x2248;" horiz-adv-x="567" 
d="M382 344q-28 0 -55 11.5t-54 25.5t-54.5 25.5t-54.5 11.5q-29 0 -60 -18.5t-64 -63.5v164q38 40 72 53t65 13q27 0 54 -11.5t54 -25t55 -25t57 -11.5t59.5 17.5t64.5 62.5v-164q-38 -38 -72.5 -51.5t-66.5 -13.5zM385 108q-28 0 -55 11.5t-54 25.5t-54.5 25.5t-54.5 11.5
q-29 0 -60 -18.5t-64 -63.5v164q38 40 72 53t65 13q27 0 54 -11.5t54 -25t55 -25t57 -11.5t59.5 17.5t64.5 62.5v-164q-38 -38 -72.5 -51.5t-66.5 -13.5z" />
    <glyph glyph-name="notequal" unicode="&#x2260;" horiz-adv-x="629" 
d="M588 416h-169l-110 -153h279v-112h-359l-135 -189h-91l137 189h-98v112h179l111 153h-290v112h371l129 178h84l-127 -178h89v-112z" />
    <glyph glyph-name="lessequal" unicode="&#x2264;" horiz-adv-x="611" 
d="M570 54l-492 230q-19 8 -27.5 22.5t-8.5 30.5q0 17 8.5 31t27.5 23l492 230v-122l-349 -162l349 -161v-122zM588 -113h-546v112h546v-112z" />
    <glyph glyph-name="greaterequal" unicode="&#x2265;" horiz-adv-x="611" 
d="M42 176l349 161l-349 162v122l492 -230q18 -9 27 -23t9 -31q0 -16 -9 -30.5t-27 -22.5l-492 -230v122zM588 -113h-546v112h546v-112z" />
    <glyph glyph-name="uniF8FF" unicode="&#xf8ff;" horiz-adv-x="383" 
 />
    </font>
</defs>
</svg>
